<svg xmlns="http://www.w3.org/2000/svg" xmlns:xlink="http://www.w3.org/1999/xlink" version="1.1" width="1179" height="580"><defs/><g><g transform="translate(-25,-296) scale(1,1)"><rect fill="#C0C0C0" stroke="none" x="194" y="313" width="728" height="560" opacity="0.2"/></g><g transform="translate(-25,-296) scale(1,1)"><rect fill="#ffffff" stroke="none" x="187" y="306" width="728" height="560"/></g><g transform="translate(-25,-296) scale(1,1)"><path fill="none" stroke="#000000" d="M 187 306 L 915 306 L 915 866 L 187 866 L 187 306 Z Z" stroke-miterlimit="10"/></g><g transform="translate(-25,-296) scale(1,1)"><g><path fill="none" stroke="none"/><text fill="#000000" stroke="none" font-family="Arial" font-size="13px" font-style="normal" font-weight="bold" text-decoration="none" x="527.87548828125" y="324">System</text></g></g><g transform="translate(-25,-296) scale(1,1)"><path fill="#C0C0C0" stroke="none" d="M 210 528.5 C 210 515.5213072 234.8481936 505 265.5 505 C 296.1518064 505 321 515.5213072 321 528.5 C 321 541.4786928 296.1518064 552 265.5 552 C 234.8481936 552 210 541.4786928 210 528.5 Z" opacity="0.2"/></g><g transform="translate(-25,-296) scale(1,1)"><path fill="#adc8ff" stroke="none" d="M 203 521.5 C 203 508.5213072 227.8481936 498 258.5 498 C 289.1518064 498 314 508.5213072 314 521.5 C 314 534.4786928 289.1518064 545 258.5 545 C 227.8481936 545 203 534.4786928 203 521.5 Z"/></g><g transform="translate(-25,-296) scale(1,1)"><path fill="none" stroke="#000000" d="M 203 521.5 C 203 508.5213072 227.8481936 498 258.5 498 C 289.1518064 498 314 508.5213072 314 521.5 C 314 534.4786928 289.1518064 545 258.5 545 C 227.8481936 545 203 534.4786928 203 521.5 Z" stroke-miterlimit="10"/></g><g transform="translate(-25,-296) scale(1,1)"><g><path fill="none" stroke="none"/><text fill="#000000" stroke="none" font-family="Arial" font-size="13px" font-style="normal" font-weight="bold" text-decoration="none" x="236.819580078125" y="527">Search</text></g></g><g transform="translate(-25,-296) scale(1,1)"><path fill="#C0C0C0" stroke="none" d="M 506 508.5 C 506 497.7304464 540.0263552 489 582 489 C 623.9736448 489 658 497.7304464 658 508.5 C 658 519.2695536 623.9736448 528 582 528 C 540.0263552 528 506 519.2695536 506 508.5 Z" opacity="0.2"/></g><g transform="translate(-25,-296) scale(1,1)"><path fill="#adc8ff" stroke="none" d="M 499 501.5 C 499 490.7304464 533.0263552 482 575 482 C 616.9736448 482 651 490.7304464 651 501.5 C 651 512.2695536 616.9736448 521 575 521 C 533.0263552 521 499 512.2695536 499 501.5 Z"/></g><g transform="translate(-25,-296) scale(1,1)"><path fill="none" stroke="#000000" d="M 499 501.5 C 499 490.7304464 533.0263552 482 575 482 C 616.9736448 482 651 490.7304464 651 501.5 C 651 512.2695536 616.9736448 521 575 521 C 533.0263552 521 499 512.2695536 499 501.5 Z" stroke-miterlimit="10"/></g><g transform="translate(-25,-296) scale(1,1)"><g><path fill="none" stroke="none"/><text fill="#000000" stroke="none" font-family="Arial" font-size="13px" font-style="normal" font-weight="bold" text-decoration="none" x="525.631103515625" y="507">Visualize profile</text></g></g><g transform="translate(-25,-296) scale(1,1)"><path fill="#C0C0C0" stroke="none" d="M 418 642 C 418 632.6111584 463.6669504 625 520 625 C 576.3330496 625 622 632.6111584 622 642 C 622 651.3888416 576.3330496 659 520 659 C 463.6669504 659 418 651.3888416 418 642 Z" opacity="0.2"/></g><g transform="translate(-25,-296) scale(1,1)"><path fill="#adc8ff" stroke="none" d="M 411 635 C 411 625.6111584 456.6669504 618 513 618 C 569.3330496 618 615 625.6111584 615 635 C 615 644.3888416 569.3330496 652 513 652 C 456.6669504 652 411 644.3888416 411 635 Z"/></g><g transform="translate(-25,-296) scale(1,1)"><path fill="none" stroke="#000000" d="M 411 635 C 411 625.6111584 456.6669504 618 513 618 C 569.3330496 618 615 625.6111584 615 635 C 615 644.3888416 569.3330496 652 513 652 C 456.6669504 652 411 644.3888416 411 635 Z" stroke-miterlimit="10"/></g><g transform="translate(-25,-296) scale(1,1)"><g><path fill="none" stroke="none"/><text fill="#000000" stroke="none" font-family="Arial" font-size="13px" font-style="normal" font-weight="bold" text-decoration="none" x="445.4609375" y="640.5">See tweet information</text></g></g><g transform="translate(-25,-296) scale(1,1)"><path fill="#C0C0C0" stroke="none" d="M 474 770 C 474 760.6111584 520.1146656 753 577 753 C 633.8853344 753 680 760.6111584 680 770 C 680 779.3888416 633.8853344 787 577 787 C 520.1146656 787 474 779.3888416 474 770 Z" opacity="0.2"/></g><g transform="translate(-25,-296) scale(1,1)"><path fill="#ebffd8" stroke="none" d="M 467 763 C 467 753.6111584 513.1146656 746 570 746 C 626.8853344 746 673 753.6111584 673 763 C 673 772.3888416 626.8853344 780 570 780 C 513.1146656 780 467 772.3888416 467 763 Z"/></g><g transform="translate(-25,-296) scale(1,1)"><path fill="none" stroke="#000000" d="M 467 763 C 467 753.6111584 513.1146656 746 570 746 C 626.8853344 746 673 753.6111584 673 763 C 673 772.3888416 626.8853344 780 570 780 C 513.1146656 780 467 772.3888416 467 763 Z" stroke-miterlimit="10"/></g><g transform="translate(-25,-296) scale(1,1)"><g><path fill="none" stroke="none"/><text fill="#000000" stroke="none" font-family="Arial" font-size="13px" font-style="normal" font-weight="bold" text-decoration="none" x="501.740478515625" y="768.5">Interact with the tweet</text></g></g><g transform="translate(-25,-296) scale(1,1)"><path fill="none" stroke="#000000" d="M 498 506 L 315 517" stroke-miterlimit="10" stroke-dasharray="3"/></g><g transform="translate(-25,-296) scale(1,1)"><path fill="none" stroke="#000000" d="M 324.8917897036205 512.1882958882172 L 315 517 L 325.39694018400616 520.5921629709965" stroke-miterlimit="10"/></g><g transform="translate(-25,-296) scale(1,1)"><g><path fill="none" stroke="none"/><text fill="#000000" stroke="none" font-family="Arial" font-size="13px" font-style="normal" font-weight="normal" text-decoration="none" x="380.5" y="545">«extend»</text></g></g><g transform="translate(-25,-296) scale(1,1)"><path fill="none" stroke="#000000" d="M 466 617 L 363 578 L 304 546" stroke-miterlimit="10" stroke-dasharray="3"/></g><g transform="translate(-25,-296) scale(1,1)"><path fill="none" stroke="#000000" d="M 314.9402574228227 547.1448875588337 L 304 546 L 310.92637245505693 554.5454879681519" stroke-miterlimit="10"/></g><g transform="translate(-25,-296) scale(1,1)"><g><path fill="none" stroke="none"/><text fill="#000000" stroke="none" font-family="Arial" font-size="13px" font-style="normal" font-weight="normal" text-decoration="none" x="321.5" y="609">«extend»</text></g></g><g transform="translate(-25,-296) scale(1,1)"><path fill="none" stroke="#000000" d="M 521 653 L 562 745" stroke-miterlimit="10" stroke-dasharray="3"/></g><g transform="translate(-25,-296) scale(1,1)"><path fill="none" stroke="#000000" d="M 554.018206709887 737.4309197471617 L 562 745 L 561.7081678126589 734.0038718644047" stroke-miterlimit="10"/></g><g transform="translate(-25,-296) scale(1,1)"><g><path fill="none" stroke="none"/><text fill="#000000" stroke="none" font-family="Arial" font-size="13px" font-style="normal" font-weight="normal" text-decoration="none" x="541.5" y="691">«extend»</text></g></g><g transform="translate(-25,-296) scale(1,1)"><path fill="#ffffff" stroke="none" d="M 78.20706605113637 458.48 C 78.20706605113637 449.930631296 84.97131009826364 443 93.3154296875 443 C 101.65954927673636 443 108.42379332386363 449.930631296 108.42379332386363 458.48 C 108.42379332386363 467.02936870400003 101.65954927673636 473.96 93.3154296875 473.96 C 84.97131009826364 473.96 78.20706605113637 467.02936870400003 78.20706605113637 458.48 Z"/></g><g transform="translate(-25,-296) scale(1,1)"><path fill="none" stroke="#000000" d="M 78.20706605113637 458.48 C 78.20706605113637 449.930631296 84.97131009826364 443 93.3154296875 443 C 101.65954927673636 443 108.42379332386363 449.930631296 108.42379332386363 458.48 C 108.42379332386363 467.02936870400003 101.65954927673636 473.96 93.3154296875 473.96 C 84.97131009826364 473.96 78.20706605113637 467.02936870400003 78.20706605113637 458.48 Z" stroke-miterlimit="10"/></g><g transform="translate(-25,-296) scale(1,1)"><path fill="none" stroke="#000000" d="M 93.3154296875 473.96 L 93.3154296875 504.04" stroke-miterlimit="10"/></g><g transform="translate(-25,-296) scale(1,1)"><path fill="none" stroke="#000000" d="M 77.31833877840909 485.24 L 109.31252059659091 485.24" stroke-miterlimit="10"/></g><g transform="translate(-25,-296) scale(1,1)"><path fill="none" stroke="#000000" d="M 93.3154296875 504.04 L 71.09724786931818 535" stroke-miterlimit="10"/></g><g transform="translate(-25,-296) scale(1,1)"><path fill="none" stroke="#000000" d="M 93.3154296875 504.04 L 115.53361150568182 535" stroke-miterlimit="10"/></g><g transform="translate(-25,-296) scale(1,1)"><g><path fill="none" stroke="none"/><text fill="#000000" stroke="none" font-family="Arial" font-size="13px" font-style="normal" font-weight="bold" text-decoration="none" x="78.86181640625" y="554">User</text></g></g><g transform="translate(-25,-296) scale(1,1)"><path fill="none" stroke="#000000" d="M 153 508 L 202 514" stroke-miterlimit="10"/></g><g transform="translate(-25,-296) scale(1,1)"><path fill="#ffffd8" stroke="none" d="M 211 794 L 360 794 L 370 804 L 370 849 L 211 849 L 211 794"/></g><g transform="translate(-25,-296) scale(1,1)"><path fill="none" stroke="#000000" d="M 211 794 L 360 794 L 370 804 L 370 849 L 211 849 L 211 794 L 211 794" stroke-miterlimit="10"/></g><g transform="translate(-25,-296) scale(1,1)"><path fill="none" stroke="#000000" d="M 360 794 L 360 804 L 370 804 L 360 794" stroke-miterlimit="10"/></g><g transform="translate(-25,-296) scale(1,1)"><g><path fill="none" stroke="none"/><text fill="#000000" stroke="none" font-family="Arial" font-size="13px" font-style="normal" font-weight="normal" text-decoration="none" x="216" y="809">Only the registered User</text><text fill="#000000" stroke="none" font-family="Arial" font-size="13px" font-style="normal" font-weight="normal" text-decoration="none" x="216" y="822">can perform the actions in</text><text fill="#000000" stroke="none" font-family="Arial" font-size="13px" font-style="normal" font-weight="normal" text-decoration="none" x="216" y="832">green</text></g></g><g transform="translate(-25,-296) scale(1,1)"><path fill="none" stroke="#000000" d="M 565 522 L 521 617" stroke-miterlimit="10" stroke-dasharray="3"/></g><g transform="translate(-25,-296) scale(1,1)"><path fill="none" stroke="#000000" d="M 521.4513453331629 606.0092635647 L 521 617 L 529.0907736093711 609.5475250821016" stroke-miterlimit="10"/></g><g transform="translate(-25,-296) scale(1,1)"><g><path fill="none" stroke="none"/><text fill="#000000" stroke="none" font-family="Arial" font-size="13px" font-style="normal" font-weight="normal" text-decoration="none" x="542.5" y="611">«include»</text></g></g><g transform="translate(-25,-296) scale(1,1)"><path fill="#ffadad" stroke="none" d="M 787 498 L 875 498 L 885 508 L 885 612 L 787 612 L 787 498"/></g><g transform="translate(-25,-296) scale(1,1)"><path fill="none" stroke="#000000" d="M 787 498 L 875 498 L 885 508 L 885 612 L 787 612 L 787 498 L 787 498" stroke-miterlimit="10"/></g><g transform="translate(-25,-296) scale(1,1)"><path fill="none" stroke="#000000" d="M 875 498 L 875 508 L 885 508 L 875 498" stroke-miterlimit="10"/></g><g transform="translate(-25,-296) scale(1,1)"><g><path fill="none" stroke="none"/><text fill="#000000" stroke="none" font-family="Arial" font-size="13px" font-style="normal" font-weight="normal" text-decoration="none" x="792" y="513">A user can</text><text fill="#000000" stroke="none" font-family="Arial" font-size="13px" font-style="normal" font-weight="normal" text-decoration="none" x="792" y="526">search for a</text><text fill="#000000" stroke="none" font-family="Arial" font-size="13px" font-style="normal" font-weight="normal" text-decoration="none" x="792" y="539">profile and</text><text fill="#000000" stroke="none" font-family="Arial" font-size="13px" font-style="normal" font-weight="normal" text-decoration="none" x="792" y="552">view the details</text><text fill="#000000" stroke="none" font-family="Arial" font-size="13px" font-style="normal" font-weight="normal" text-decoration="none" x="792" y="565">of the profile</text><text fill="#000000" stroke="none" font-family="Arial" font-size="13px" font-style="normal" font-weight="normal" text-decoration="none" x="792" y="578">implies seeing</text><text fill="#000000" stroke="none" font-family="Arial" font-size="13px" font-style="normal" font-weight="normal" text-decoration="none" x="792" y="591">the tweets</text></g></g><g transform="translate(-25,-296) scale(1,1)"><path fill="none" stroke="#000000" d="M 543 569 L 786 557" stroke-miterlimit="10" stroke-dasharray="3"/></g><g transform="translate(-25,-296) scale(1,1)"><path fill="#ffffff" stroke="none" d="M 699 690 L 787 690 L 797 700 L 797 739 L 699 739 L 699 690"/></g><g transform="translate(-25,-296) scale(1,1)"><path fill="none" stroke="#000000" d="M 699 690 L 787 690 L 797 700 L 797 739 L 699 739 L 699 690 L 699 690" stroke-miterlimit="10"/></g><g transform="translate(-25,-296) scale(1,1)"><path fill="none" stroke="#000000" d="M 787 690 L 787 700 L 797 700 L 787 690" stroke-miterlimit="10"/></g><g transform="translate(-25,-296) scale(1,1)"><g><path fill="none" stroke="none"/><text fill="#000000" stroke="none" font-family="Arial" font-size="13px" font-style="normal" font-weight="normal" text-decoration="none" x="704" y="705">Full</text><text fill="#000000" stroke="none" font-family="Arial" font-size="13px" font-style="normal" font-weight="normal" text-decoration="none" x="704" y="718">specification</text><text fill="#000000" stroke="none" font-family="Arial" font-size="13px" font-style="normal" font-weight="normal" text-decoration="none" x="704" y="731">below</text></g></g><g transform="translate(-25,-296) scale(1,1)"><path fill="none" stroke="#000000" d="M 637 745 L 698 728" stroke-miterlimit="10" stroke-dasharray="3"/></g><g transform="translate(-25,-296) scale(1,1)"><path fill="#C0C0C0" stroke="none" d="M 666 642 C 666 632.6111584 696.220776 625 733.5 625 C 770.779224 625 801 632.6111584 801 642 C 801 651.3888416 770.779224 659 733.5 659 C 696.220776 659 666 651.3888416 666 642 Z" opacity="0.2"/></g><g transform="translate(-25,-296) scale(1,1)"><path fill="#adc8ff" stroke="none" d="M 659 635 C 659 625.6111584 689.220776 618 726.5 618 C 763.779224 618 794 625.6111584 794 635 C 794 644.3888416 763.779224 652 726.5 652 C 689.220776 652 659 644.3888416 659 635 Z"/></g><g transform="translate(-25,-296) scale(1,1)"><path fill="none" stroke="#000000" d="M 659 635 C 659 625.6111584 689.220776 618 726.5 618 C 763.779224 618 794 625.6111584 794 635 C 794 644.3888416 763.779224 652 726.5 652 C 689.220776 652 659 644.3888416 659 635 Z" stroke-miterlimit="10"/></g><g transform="translate(-25,-296) scale(1,1)"><g><path fill="none" stroke="none"/><text fill="#000000" stroke="none" font-family="Arial" font-size="13px" font-style="normal" font-weight="bold" text-decoration="none" x="688.690185546875" y="640.5">Share Tweet</text></g></g><g transform="translate(-25,-296) scale(1,1)"><path fill="none" stroke="#000000" d="M 658 635 L 616 635" stroke-miterlimit="10" stroke-dasharray="3"/></g><g transform="translate(-25,-296) scale(1,1)"><path fill="none" stroke="#000000" d="M 626.1626748576241 630.790482243984 L 616 635 L 626.1626748576241 639.209517756016" stroke-miterlimit="10"/></g><g transform="translate(-25,-296) scale(1,1)"><g><path fill="none" stroke="none"/><text fill="#000000" stroke="none" font-family="Arial" font-size="13px" font-style="normal" font-weight="normal" text-decoration="none" x="609.5" y="670">«extend»</text></g></g><g transform="translate(-25,-296) scale(1,1)"><path fill="#C0C0C0" stroke="none" d="M 226 690 C 226 680.6111584 269.8760896 673 324 673 C 378.1239104 673 422 680.6111584 422 690 C 422 699.3888416 378.1239104 707 324 707 C 269.8760896 707 226 699.3888416 226 690 Z" opacity="0.2"/></g><g transform="translate(-25,-296) scale(1,1)"><path fill="#adc8ff" stroke="none" d="M 219 683 C 219 673.6111584 262.8760896 666 317 666 C 371.1239104 666 415 673.6111584 415 683 C 415 692.3888416 371.1239104 700 317 700 C 262.8760896 700 219 692.3888416 219 683 Z"/></g><g transform="translate(-25,-296) scale(1,1)"><path fill="none" stroke="#000000" d="M 219 683 C 219 673.6111584 262.8760896 666 317 666 C 371.1239104 666 415 673.6111584 415 683 C 415 692.3888416 371.1239104 700 317 700 C 262.8760896 700 219 692.3888416 219 683 Z" stroke-miterlimit="10"/></g><g transform="translate(-25,-296) scale(1,1)"><g><path fill="none" stroke="none"/><text fill="#000000" stroke="none" font-family="Arial" font-size="13px" font-style="normal" font-weight="bold" text-decoration="none" x="252.212646484375" y="688.5">Visualize Tendencies</text></g></g><g transform="translate(-25,-296) scale(1,1)"><path fill="#C0C0C0" stroke="none" d="M 210 420.5 C 210 409.7304464 272.2324128 401 349 401 C 425.7675872 401 488 409.7304464 488 420.5 C 488 431.2695536 425.7675872 440 349 440 C 272.2324128 440 210 431.2695536 210 420.5 Z" opacity="0.2"/></g><g transform="translate(-25,-296) scale(1,1)"><path fill="#adc8ff" stroke="none" d="M 203 413.5 C 203 402.7304464 265.2324128 394 342 394 C 418.7675872 394 481 402.7304464 481 413.5 C 481 424.2695536 418.7675872 433 342 433 C 265.2324128 433 203 424.2695536 203 413.5 Z"/></g><g transform="translate(-25,-296) scale(1,1)"><path fill="none" stroke="#000000" d="M 203 413.5 C 203 402.7304464 265.2324128 394 342 394 C 418.7675872 394 481 402.7304464 481 413.5 C 481 424.2695536 418.7675872 433 342 433 C 265.2324128 433 203 424.2695536 203 413.5 Z" stroke-miterlimit="10"/></g><g transform="translate(-25,-296) scale(1,1)"><g><path fill="none" stroke="none"/><text fill="#000000" stroke="none" font-family="Arial" font-size="13px" font-style="normal" font-weight="bold" text-decoration="none" x="248.18798828125" y="419">Visualize recommended Users</text></g></g><g transform="translate(-25,-296) scale(1,1)"><path fill="none" stroke="#000000" d="M 153 549 L 295 665" stroke-miterlimit="10"/></g><g transform="translate(-25,-296) scale(1,1)"><path fill="none" stroke="#000000" d="M 153 480 L 283 434" stroke-miterlimit="10"/></g><g transform="translate(-25,-296) scale(1,1)"><path fill="#C0C0C0" stroke="none" d="M 450 386 C 450 376.6111584 482.0116368 369 521.5 369 C 560.9883632 369 593 376.6111584 593 386 C 593 395.3888416 560.9883632 403 521.5 403 C 482.0116368 403 450 395.3888416 450 386 Z" opacity="0.2"/></g><g transform="translate(-25,-296) scale(1,1)"><path fill="#d1ffa3" stroke="none" d="M 443 379 C 443 369.6111584 475.0116368 362 514.5 362 C 553.9883632 362 586 369.6111584 586 379 C 586 388.3888416 553.9883632 396 514.5 396 C 475.0116368 396 443 388.3888416 443 379 Z"/></g><g transform="translate(-25,-296) scale(1,1)"><path fill="none" stroke="#000000" d="M 443 379 C 443 369.6111584 475.0116368 362 514.5 362 C 553.9883632 362 586 369.6111584 586 379 C 586 388.3888416 553.9883632 396 514.5 396 C 475.0116368 396 443 388.3888416 443 379 Z" stroke-miterlimit="10"/></g><g transform="translate(-25,-296) scale(1,1)"><g><path fill="none" stroke="none"/><text fill="#000000" stroke="none" font-family="Arial" font-size="13px" font-style="normal" font-weight="bold" text-decoration="none" x="472.253173828125" y="384.5">Follow profile</text></g></g><g transform="translate(-25,-296) scale(1,1)"><path fill="none" stroke="#000000" d="M 523 397 L 565 481" stroke-miterlimit="10" stroke-dasharray="3"/></g><g transform="translate(-25,-296) scale(1,1)"><path fill="none" stroke="#000000" d="M 556.6900064950472 473.7927808450386 L 565 481 L 564.2202207790025 470.02767370306094" stroke-miterlimit="10"/></g><g transform="translate(-25,-296) scale(1,1)"><g><path fill="none" stroke="none"/><text fill="#000000" stroke="none" font-family="Arial" font-size="13px" font-style="normal" font-weight="normal" text-decoration="none" x="489.5" y="452">«extend»</text></g></g><g transform="translate(-25,-296) scale(1,1)"><path fill="#C0C0C0" stroke="none" d="M 586 362 C 586 352.6111584 614.4299152 345 649.5 345 C 684.5700848 345 713 352.6111584 713 362 C 713 371.3888416 684.5700848 379 649.5 379 C 614.4299152 379 586 371.3888416 586 362 Z" opacity="0.2"/></g><g transform="translate(-25,-296) scale(1,1)"><path fill="#d1ffa3" stroke="none" d="M 579 355 C 579 345.6111584 607.4299152 338 642.5 338 C 677.5700848 338 706 345.6111584 706 355 C 706 364.3888416 677.5700848 372 642.5 372 C 607.4299152 372 579 364.3888416 579 355 Z"/></g><g transform="translate(-25,-296) scale(1,1)"><path fill="none" stroke="#000000" d="M 579 355 C 579 345.6111584 607.4299152 338 642.5 338 C 677.5700848 338 706 345.6111584 706 355 C 706 364.3888416 677.5700848 372 642.5 372 C 607.4299152 372 579 364.3888416 579 355 Z" stroke-miterlimit="10"/></g><g transform="translate(-25,-296) scale(1,1)"><g><path fill="none" stroke="none"/><text fill="#000000" stroke="none" font-family="Arial" font-size="13px" font-style="normal" font-weight="bold" text-decoration="none" x="611.07275390625" y="360.5">Subscribe</text></g></g><g transform="translate(-25,-296) scale(1,1)"><path fill="none" stroke="#000000" d="M 634 373 L 584 481" stroke-miterlimit="10" stroke-dasharray="3"/></g><g transform="translate(-25,-296) scale(1,1)"><path fill="none" stroke="#000000" d="M 584.4495811642195 470.009191259203 L 584 481 L 592.0895772812553 473.54622649857146" stroke-miterlimit="10"/></g><g transform="translate(-25,-296) scale(1,1)"><g><path fill="none" stroke="none"/><text fill="#000000" stroke="none" font-family="Arial" font-size="13px" font-style="normal" font-weight="normal" text-decoration="none" x="546.5" y="420">«extend»</text></g></g><g transform="translate(-25,-296) scale(1,1)"><path fill="#C0C0C0" stroke="none" d="M 226 754 C 226 744.6111584 268.7568016 737 321.5 737 C 374.2431984 737 417 744.6111584 417 754 C 417 763.3888416 374.2431984 771 321.5 771 C 268.7568016 771 226 763.3888416 226 754 Z" opacity="0.2"/></g><g transform="translate(-25,-296) scale(1,1)"><path fill="#d1ffa3" stroke="none" d="M 219 747 C 219 737.6111584 261.7568016 730 314.5 730 C 367.2431984 730 410 737.6111584 410 747 C 410 756.3888416 367.2431984 764 314.5 764 C 261.7568016 764 219 756.3888416 219 747 Z"/></g><g transform="translate(-25,-296) scale(1,1)"><path fill="none" stroke="#000000" d="M 219 747 C 219 737.6111584 261.7568016 730 314.5 730 C 367.2431984 730 410 737.6111584 410 747 C 410 756.3888416 367.2431984 764 314.5 764 C 261.7568016 764 219 756.3888416 219 747 Z" stroke-miterlimit="10"/></g><g transform="translate(-25,-296) scale(1,1)"><g><path fill="none" stroke="none"/><text fill="#000000" stroke="none" font-family="Arial" font-size="13px" font-style="normal" font-weight="bold" text-decoration="none" x="265.13427734375" y="752.5">Block Tendency</text></g></g><g transform="translate(-25,-296) scale(1,1)"><path fill="none" stroke="#000000" d="M 315 729 L 316 701" stroke-miterlimit="10" stroke-dasharray="3"/></g><g transform="translate(-25,-296) scale(1,1)"><path fill="none" stroke="#000000" d="M 319.8441142603102 711.3064438849527 L 316 701 L 311.43044290015257 711.0059556220899" stroke-miterlimit="10"/></g><g transform="translate(-25,-296) scale(1,1)"><g><path fill="none" stroke="none"/><text fill="#000000" stroke="none" font-family="Arial" font-size="13px" font-style="normal" font-weight="normal" text-decoration="none" x="241.5" y="717">«extend»</text></g></g><g transform="translate(-25,-296) scale(1,1)"><path fill="#C0C0C0" stroke="none" d="M 674 416.5 C 674 403.5213072 696.6096176 393 724.5 393 C 752.3903824 393 775 403.5213072 775 416.5 C 775 429.4786928 752.3903824 440 724.5 440 C 696.6096176 440 674 429.4786928 674 416.5 Z" opacity="0.2"/></g><g transform="translate(-25,-296) scale(1,1)"><path fill="#d1ffa3" stroke="none" d="M 667 409.5 C 667 396.5213072 689.6096176 386 717.5 386 C 745.3903824 386 768 396.5213072 768 409.5 C 768 422.4786928 745.3903824 433 717.5 433 C 689.6096176 433 667 422.4786928 667 409.5 Z"/></g><g transform="translate(-25,-296) scale(1,1)"><path fill="none" stroke="#000000" d="M 667 409.5 C 667 396.5213072 689.6096176 386 717.5 386 C 745.3903824 386 768 396.5213072 768 409.5 C 768 422.4786928 745.3903824 433 717.5 433 C 689.6096176 433 667 422.4786928 667 409.5 Z" stroke-miterlimit="10"/></g><g transform="translate(-25,-296) scale(1,1)"><g><path fill="none" stroke="none"/><text fill="#000000" stroke="none" font-family="Arial" font-size="13px" font-style="normal" font-weight="bold" text-decoration="none" x="699.799560546875" y="415">Block</text></g></g><g transform="translate(-25,-296) scale(1,1)"><path fill="#C0C0C0" stroke="none" d="M 738 466 C 738 456.6111584 760.6096176 449 788.5 449 C 816.3903824 449 839 456.6111584 839 466 C 839 475.3888416 816.3903824 483 788.5 483 C 760.6096176 483 738 475.3888416 738 466 Z" opacity="0.2"/></g><g transform="translate(-25,-296) scale(1,1)"><path fill="#d1ffa3" stroke="none" d="M 731 459 C 731 449.6111584 753.6096176 442 781.5 442 C 809.3903824 442 832 449.6111584 832 459 C 832 468.3888416 809.3903824 476 781.5 476 C 753.6096176 476 731 468.3888416 731 459 Z"/></g><g transform="translate(-25,-296) scale(1,1)"><path fill="none" stroke="#000000" d="M 731 459 C 731 449.6111584 753.6096176 442 781.5 442 C 809.3903824 442 832 449.6111584 832 459 C 832 468.3888416 809.3903824 476 781.5 476 C 753.6096176 476 731 468.3888416 731 459 Z" stroke-miterlimit="10"/></g><g transform="translate(-25,-296) scale(1,1)"><g><path fill="none" stroke="none"/><text fill="#000000" stroke="none" font-family="Arial" font-size="13px" font-style="normal" font-weight="bold" text-decoration="none" x="755.858642578125" y="464.5">Unblock</text></g></g><g transform="translate(-25,-296) scale(1,1)"><path fill="none" stroke="#000000" d="M 678 434 L 606 481" stroke-miterlimit="10" stroke-dasharray="3"/></g><g transform="translate(-25,-296) scale(1,1)"><path fill="none" stroke="#000000" d="M 612.208994914224 471.91989085114386 L 606 481 L 616.8110291612708 478.9698156551304" stroke-miterlimit="10"/></g><g transform="translate(-25,-296) scale(1,1)"><g><path fill="none" stroke="none"/><text fill="#000000" stroke="none" font-family="Arial" font-size="13px" font-style="normal" font-weight="normal" text-decoration="none" x="617.5" y="440">«extend»</text></g></g><g transform="translate(-25,-296) scale(1,1)"><path fill="none" stroke="#000000" d="M 730 469 L 652 485" stroke-miterlimit="10" stroke-dasharray="3"/></g><g transform="translate(-25,-296) scale(1,1)"><path fill="none" stroke="#000000" d="M 661.1095057953077 478.8342150406248 L 652 485 L 662.8012616772323 487.081524965008" stroke-miterlimit="10"/></g><g transform="translate(-25,-296) scale(1,1)"><g><path fill="none" stroke="none"/><text fill="#000000" stroke="none" font-family="Arial" font-size="13px" font-style="normal" font-weight="normal" text-decoration="none" x="670.5" y="511">«extend»</text></g></g><g transform="translate(-25,-296) scale(1,1)"><path fill="#ffd8ff" stroke="none" d="M 971 370 L 1183 370 L 1193 380 L 1193 512 L 971 512 L 971 370"/></g><g transform="translate(-25,-296) scale(1,1)"><path fill="none" stroke="#000000" d="M 971 370 L 1183 370 L 1193 380 L 1193 512 L 971 512 L 971 370 L 971 370" stroke-miterlimit="10"/></g><g transform="translate(-25,-296) scale(1,1)"><path fill="none" stroke="#000000" d="M 1183 370 L 1183 380 L 1193 380 L 1183 370" stroke-miterlimit="10"/></g><g transform="translate(-25,-296) scale(1,1)"><g><path fill="none" stroke="none"/><text fill="#000000" stroke="none" font-family="Arial" font-size="13px" font-style="normal" font-weight="normal" text-decoration="none" x="976" y="385">Search system.</text></g></g><g transform="translate(-25,-296) scale(1,1)"><g><path fill="none" stroke="none"/></g></g><g transform="translate(-25,-296) scale(1,1)"><g><path fill="none" stroke="none"/><text fill="#000000" stroke="none" font-family="Arial" font-size="13px" font-style="normal" font-weight="normal" text-decoration="none" x="976" y="402">This are the main functionalities that</text><text fill="#000000" stroke="none" font-family="Arial" font-size="13px" font-style="normal" font-weight="normal" text-decoration="none" x="976" y="415">all users can do: Search, visualize</text><text fill="#000000" stroke="none" font-family="Arial" font-size="13px" font-style="normal" font-weight="normal" text-decoration="none" x="976" y="428">tendencies and see users</text><text fill="#000000" stroke="none" font-family="Arial" font-size="13px" font-style="normal" font-weight="normal" text-decoration="none" x="976" y="441">recomendations</text></g></g><g transform="translate(-25,-296) scale(1,1)"><path fill="none" stroke="#000000" d="M 916 486 L 970 472" stroke-miterlimit="10" stroke-dasharray="3"/></g></g></svg>