<svg xmlns="http://www.w3.org/2000/svg" xmlns:xlink="http://www.w3.org/1999/xlink" version="1.1" width="867" height="475"><defs/><g><g transform="translate(-30,-134) scale(1,1)"><rect fill="#C0C0C0" stroke="none" x="191" y="175" width="583" height="431" opacity="0.2"/></g><g transform="translate(-30,-134) scale(1,1)"><rect fill="#ffffff" stroke="none" x="184" y="168" width="583" height="431"/></g><g transform="translate(-30,-134) scale(1,1)"><path fill="none" stroke="#000000" d="M 184 168 L 767 168 L 767 599 L 184 599 L 184 168 Z Z" stroke-miterlimit="10"/></g><g transform="translate(-30,-134) scale(1,1)"><g><path fill="none" stroke="none"/><text fill="#000000" stroke="none" font-family="Arial" font-size="13px" font-style="normal" font-weight="bold" text-decoration="none" x="452.37548828125" y="186">System</text></g></g><g transform="translate(-30,-134) scale(1,1)"><path fill="#C0C0C0" stroke="none" d="M 231 274.5 C 231 263.7304464 257.6390544 255 290.5 255 C 323.3609456 255 350 263.7304464 350 274.5 C 350 285.2695536 323.3609456 294 290.5 294 C 257.6390544 294 231 285.2695536 231 274.5 Z" opacity="0.2"/></g><g transform="translate(-30,-134) scale(1,1)"><path fill="#d8fff8" stroke="none" d="M 224 267.5 C 224 256.7304464 250.6390544 248 283.5 248 C 316.3609456 248 343 256.7304464 343 267.5 C 343 278.2695536 316.3609456 287 283.5 287 C 250.6390544 287 224 278.2695536 224 267.5 Z"/></g><g transform="translate(-30,-134) scale(1,1)"><path fill="none" stroke="#000000" d="M 224 267.5 C 224 256.7304464 250.6390544 248 283.5 248 C 316.3609456 248 343 256.7304464 343 267.5 C 343 278.2695536 316.3609456 287 283.5 287 C 250.6390544 287 224 278.2695536 224 267.5 Z" stroke-miterlimit="10"/></g><g transform="translate(-30,-134) scale(1,1)"><g><path fill="none" stroke="none"/><text fill="#000000" stroke="none" font-family="Arial" font-size="13px" font-style="normal" font-weight="bold" text-decoration="none" x="258.947265625" y="273">Sing Up</text></g></g><g transform="translate(-30,-134) scale(1,1)"><path fill="#C0C0C0" stroke="none" d="M 447 270.5 C 447 257.5213072 509.4562704 247 586.5 247 C 663.5437296 247 726 257.5213072 726 270.5 C 726 283.4786928 663.5437296 294 586.5 294 C 509.4562704 294 447 283.4786928 447 270.5 Z" opacity="0.2"/></g><g transform="translate(-30,-134) scale(1,1)"><path fill="#d8fff8" stroke="none" d="M 440 263.5 C 440 250.5213072 502.4562704 240 579.5 240 C 656.5437296 240 719 250.5213072 719 263.5 C 719 276.4786928 656.5437296 287 579.5 287 C 502.4562704 287 440 276.4786928 440 263.5 Z"/></g><g transform="translate(-30,-134) scale(1,1)"><path fill="none" stroke="#000000" d="M 440 263.5 C 440 250.5213072 502.4562704 240 579.5 240 C 656.5437296 240 719 250.5213072 719 263.5 C 719 276.4786928 656.5437296 287 579.5 287 C 502.4562704 287 440 276.4786928 440 263.5 Z" stroke-miterlimit="10"/></g><g transform="translate(-30,-134) scale(1,1)"><g><path fill="none" stroke="none"/><text fill="#000000" stroke="none" font-family="Arial" font-size="13px" font-style="normal" font-weight="bold" text-decoration="none" x="494.609619140625" y="269">Receive confirmation Email</text></g></g><g transform="translate(-30,-134) scale(1,1)"><path fill="#C0C0C0" stroke="none" d="M 247 424 C 247 414.6111584 270.0573328 407 298.5 407 C 326.9426672 407 350 414.6111584 350 424 C 350 433.3888416 326.9426672 441 298.5 441 C 270.0573328 441 247 433.3888416 247 424 Z" opacity="0.2"/></g><g transform="translate(-30,-134) scale(1,1)"><path fill="#d8ffd8" stroke="none" d="M 240 417 C 240 407.6111584 263.0573328 400 291.5 400 C 319.9426672 400 343 407.6111584 343 417 C 343 426.3888416 319.9426672 434 291.5 434 C 263.0573328 434 240 426.3888416 240 417 Z"/></g><g transform="translate(-30,-134) scale(1,1)"><path fill="none" stroke="#000000" d="M 240 417 C 240 407.6111584 263.0573328 400 291.5 400 C 319.9426672 400 343 407.6111584 343 417 C 343 426.3888416 319.9426672 434 291.5 434 C 263.0573328 434 240 426.3888416 240 417 Z" stroke-miterlimit="10"/></g><g transform="translate(-30,-134) scale(1,1)"><g><path fill="none" stroke="none"/><text fill="#000000" stroke="none" font-family="Arial" font-size="13px" font-style="normal" font-weight="bold" text-decoration="none" x="272.00634765625" y="422.5">Log In</text></g></g><g transform="translate(-30,-134) scale(1,1)"><path fill="#C0C0C0" stroke="none" d="M 455 438.5 C 455 425.5213072 517.4562704 415 594.5 415 C 671.5437296 415 734 425.5213072 734 438.5 C 734 451.4786928 671.5437296 462 594.5 462 C 517.4562704 462 455 451.4786928 455 438.5 Z" opacity="0.2"/></g><g transform="translate(-30,-134) scale(1,1)"><path fill="#d8ffd8" stroke="none" d="M 448 431.5 C 448 418.5213072 510.4562704 408 587.5 408 C 664.5437296 408 727 418.5213072 727 431.5 C 727 444.4786928 664.5437296 455 587.5 455 C 510.4562704 455 448 444.4786928 448 431.5 Z"/></g><g transform="translate(-30,-134) scale(1,1)"><path fill="none" stroke="#000000" d="M 448 431.5 C 448 418.5213072 510.4562704 408 587.5 408 C 664.5437296 408 727 418.5213072 727 431.5 C 727 444.4786928 664.5437296 455 587.5 455 C 510.4562704 455 448 444.4786928 448 431.5 Z" stroke-miterlimit="10"/></g><g transform="translate(-30,-134) scale(1,1)"><g><path fill="none" stroke="none"/><text fill="#000000" stroke="none" font-family="Arial" font-size="13px" font-style="normal" font-weight="bold" text-decoration="none" x="526.095947265625" y="437">Receive notification</text></g></g><g transform="translate(-30,-134) scale(1,1)"><path fill="none" stroke="#000000" d="M 344 266 L 439 265" stroke-miterlimit="10" stroke-dasharray="3"/></g><g transform="translate(-30,-134) scale(1,1)"><path fill="none" stroke="#000000" d="M 428.8821963832071 269.3162541598025 L 439 265 L 428.793579866131 260.8976850375729" stroke-miterlimit="10"/></g><g transform="translate(-30,-134) scale(1,1)"><g><path fill="none" stroke="none"/><text fill="#000000" stroke="none" font-family="Arial" font-size="13px" font-style="normal" font-weight="normal" text-decoration="none" x="363.5" y="240">«include»</text></g></g><g transform="translate(-30,-134) scale(1,1)"><path fill="none" stroke="#000000" d="M 344 420 L 447 424" stroke-miterlimit="10" stroke-dasharray="3"/></g><g transform="translate(-30,-134) scale(1,1)"><path fill="none" stroke="#000000" d="M 436.6816266384151 427.81197733085276 L 447 424 L 437.0083332048333 419.39928324558406" stroke-miterlimit="10"/></g><g transform="translate(-30,-134) scale(1,1)"><g><path fill="none" stroke="none"/><text fill="#000000" stroke="none" font-family="Arial" font-size="13px" font-style="normal" font-weight="normal" text-decoration="none" x="368.5" y="397">«include»</text></g></g><g transform="translate(-30,-134) scale(1,1)"><path fill="#ffffff" stroke="none" d="M 89.92124786931817 225.84 C 89.92124786931817 216.539523968 97.2611722608818 209 106.3154296875 209 C 115.3696871141182 209 122.70961150568183 216.539523968 122.70961150568183 225.84 C 122.70961150568183 235.140476032 115.3696871141182 242.68 106.3154296875 242.68 C 97.2611722608818 242.68 89.92124786931817 235.140476032 89.92124786931817 225.84 Z"/></g><g transform="translate(-30,-134) scale(1,1)"><path fill="none" stroke="#000000" d="M 89.92124786931817 225.84 C 89.92124786931817 216.539523968 97.2611722608818 209 106.3154296875 209 C 115.3696871141182 209 122.70961150568183 216.539523968 122.70961150568183 225.84 C 122.70961150568183 235.140476032 115.3696871141182 242.68 106.3154296875 242.68 C 97.2611722608818 242.68 89.92124786931817 235.140476032 89.92124786931817 225.84 Z" stroke-miterlimit="10"/></g><g transform="translate(-30,-134) scale(1,1)"><path fill="none" stroke="#000000" d="M 106.3154296875 242.68 L 106.3154296875 275.32" stroke-miterlimit="10"/></g><g transform="translate(-30,-134) scale(1,1)"><path fill="none" stroke="#000000" d="M 88.95688423295454 254.92000000000002 L 123.67397514204546 254.92000000000002" stroke-miterlimit="10"/></g><g transform="translate(-30,-134) scale(1,1)"><path fill="none" stroke="#000000" d="M 106.3154296875 275.32 L 82.20633877840908 309" stroke-miterlimit="10"/></g><g transform="translate(-30,-134) scale(1,1)"><path fill="none" stroke="#000000" d="M 106.3154296875 275.32 L 130.42452059659092 309" stroke-miterlimit="10"/></g><g transform="translate(-30,-134) scale(1,1)"><g><path fill="none" stroke="none"/><text fill="#000000" stroke="none" font-family="Arial" font-size="13px" font-style="normal" font-weight="bold" text-decoration="none" x="52.5" y="328">Anonymous User</text></g></g><g transform="translate(-30,-134) scale(1,1)"><path fill="#ffffff" stroke="none" d="M 77.96031036931818 425.84000000000003 C 77.96031036931818 416.539523968 85.30023476088182 409 94.3544921875 409 C 103.40874961411818 409 110.74867400568182 416.539523968 110.74867400568182 425.84000000000003 C 110.74867400568182 435.14047603200004 103.40874961411818 442.68 94.3544921875 442.68 C 85.30023476088182 442.68 77.96031036931818 435.14047603200004 77.96031036931818 425.84000000000003 Z"/></g><g transform="translate(-30,-134) scale(1,1)"><path fill="none" stroke="#000000" d="M 77.96031036931818 425.84000000000003 C 77.96031036931818 416.539523968 85.30023476088182 409 94.3544921875 409 C 103.40874961411818 409 110.74867400568182 416.539523968 110.74867400568182 425.84000000000003 C 110.74867400568182 435.14047603200004 103.40874961411818 442.68 94.3544921875 442.68 C 85.30023476088182 442.68 77.96031036931818 435.14047603200004 77.96031036931818 425.84000000000003 Z" stroke-miterlimit="10"/></g><g transform="translate(-30,-134) scale(1,1)"><path fill="none" stroke="#000000" d="M 94.3544921875 442.68 L 94.3544921875 475.32" stroke-miterlimit="10"/></g><g transform="translate(-30,-134) scale(1,1)"><path fill="none" stroke="#000000" d="M 76.99594673295455 454.92 L 111.71303764204545 454.92" stroke-miterlimit="10"/></g><g transform="translate(-30,-134) scale(1,1)"><path fill="none" stroke="#000000" d="M 94.3544921875 475.32 L 70.24540127840909 509" stroke-miterlimit="10"/></g><g transform="translate(-30,-134) scale(1,1)"><path fill="none" stroke="#000000" d="M 94.3544921875 475.32 L 118.46358309659091 509" stroke-miterlimit="10"/></g><g transform="translate(-30,-134) scale(1,1)"><g><path fill="none" stroke="none"/><text fill="#000000" stroke="none" font-family="Arial" font-size="13px" font-style="normal" font-weight="bold" text-decoration="none" x="44.5" y="528">Registered User</text></g></g><g transform="translate(-30,-134) scale(1,1)"><path fill="none" stroke="#000000" d="M 150 456 L 239 431" stroke-miterlimit="10"/></g><g transform="translate(-30,-134) scale(1,1)"><path fill="none" stroke="#000000" d="M 166 270 L 223 268" stroke-miterlimit="10"/></g><g transform="translate(-30,-134) scale(1,1)"><path fill="#ffd8ff" stroke="none" d="M 808 144 L 876 144 L 886 154 L 886 193 L 808 193 L 808 144"/></g><g transform="translate(-30,-134) scale(1,1)"><path fill="none" stroke="#000000" d="M 808 144 L 876 144 L 886 154 L 886 193 L 808 193 L 808 144 L 808 144" stroke-miterlimit="10"/></g><g transform="translate(-30,-134) scale(1,1)"><path fill="none" stroke="#000000" d="M 876 144 L 876 154 L 886 154 L 876 144" stroke-miterlimit="10"/></g><g transform="translate(-30,-134) scale(1,1)"><g><path fill="none" stroke="none"/><text fill="#000000" stroke="none" font-family="Arial" font-size="13px" font-style="normal" font-weight="normal" text-decoration="none" x="813" y="159">Log In and</text><text fill="#000000" stroke="none" font-family="Arial" font-size="13px" font-style="normal" font-weight="normal" text-decoration="none" x="813" y="172">Sing Up</text></g></g><g transform="translate(-30,-134) scale(1,1)"><path fill="none" stroke="#000000" d="M 768 214 L 807 192" stroke-miterlimit="10" stroke-dasharray="3"/></g></g></svg>