<svg xmlns="http://www.w3.org/2000/svg" xmlns:xlink="http://www.w3.org/1999/xlink" version="1.1" width="1123" height="669"><defs/><g><g transform="translate(-53,-252) scale(1,1)"><rect fill="#C0C0C0" stroke="none" x="182" y="269" width="680" height="584" opacity="0.2"/></g><g transform="translate(-53,-252) scale(1,1)"><rect fill="#ffffff" stroke="none" x="175" y="262" width="680" height="584"/></g><g transform="translate(-53,-252) scale(1,1)"><path fill="none" stroke="#000000" d="M 175 262 L 855 262 L 855 846 L 175 846 L 175 262 Z Z" stroke-miterlimit="10"/></g><g transform="translate(-53,-252) scale(1,1)"><g><path fill="none" stroke="none"/><text fill="#000000" stroke="none" font-family="Arial" font-size="13px" font-style="normal" font-weight="bold" text-decoration="none" x="491.87548828125" y="280">System</text></g></g><g transform="translate(-53,-252) scale(1,1)"><path fill="#C0C0C0" stroke="none" d="M 254 368.5 C 254 353.312168 297.4283744 341 351 341 C 404.5716256 341 448 353.312168 448 368.5 C 448 383.687832 404.5716256 396 351 396 C 297.4283744 396 254 383.687832 254 368.5 Z" opacity="0.2"/></g><g transform="translate(-53,-252) scale(1,1)"><path fill="#ebd8ff" stroke="none" d="M 247 361.5 C 247 346.312168 290.4283744 334 344 334 C 397.5716256 334 441 346.312168 441 361.5 C 441 376.687832 397.5716256 389 344 389 C 290.4283744 389 247 376.687832 247 361.5 Z"/></g><g transform="translate(-53,-252) scale(1,1)"><path fill="none" stroke="#000000" d="M 247 361.5 C 247 346.312168 290.4283744 334 344 334 C 397.5716256 334 441 346.312168 441 361.5 C 441 376.687832 397.5716256 389 344 389 C 290.4283744 389 247 376.687832 247 361.5 Z" stroke-miterlimit="10"/></g><g transform="translate(-53,-252) scale(1,1)"><g><path fill="none" stroke="none"/><text fill="#000000" stroke="none" font-family="Arial" font-size="13px" font-style="normal" font-weight="bold" text-decoration="none" x="279.828369140625" y="367">Visualize own profile</text></g></g><g transform="translate(-53,-252) scale(1,1)"><path fill="#C0C0C0" stroke="none" d="M 510 352.5 C 510 341.7304464 545.817216 333 590 333 C 634.182784 333 670 341.7304464 670 352.5 C 670 363.2695536 634.182784 372 590 372 C 545.817216 372 510 363.2695536 510 352.5 Z" opacity="0.2"/></g><g transform="translate(-53,-252) scale(1,1)"><path fill="#ebd8ff" stroke="none" d="M 503 345.5 C 503 334.7304464 538.817216 326 583 326 C 627.182784 326 663 334.7304464 663 345.5 C 663 356.2695536 627.182784 365 583 365 C 538.817216 365 503 356.2695536 503 345.5 Z"/></g><g transform="translate(-53,-252) scale(1,1)"><path fill="none" stroke="#000000" d="M 503 345.5 C 503 334.7304464 538.817216 326 583 326 C 627.182784 326 663 334.7304464 663 345.5 C 663 356.2695536 627.182784 365 583 365 C 538.817216 365 503 356.2695536 503 345.5 Z" stroke-miterlimit="10"/></g><g transform="translate(-53,-252) scale(1,1)"><g><path fill="none" stroke="none"/><text fill="#000000" stroke="none" font-family="Arial" font-size="13px" font-style="normal" font-weight="bold" text-decoration="none" x="548.69091796875" y="351">Edit Profile</text></g></g><g transform="translate(-53,-252) scale(1,1)"><path fill="#C0C0C0" stroke="none" d="M 518 444.5 C 518 431.5213072 567.9202448 421 629.5 421 C 691.0797552 421 741 431.5213072 741 444.5 C 741 457.4786928 691.0797552 468 629.5 468 C 567.9202448 468 518 457.4786928 518 444.5 Z" opacity="0.2"/></g><g transform="translate(-53,-252) scale(1,1)"><path fill="#ebd8ff" stroke="none" d="M 511 437.5 C 511 424.5213072 560.9202448 414 622.5 414 C 684.0797552 414 734 424.5213072 734 437.5 C 734 450.4786928 684.0797552 461 622.5 461 C 560.9202448 461 511 450.4786928 511 437.5 Z"/></g><g transform="translate(-53,-252) scale(1,1)"><path fill="none" stroke="#000000" d="M 511 437.5 C 511 424.5213072 560.9202448 414 622.5 414 C 684.0797552 414 734 424.5213072 734 437.5 C 734 450.4786928 684.0797552 461 622.5 461 C 560.9202448 461 511 450.4786928 511 437.5 Z" stroke-miterlimit="10"/></g><g transform="translate(-53,-252) scale(1,1)"><g><path fill="none" stroke="none"/><text fill="#000000" stroke="none" font-family="Arial" font-size="13px" font-style="normal" font-weight="bold" text-decoration="none" x="548.203857421875" y="443">Visualize Own Statistics</text></g></g><g transform="translate(-53,-252) scale(1,1)"><path fill="#C0C0C0" stroke="none" d="M 270 486 C 270 476.6111584 326.85983039999996 469 397 469 C 467.14016960000004 469 524 476.6111584 524 486 C 524 495.3888416 467.14016960000004 503 397 503 C 326.85983039999996 503 270 495.3888416 270 486 Z" opacity="0.2"/></g><g transform="translate(-53,-252) scale(1,1)"><path fill="#ebd8ff" stroke="none" d="M 263 479 C 263 469.6111584 319.85983039999996 462 390 462 C 460.14016960000004 462 517 469.6111584 517 479 C 517 488.3888416 460.14016960000004 496 390 496 C 319.85983039999996 496 263 488.3888416 263 479 Z"/></g><g transform="translate(-53,-252) scale(1,1)"><path fill="none" stroke="#000000" d="M 263 479 C 263 469.6111584 319.85983039999996 462 390 462 C 460.14016960000004 462 517 469.6111584 517 479 C 517 488.3888416 460.14016960000004 496 390 496 C 319.85983039999996 496 263 488.3888416 263 479 Z" stroke-miterlimit="10"/></g><g transform="translate(-53,-252) scale(1,1)"><g><path fill="none" stroke="none"/><text fill="#000000" stroke="none" font-family="Arial" font-size="13px" font-style="normal" font-weight="bold" text-decoration="none" x="318.845947265625" y="484.5">See tweets information</text></g></g><g transform="translate(-53,-252) scale(1,1)"><path fill="#ffffff" stroke="none" d="M 99.6744921875 545.2 C 99.6744921875 535.14841664 107.5900969235 527 117.3544921875 527 C 127.1188874515 527 135.0344921875 535.14841664 135.0344921875 545.2 C 135.0344921875 555.25158336 127.1188874515 563.4 117.3544921875 563.4 C 107.5900969235 563.4 99.6744921875 555.25158336 99.6744921875 545.2 Z"/></g><g transform="translate(-53,-252) scale(1,1)"><path fill="none" stroke="#000000" d="M 99.6744921875 545.2 C 99.6744921875 535.14841664 107.5900969235 527 117.3544921875 527 C 127.1188874515 527 135.0344921875 535.14841664 135.0344921875 545.2 C 135.0344921875 555.25158336 127.1188874515 563.4 117.3544921875 563.4 C 107.5900969235 563.4 99.6744921875 555.25158336 99.6744921875 545.2 Z" stroke-miterlimit="10"/></g><g transform="translate(-53,-252) scale(1,1)"><path fill="none" stroke="#000000" d="M 117.3544921875 563.4 L 117.3544921875 598.6" stroke-miterlimit="10"/></g><g transform="translate(-53,-252) scale(1,1)"><path fill="none" stroke="#000000" d="M 98.6344921875 576.6 L 136.0744921875 576.6" stroke-miterlimit="10"/></g><g transform="translate(-53,-252) scale(1,1)"><path fill="none" stroke="#000000" d="M 117.3544921875 598.6 L 91.3544921875 635" stroke-miterlimit="10"/></g><g transform="translate(-53,-252) scale(1,1)"><path fill="none" stroke="#000000" d="M 117.3544921875 598.6 L 143.3544921875 635" stroke-miterlimit="10"/></g><g transform="translate(-53,-252) scale(1,1)"><g><path fill="none" stroke="none"/><text fill="#000000" stroke="none" font-family="Arial" font-size="13px" font-style="normal" font-weight="bold" text-decoration="none" x="67.5" y="654">Registered User</text></g></g><g transform="translate(-53,-252) scale(1,1)"><path fill="none" stroke="#000000" d="M 173 536 L 316 390" stroke-miterlimit="10"/></g><g transform="translate(-53,-252) scale(1,1)"><path fill="none" stroke="#000000" d="M 502 350 L 442 354" stroke-miterlimit="10" stroke-dasharray="3"/></g><g transform="translate(-53,-252) scale(1,1)"><path fill="none" stroke="#000000" d="M 451.86015318114744 349.1237945855094 L 442 354 L 452.4201790929724 357.5241832628826" stroke-miterlimit="10"/></g><g transform="translate(-53,-252) scale(1,1)"><g><path fill="none" stroke="none"/><text fill="#000000" stroke="none" font-family="Arial" font-size="13px" font-style="normal" font-weight="normal" text-decoration="none" x="446.5" y="337">«extend»</text></g></g><g transform="translate(-53,-252) scale(1,1)"><path fill="none" stroke="#000000" d="M 534 413 L 442 388" stroke-miterlimit="10" stroke-dasharray="3"/></g><g transform="translate(-53,-252) scale(1,1)"><path fill="none" stroke="#000000" d="M 452.9108976184747 386.60274799725886 L 442 388 L 450.7031760610203 394.72716332869084" stroke-miterlimit="10"/></g><g transform="translate(-53,-252) scale(1,1)"><g><path fill="none" stroke="none"/><text fill="#000000" stroke="none" font-family="Arial" font-size="13px" font-style="normal" font-weight="normal" text-decoration="none" x="478.5" y="393">«extend»</text></g></g><g transform="translate(-53,-252) scale(1,1)"><path fill="none" stroke="#000000" d="M 355 390 L 383 461" stroke-miterlimit="10" stroke-dasharray="3"/></g><g transform="translate(-53,-252) scale(1,1)"><path fill="none" stroke="#000000" d="M 375.35563736936996 453.09027687137996 L 383 461 L 383.1876382075878 450.00160048447714" stroke-miterlimit="10"/></g><g transform="translate(-53,-252) scale(1,1)"><g><path fill="none" stroke="none"/><text fill="#000000" stroke="none" font-family="Arial" font-size="13px" font-style="normal" font-weight="normal" text-decoration="none" x="381.5" y="435">«include»</text></g></g><g transform="translate(-53,-252) scale(1,1)"><path fill="#C0C0C0" stroke="none" d="M 342 552.5 C 342 537.312168 375.8024976 525 417.5 525 C 459.1975024 525 493 537.312168 493 552.5 C 493 567.687832 459.1975024 580 417.5 580 C 375.8024976 580 342 567.687832 342 552.5 Z" opacity="0.2"/></g><g transform="translate(-53,-252) scale(1,1)"><path fill="#d8e5ff" stroke="none" d="M 335 545.5 C 335 530.312168 368.8024976 518 410.5 518 C 452.1975024 518 486 530.312168 486 545.5 C 486 560.687832 452.1975024 573 410.5 573 C 368.8024976 573 335 560.687832 335 545.5 Z"/></g><g transform="translate(-53,-252) scale(1,1)"><path fill="none" stroke="#000000" d="M 335 545.5 C 335 530.312168 368.8024976 518 410.5 518 C 452.1975024 518 486 530.312168 486 545.5 C 486 560.687832 452.1975024 573 410.5 573 C 368.8024976 573 335 560.687832 335 545.5 Z" stroke-miterlimit="10"/></g><g transform="translate(-53,-252) scale(1,1)"><g><path fill="none" stroke="none"/><text fill="#000000" stroke="none" font-family="Arial" font-size="13px" font-style="normal" font-weight="bold" text-decoration="none" x="361.724609375" y="551">Read Messages</text></g></g><g transform="translate(-53,-252) scale(1,1)"><path fill="#C0C0C0" stroke="none" d="M 406 608.5 C 406 593.312168 454.129384 581 513.5 581 C 572.870616 581 621 593.312168 621 608.5 C 621 623.687832 572.870616 636 513.5 636 C 454.129384 636 406 623.687832 406 608.5 Z" opacity="0.2"/></g><g transform="translate(-53,-252) scale(1,1)"><path fill="#d8e5ff" stroke="none" d="M 399 601.5 C 399 586.312168 447.129384 574 506.5 574 C 565.870616 574 614 586.312168 614 601.5 C 614 616.687832 565.870616 629 506.5 629 C 447.129384 629 399 616.687832 399 601.5 Z"/></g><g transform="translate(-53,-252) scale(1,1)"><path fill="none" stroke="#000000" d="M 399 601.5 C 399 586.312168 447.129384 574 506.5 574 C 565.870616 574 614 586.312168 614 601.5 C 614 616.687832 565.870616 629 506.5 629 C 447.129384 629 399 616.687832 399 601.5 Z" stroke-miterlimit="10"/></g><g transform="translate(-53,-252) scale(1,1)"><g><path fill="none" stroke="none"/><text fill="#000000" stroke="none" font-family="Arial" font-size="13px" font-style="normal" font-weight="bold" text-decoration="none" x="457.727783203125" y="607">Send Messages</text></g></g><g transform="translate(-53,-252) scale(1,1)"><path fill="#C0C0C0" stroke="none" d="M 478 668.5 C 478 655.5213072 517.17508 645 565.5 645 C 613.82492 645 653 655.5213072 653 668.5 C 653 681.4786928 613.82492 692 565.5 692 C 517.17508 692 478 681.4786928 478 668.5 Z" opacity="0.2"/></g><g transform="translate(-53,-252) scale(1,1)"><path fill="#d8e5ff" stroke="none" d="M 471 661.5 C 471 648.5213072 510.17508 638 558.5 638 C 606.82492 638 646 648.5213072 646 661.5 C 646 674.4786928 606.82492 685 558.5 685 C 510.17508 685 471 674.4786928 471 661.5 Z"/></g><g transform="translate(-53,-252) scale(1,1)"><path fill="none" stroke="#000000" d="M 471 661.5 C 471 648.5213072 510.17508 638 558.5 638 C 606.82492 638 646 648.5213072 646 661.5 C 646 674.4786928 606.82492 685 558.5 685 C 510.17508 685 471 674.4786928 471 661.5 Z" stroke-miterlimit="10"/></g><g transform="translate(-53,-252) scale(1,1)"><g><path fill="none" stroke="none"/><text fill="#000000" stroke="none" font-family="Arial" font-size="13px" font-style="normal" font-weight="bold" text-decoration="none" x="501.044189453125" y="667">Receive Messages</text></g></g><g transform="translate(-53,-252) scale(1,1)"><path fill="none" stroke="#000000" d="M 172 542 L 335 542" stroke-miterlimit="10"/></g><g transform="translate(-53,-252) scale(1,1)"><path fill="none" stroke="#000000" d="M 173 594 L 398 599" stroke-miterlimit="10"/></g><g transform="translate(-53,-252) scale(1,1)"><path fill="#C0C0C0" stroke="none" d="M 278 704.5 C 278 693.7304464 320.3090864 685 372.5 685 C 424.6909136 685 467 693.7304464 467 704.5 C 467 715.2695536 424.6909136 724 372.5 724 C 320.3090864 724 278 715.2695536 278 704.5 Z" opacity="0.2"/></g><g transform="translate(-53,-252) scale(1,1)"><path fill="#ffe2d8" stroke="none" d="M 271 697.5 C 271 686.7304464 313.3090864 678 365.5 678 C 417.6909136 678 460 686.7304464 460 697.5 C 460 708.2695536 417.6909136 717 365.5 717 C 313.3090864 717 271 708.2695536 271 697.5 Z"/></g><g transform="translate(-53,-252) scale(1,1)"><path fill="none" stroke="#000000" d="M 271 697.5 C 271 686.7304464 313.3090864 678 365.5 678 C 417.6909136 678 460 686.7304464 460 697.5 C 460 708.2695536 417.6909136 717 365.5 717 C 313.3090864 717 271 708.2695536 271 697.5 Z" stroke-miterlimit="10"/></g><g transform="translate(-53,-252) scale(1,1)"><g><path fill="none" stroke="none"/><text fill="#000000" stroke="none" font-family="Arial" font-size="13px" font-style="normal" font-weight="bold" text-decoration="none" x="303.010498046875" y="703">Request Verification</text></g></g><g transform="translate(-53,-252) scale(1,1)"><path fill="none" stroke="#000000" d="M 173 610 L 343 662 L 470 661" stroke-miterlimit="10"/></g><g transform="translate(-53,-252) scale(1,1)"><path fill="#C0C0C0" stroke="none" d="M 206 808.5 C 206 797.7304464 245.84665280000002 789 295 789 C 344.1533472 789 384 797.7304464 384 808.5 C 384 819.2695536 344.1533472 828 295 828 C 245.84665280000002 828 206 819.2695536 206 808.5 Z" opacity="0.2"/></g><g transform="translate(-53,-252) scale(1,1)"><path fill="#d1ffa3" stroke="none" d="M 199 801.5 C 199 790.7304464 238.84665280000002 782 288 782 C 337.1533472 782 377 790.7304464 377 801.5 C 377 812.2695536 337.1533472 821 288 821 C 238.84665280000002 821 199 812.2695536 199 801.5 Z"/></g><g transform="translate(-53,-252) scale(1,1)"><path fill="none" stroke="#000000" d="M 199 801.5 C 199 790.7304464 238.84665280000002 782 288 782 C 337.1533472 782 377 790.7304464 377 801.5 C 377 812.2695536 337.1533472 821 288 821 C 238.84665280000002 821 199 812.2695536 199 801.5 Z" stroke-miterlimit="10"/></g><g transform="translate(-53,-252) scale(1,1)"><g><path fill="none" stroke="none"/><text fill="#000000" stroke="none" font-family="Arial" font-size="13px" font-style="normal" font-weight="bold" text-decoration="none" x="229.48095703125" y="807">Accept Verification</text></g></g><g transform="translate(-53,-252) scale(1,1)"><path fill="#C0C0C0" stroke="none" d="M 430 814 C 430 804.6111584 466.2649312 797 511 797 C 555.7350688 797 592 804.6111584 592 814 C 592 823.3888416 555.7350688 831 511 831 C 466.2649312 831 430 823.3888416 430 814 Z" opacity="0.2"/></g><g transform="translate(-53,-252) scale(1,1)"><path fill="#ffd8d8" stroke="none" d="M 423 807 C 423 797.6111584 459.2649312 790 504 790 C 548.7350688 790 585 797.6111584 585 807 C 585 816.3888416 548.7350688 824 504 824 C 459.2649312 824 423 816.3888416 423 807 Z"/></g><g transform="translate(-53,-252) scale(1,1)"><path fill="none" stroke="#000000" d="M 423 807 C 423 797.6111584 459.2649312 790 504 790 C 548.7350688 790 585 797.6111584 585 807 C 585 816.3888416 548.7350688 824 504 824 C 459.2649312 824 423 816.3888416 423 807 Z" stroke-miterlimit="10"/></g><g transform="translate(-53,-252) scale(1,1)"><g><path fill="none" stroke="none"/><text fill="#000000" stroke="none" font-family="Arial" font-size="13px" font-style="normal" font-weight="bold" text-decoration="none" x="451.260498046875" y="812.5">Deny Verification</text></g></g><g transform="translate(-53,-252) scale(1,1)"><path fill="none" stroke="#000000" d="M 303 781 L 349 718" stroke-miterlimit="10" stroke-dasharray="3"/></g><g transform="translate(-53,-252) scale(1,1)"><path fill="none" stroke="#000000" d="M 346.40683586336314 728.6899719251484 L 349 718 L 339.6074044152881 723.7253076932205" stroke-miterlimit="10"/></g><g transform="translate(-53,-252) scale(1,1)"><g><path fill="none" stroke="none"/><text fill="#000000" stroke="none" font-family="Arial" font-size="13px" font-style="normal" font-weight="normal" text-decoration="none" x="265.5" y="754">«extend»</text></g></g><g transform="translate(-53,-252) scale(1,1)"><path fill="none" stroke="#000000" d="M 481 789 L 392 718" stroke-miterlimit="10" stroke-dasharray="3"/></g><g transform="translate(-53,-252) scale(1,1)"><path fill="none" stroke="#000000" d="M 402.56957034421976 721.046995690609 L 392 718 L 397.3192635495502 727.6283661797019" stroke-miterlimit="10"/></g><g transform="translate(-53,-252) scale(1,1)"><g><path fill="none" stroke="none"/><text fill="#000000" stroke="none" font-family="Arial" font-size="13px" font-style="normal" font-weight="normal" text-decoration="none" x="445.5" y="752">«extend»</text></g></g><g transform="translate(-53,-252) scale(1,1)"><path fill="#ffffff" stroke="none" d="M 101.96327272727272 739.76 C 101.96327272727272 732.712845952 107.57615608552727 727 114.5 727 C 121.42384391447273 727 127.03672727272728 732.712845952 127.03672727272728 739.76 C 127.03672727272728 746.807154048 121.42384391447273 752.52 114.5 752.52 C 107.57615608552727 752.52 101.96327272727272 746.807154048 101.96327272727272 739.76 Z"/></g><g transform="translate(-53,-252) scale(1,1)"><path fill="none" stroke="#000000" d="M 101.96327272727272 739.76 C 101.96327272727272 732.712845952 107.57615608552727 727 114.5 727 C 121.42384391447273 727 127.03672727272728 732.712845952 127.03672727272728 739.76 C 127.03672727272728 746.807154048 121.42384391447273 752.52 114.5 752.52 C 107.57615608552727 752.52 101.96327272727272 746.807154048 101.96327272727272 739.76 Z" stroke-miterlimit="10"/></g><g transform="translate(-53,-252) scale(1,1)"><path fill="none" stroke="#000000" d="M 114.5 752.52 L 114.5 777.48" stroke-miterlimit="10"/></g><g transform="translate(-53,-252) scale(1,1)"><path fill="none" stroke="#000000" d="M 101.22581818181818 761.88 L 127.77418181818182 761.88" stroke-miterlimit="10"/></g><g transform="translate(-53,-252) scale(1,1)"><path fill="none" stroke="#000000" d="M 114.5 777.48 L 96.06363636363636 803" stroke-miterlimit="10"/></g><g transform="translate(-53,-252) scale(1,1)"><path fill="none" stroke="#000000" d="M 114.5 777.48 L 132.93636363636364 803" stroke-miterlimit="10"/></g><g transform="translate(-53,-252) scale(1,1)"><g><path fill="none" stroke="none"/><text fill="#000000" stroke="none" font-family="Arial" font-size="13px" font-style="normal" font-weight="bold" text-decoration="none" x="94.279541015625" y="822">Admin</text></g></g><g transform="translate(-53,-252) scale(1,1)"><path fill="none" stroke="#000000" d="M 115 725 L 116 662" stroke-miterlimit="10"/></g><g transform="translate(-53,-252) scale(1,1)"><path fill="#FFFFFF" stroke="none" d="M 124.09539115004888 682.4564083388974 L 116 662 L 107.25944092340175 682.1891710337125"/></g><g transform="translate(-53,-252) scale(1,1)"><path fill="none" stroke="#000000" d="M 124.09539115004888 682.4564083388974 L 116 662 L 107.25944092340175 682.1891710337125 L 124.09539115004888 682.4564083388974" stroke-miterlimit="10"/></g><g transform="translate(-53,-252) scale(1,1)"><path fill="none" stroke="#000000" d="M 111 829 L 111 910 L 287 910 L 287 821" stroke-miterlimit="10"/></g><g transform="translate(-53,-252) scale(1,1)"><path fill="none" stroke="#000000" d="M 111 829 L 111 910 L 511 910 L 511 824" stroke-miterlimit="10"/></g><g transform="translate(-53,-252) scale(1,1)"><path fill="none" stroke="#000000" d="M 173 639 L 239 694 L 270 695" stroke-miterlimit="10"/></g><g transform="translate(-53,-252) scale(1,1)"><path fill="#ffd8ff" stroke="none" d="M 935 326 L 1155 326 L 1165 336 L 1165 436 L 935 436 L 935 326"/></g><g transform="translate(-53,-252) scale(1,1)"><path fill="none" stroke="#000000" d="M 935 326 L 1155 326 L 1165 336 L 1165 436 L 935 436 L 935 326 L 935 326" stroke-miterlimit="10"/></g><g transform="translate(-53,-252) scale(1,1)"><path fill="none" stroke="#000000" d="M 1155 326 L 1155 336 L 1165 336 L 1155 326" stroke-miterlimit="10"/></g><g transform="translate(-53,-252) scale(1,1)"><g><path fill="none" stroke="none"/><text fill="#000000" stroke="none" font-family="Arial" font-size="13px" font-style="normal" font-weight="normal" text-decoration="none" x="940" y="341">Profile Manegement.</text></g></g><g transform="translate(-53,-252) scale(1,1)"><g><path fill="none" stroke="none"/><text fill="#000000" stroke="none" font-family="Arial" font-size="13px" font-style="normal" font-weight="normal" text-decoration="none" x="940" y="356">Once the user acccess it profile, he</text><text fill="#000000" stroke="none" font-family="Arial" font-size="13px" font-style="normal" font-weight="normal" text-decoration="none" x="940" y="369">can use the messaging system, the</text><text fill="#000000" stroke="none" font-family="Arial" font-size="13px" font-style="normal" font-weight="normal" text-decoration="none" x="940" y="382">personalization system or request a</text><text fill="#000000" stroke="none" font-family="Arial" font-size="13px" font-style="normal" font-weight="normal" text-decoration="none" x="940" y="395">verification</text></g></g><g transform="translate(-53,-252) scale(1,1)"><path fill="none" stroke="#000000" d="M 856 444 L 934 419" stroke-miterlimit="10" stroke-dasharray="3"/></g></g></svg>