<svg xmlns="http://www.w3.org/2000/svg" xmlns:xlink="http://www.w3.org/1999/xlink" version="1.1" width="1163" height="604"><defs/><g><g transform="translate(-33,-284) scale(1,1)"><rect fill="#C0C0C0" stroke="none" x="138" y="301" width="712" height="584" opacity="0.2"/></g><g transform="translate(-33,-284) scale(1,1)"><rect fill="#ffffff" stroke="none" x="131" y="294" width="712" height="584"/></g><g transform="translate(-33,-284) scale(1,1)"><path fill="none" stroke="#000000" d="M 131 294 L 843 294 L 843 878 L 131 878 L 131 294 Z Z" stroke-miterlimit="10"/></g><g transform="translate(-33,-284) scale(1,1)"><g><path fill="none" stroke="none"/><text fill="#000000" stroke="none" font-family="Arial" font-size="13px" font-style="normal" font-weight="bold" text-decoration="none" x="463.87548828125" y="312">System</text></g></g><g transform="translate(-33,-284) scale(1,1)"><path fill="#C0C0C0" stroke="none" d="M 186 552.5 C 186 537.312168 242.41211520000002 525 312 525 C 381.5878848 525 438 537.312168 438 552.5 C 438 567.687832 381.5878848 580 312 580 C 242.41211520000002 580 186 567.687832 186 552.5 Z" opacity="0.2"/></g><g transform="translate(-33,-284) scale(1,1)"><path fill="#adc8ff" stroke="none" d="M 179 545.5 C 179 530.312168 235.41211520000002 518 305 518 C 374.5878848 518 431 530.312168 431 545.5 C 431 560.687832 374.5878848 573 305 573 C 235.41211520000002 573 179 560.687832 179 545.5 Z"/></g><g transform="translate(-33,-284) scale(1,1)"><path fill="none" stroke="#000000" d="M 179 545.5 C 179 530.312168 235.41211520000002 518 305 518 C 374.5878848 518 431 530.312168 431 545.5 C 431 560.687832 374.5878848 573 305 573 C 235.41211520000002 573 179 560.687832 179 545.5 Z" stroke-miterlimit="10"/></g><g transform="translate(-33,-284) scale(1,1)"><g><path fill="none" stroke="none"/><text fill="#000000" stroke="none" font-family="Arial" font-size="13px" font-style="normal" font-weight="bold" text-decoration="none" x="236.137451171875" y="551">See Tweet information</text></g></g><g transform="translate(-33,-284) scale(1,1)"><path fill="#C0C0C0" stroke="none" d="M 218 420.5 C 218 407.5213072 250.0116368 397 289.5 397 C 328.9883632 397 361 407.5213072 361 420.5 C 361 433.4786928 328.9883632 444 289.5 444 C 250.0116368 444 218 433.4786928 218 420.5 Z" opacity="0.2"/></g><g transform="translate(-33,-284) scale(1,1)"><path fill="#d1ffa3" stroke="none" d="M 211 413.5 C 211 400.5213072 243.0116368 390 282.5 390 C 321.9883632 390 354 400.5213072 354 413.5 C 354 426.4786928 321.9883632 437 282.5 437 C 243.0116368 437 211 426.4786928 211 413.5 Z"/></g><g transform="translate(-33,-284) scale(1,1)"><path fill="none" stroke="#000000" d="M 211 413.5 C 211 400.5213072 243.0116368 390 282.5 390 C 321.9883632 390 354 400.5213072 354 413.5 C 354 426.4786928 321.9883632 437 282.5 437 C 243.0116368 437 211 426.4786928 211 413.5 Z" stroke-miterlimit="10"/></g><g transform="translate(-33,-284) scale(1,1)"><g><path fill="none" stroke="none"/><text fill="#000000" stroke="none" font-family="Arial" font-size="13px" font-style="normal" font-weight="bold" text-decoration="none" x="250.339599609375" y="419">Give a like</text></g></g><g transform="translate(-33,-284) scale(1,1)"><path fill="#C0C0C0" stroke="none" d="M 354 390 C 354 380.6111584 391.3842192 373 437.5 373 C 483.6157808 373 521 380.6111584 521 390 C 521 399.3888416 483.6157808 407 437.5 407 C 391.3842192 407 354 399.3888416 354 390 Z" opacity="0.2"/></g><g transform="translate(-33,-284) scale(1,1)"><path fill="#d1ffa3" stroke="none" d="M 347 383 C 347 373.6111584 384.3842192 366 430.5 366 C 476.6157808 366 514 373.6111584 514 383 C 514 392.3888416 476.6157808 400 430.5 400 C 384.3842192 400 347 392.3888416 347 383 Z"/></g><g transform="translate(-33,-284) scale(1,1)"><path fill="none" stroke="#000000" d="M 347 383 C 347 373.6111584 384.3842192 366 430.5 366 C 476.6157808 366 514 373.6111584 514 383 C 514 392.3888416 476.6157808 400 430.5 400 C 384.3842192 400 347 392.3888416 347 383 Z" stroke-miterlimit="10"/></g><g transform="translate(-33,-284) scale(1,1)"><g><path fill="none" stroke="none"/><text fill="#000000" stroke="none" font-family="Arial" font-size="13px" font-style="normal" font-weight="bold" text-decoration="none" x="386.421875" y="388.5">Give a retweet</text></g></g><g transform="translate(-33,-284) scale(1,1)"><path fill="#C0C0C0" stroke="none" d="M 530 518 C 530 508.6111584 569.17508 501 617.5 501 C 665.82492 501 705 508.6111584 705 518 C 705 527.3888416 665.82492 535 617.5 535 C 569.17508 535 530 527.3888416 530 518 Z" opacity="0.2"/></g><g transform="translate(-33,-284) scale(1,1)"><path fill="#d1ffa3" stroke="none" d="M 523 511 C 523 501.6111584 562.17508 494 610.5 494 C 658.82492 494 698 501.6111584 698 511 C 698 520.3888416 658.82492 528 610.5 528 C 562.17508 528 523 520.3888416 523 511 Z"/></g><g transform="translate(-33,-284) scale(1,1)"><path fill="none" stroke="#000000" d="M 523 511 C 523 501.6111584 562.17508 494 610.5 494 C 658.82492 494 698 501.6111584 698 511 C 698 520.3888416 658.82492 528 610.5 528 C 562.17508 528 523 520.3888416 523 511 Z" stroke-miterlimit="10"/></g><g transform="translate(-33,-284) scale(1,1)"><g><path fill="none" stroke="none"/><text fill="#000000" stroke="none" font-family="Arial" font-size="13px" font-style="normal" font-weight="bold" text-decoration="none" x="560.2900390625" y="516.5">Read comments</text></g></g><g transform="translate(-33,-284) scale(1,1)"><path fill="#C0C0C0" stroke="none" d="M 570 576.5 C 570 565.7304464 610.9659408 557 661.5 557 C 712.0340592 557 753 565.7304464 753 576.5 C 753 587.2695536 712.0340592 596 661.5 596 C 610.9659408 596 570 587.2695536 570 576.5 Z" opacity="0.2"/></g><g transform="translate(-33,-284) scale(1,1)"><path fill="#d1ffa3" stroke="none" d="M 563 569.5 C 563 558.7304464 603.9659408 550 654.5 550 C 705.0340592 550 746 558.7304464 746 569.5 C 746 580.2695536 705.0340592 589 654.5 589 C 603.9659408 589 563 580.2695536 563 569.5 Z"/></g><g transform="translate(-33,-284) scale(1,1)"><path fill="none" stroke="#000000" d="M 563 569.5 C 563 558.7304464 603.9659408 550 654.5 550 C 705.0340592 550 746 558.7304464 746 569.5 C 746 580.2695536 705.0340592 589 654.5 589 C 603.9659408 589 563 580.2695536 563 569.5 Z" stroke-miterlimit="10"/></g><g transform="translate(-33,-284) scale(1,1)"><g><path fill="none" stroke="none"/><text fill="#000000" stroke="none" font-family="Arial" font-size="13px" font-style="normal" font-weight="bold" text-decoration="none" x="599.9482421875" y="575">Leave a comment</text></g></g><g transform="translate(-33,-284) scale(1,1)"><path fill="#C0C0C0" stroke="none" d="M 346 752.5 C 346 741.7304464 390.5476624 733 445.5 733 C 500.4523376 733 545 741.7304464 545 752.5 C 545 763.2695536 500.4523376 772 445.5 772 C 390.5476624 772 346 763.2695536 346 752.5 Z" opacity="0.2"/></g><g transform="translate(-33,-284) scale(1,1)"><path fill="#ffebd8" stroke="none" d="M 339 745.5 C 339 734.7304464 383.5476624 726 438.5 726 C 493.4523376 726 538 734.7304464 538 745.5 C 538 756.2695536 493.4523376 765 438.5 765 C 383.5476624 765 339 756.2695536 339 745.5 Z"/></g><g transform="translate(-33,-284) scale(1,1)"><path fill="none" stroke="#000000" d="M 339 745.5 C 339 734.7304464 383.5476624 726 438.5 726 C 493.4523376 726 538 734.7304464 538 745.5 C 538 756.2695536 493.4523376 765 438.5 765 C 383.5476624 765 339 756.2695536 339 745.5 Z" stroke-miterlimit="10"/></g><g transform="translate(-33,-284) scale(1,1)"><g><path fill="none" stroke="none"/><text fill="#000000" stroke="none" font-family="Arial" font-size="13px" font-style="normal" font-weight="bold" text-decoration="none" x="406.479248046875" y="751">Edit Tweet</text></g></g><g transform="translate(-33,-284) scale(1,1)"><path fill="#C0C0C0" stroke="none" d="M 170 736.5 C 170 725.7304464 207.3842192 717 253.5 717 C 299.6157808 717 337 725.7304464 337 736.5 C 337 747.2695536 299.6157808 756 253.5 756 C 207.3842192 756 170 747.2695536 170 736.5 Z" opacity="0.2"/></g><g transform="translate(-33,-284) scale(1,1)"><path fill="#ffebd8" stroke="none" d="M 163 729.5 C 163 718.7304464 200.3842192 710 246.5 710 C 292.6157808 710 330 718.7304464 330 729.5 C 330 740.2695536 292.6157808 749 246.5 749 C 200.3842192 749 163 740.2695536 163 729.5 Z"/></g><g transform="translate(-33,-284) scale(1,1)"><path fill="none" stroke="#000000" d="M 163 729.5 C 163 718.7304464 200.3842192 710 246.5 710 C 292.6157808 710 330 718.7304464 330 729.5 C 330 740.2695536 292.6157808 749 246.5 749 C 200.3842192 749 163 740.2695536 163 729.5 Z" stroke-miterlimit="10"/></g><g transform="translate(-33,-284) scale(1,1)"><g><path fill="none" stroke="none"/><text fill="#000000" stroke="none" font-family="Arial" font-size="13px" font-style="normal" font-weight="bold" text-decoration="none" x="207.24609375" y="735">Delete Tweet</text></g></g><g transform="translate(-33,-284) scale(1,1)"><path fill="none" stroke="#000000" d="M 252 709 L 296 574" stroke-miterlimit="10" stroke-dasharray="3"/></g><g transform="translate(-33,-284) scale(1,1)"><path fill="none" stroke="#000000" d="M 296.8530719365153 584.9668713984951 L 296 574 L 288.8484638168732 582.3579620854266" stroke-miterlimit="10"/></g><g transform="translate(-33,-284) scale(1,1)"><g><path fill="none" stroke="none"/><text fill="#000000" stroke="none" font-family="Arial" font-size="13px" font-style="normal" font-weight="normal" text-decoration="none" x="218.5" y="636">«extend»</text></g></g><g transform="translate(-33,-284) scale(1,1)"><path fill="none" stroke="#000000" d="M 425 725 L 324 574" stroke-miterlimit="10" stroke-dasharray="3"/></g><g transform="translate(-33,-284) scale(1,1)"><path fill="none" stroke="#000000" d="M 333.14910235116463 580.1068753194996 L 324 574 L 326.1511793639993 584.7876052645572" stroke-miterlimit="10"/></g><g transform="translate(-33,-284) scale(1,1)"><g><path fill="none" stroke="none"/><text fill="#000000" stroke="none" font-family="Arial" font-size="13px" font-style="normal" font-weight="normal" text-decoration="none" x="322.5" y="670">«extend»</text></g></g><g transform="translate(-33,-284) scale(1,1)"><path fill="none" stroke="#000000" d="M 562 563 L 432 554" stroke-miterlimit="10" stroke-dasharray="3"/></g><g transform="translate(-33,-284) scale(1,1)"><path fill="none" stroke="#000000" d="M 442.4291399761261 550.5024237880544 L 432 554 L 441.84767545624595 558.901355741879" stroke-miterlimit="10"/></g><g transform="translate(-33,-284) scale(1,1)"><g><path fill="none" stroke="none"/><text fill="#000000" stroke="none" font-family="Arial" font-size="13px" font-style="normal" font-weight="normal" text-decoration="none" x="490.5" y="576">«extend»</text></g></g><g transform="translate(-33,-284) scale(1,1)"><path fill="none" stroke="#000000" d="M 522 521 L 432 531" stroke-miterlimit="10" stroke-dasharray="3"/></g><g transform="translate(-33,-284) scale(1,1)"><path fill="none" stroke="#000000" d="M 441.63565377193316 525.6939490779461 L 432 531 L 442.5653807116052 534.0614915349942" stroke-miterlimit="10"/></g><g transform="translate(-33,-284) scale(1,1)"><g><path fill="none" stroke="none"/><text fill="#000000" stroke="none" font-family="Arial" font-size="13px" font-style="normal" font-weight="normal" text-decoration="none" x="466.5" y="473">«extend»</text></g></g><g transform="translate(-33,-284) scale(1,1)"><path fill="none" stroke="#000000" d="M 416 401 L 327 517" stroke-miterlimit="10" stroke-dasharray="3"/></g><g transform="translate(-33,-284) scale(1,1)"><path fill="none" stroke="#000000" d="M 329.84643695247195 506.37466251474325 L 327 517 L 336.5259830595336 511.49948668309224" stroke-miterlimit="10"/></g><g transform="translate(-33,-284) scale(1,1)"><g><path fill="none" stroke="none"/><text fill="#000000" stroke="none" font-family="Arial" font-size="13px" font-style="normal" font-weight="normal" text-decoration="none" x="382.5" y="446">«extend»</text></g></g><g transform="translate(-33,-284) scale(1,1)"><path fill="none" stroke="#000000" d="M 286 438 L 300 517" stroke-miterlimit="10" stroke-dasharray="3"/></g><g transform="translate(-33,-284) scale(1,1)"><path fill="none" stroke="#000000" d="M 294.0817160010092 507.72778804668 L 300 517 L 302.37158520011735 506.2586973025343" stroke-miterlimit="10"/></g><g transform="translate(-33,-284) scale(1,1)"><g><path fill="none" stroke="none"/><text fill="#000000" stroke="none" font-family="Arial" font-size="13px" font-style="normal" font-weight="normal" text-decoration="none" x="293.5" y="466">«extend»</text></g></g><g transform="translate(-33,-284) scale(1,1)"><path fill="#ffffd8" stroke="none" d="M 139 806 L 319 806 L 329 816 L 329 868 L 139 868 L 139 806"/></g><g transform="translate(-33,-284) scale(1,1)"><path fill="none" stroke="#000000" d="M 139 806 L 319 806 L 329 816 L 329 868 L 139 868 L 139 806 L 139 806" stroke-miterlimit="10"/></g><g transform="translate(-33,-284) scale(1,1)"><path fill="none" stroke="#000000" d="M 319 806 L 319 816 L 329 816 L 319 806" stroke-miterlimit="10"/></g><g transform="translate(-33,-284) scale(1,1)"><g><path fill="none" stroke="none"/><text fill="#000000" stroke="none" font-family="Arial" font-size="13px" font-style="normal" font-weight="normal" text-decoration="none" x="144" y="821">Only the owner of the tweet</text><text fill="#000000" stroke="none" font-family="Arial" font-size="13px" font-style="normal" font-weight="normal" text-decoration="none" x="144" y="834">and the administrator can</text><text fill="#000000" stroke="none" font-family="Arial" font-size="13px" font-style="normal" font-weight="normal" text-decoration="none" x="144" y="847">perform the actions in orange</text></g></g><g transform="translate(-33,-284) scale(1,1)"><path fill="#C0C0C0" stroke="none" d="M 458 696.5 C 458 685.7304464 493.5933584 677 537.5 677 C 581.4066416000001 677 617 685.7304464 617 696.5 C 617 707.2695536 581.4066416000001 716 537.5 716 C 493.5933584 716 458 707.2695536 458 696.5 Z" opacity="0.2"/></g><g transform="translate(-33,-284) scale(1,1)"><path fill="#adc8ff" stroke="none" d="M 451 689.5 C 451 678.7304464 486.5933584 670 530.5 670 C 574.4066416000001 670 610 678.7304464 610 689.5 C 610 700.2695536 574.4066416000001 709 530.5 709 C 486.5933584 709 451 700.2695536 451 689.5 Z"/></g><g transform="translate(-33,-284) scale(1,1)"><path fill="none" stroke="#000000" d="M 451 689.5 C 451 678.7304464 486.5933584 670 530.5 670 C 574.4066416000001 670 610 678.7304464 610 689.5 C 610 700.2695536 574.4066416000001 709 530.5 709 C 486.5933584 709 451 700.2695536 451 689.5 Z" stroke-miterlimit="10"/></g><g transform="translate(-33,-284) scale(1,1)"><g><path fill="none" stroke="none"/><text fill="#000000" stroke="none" font-family="Arial" font-size="13px" font-style="normal" font-weight="bold" text-decoration="none" x="482.457763671875" y="695">Share the tweet</text></g></g><g transform="translate(-33,-284) scale(1,1)"><path fill="none" stroke="#000000" d="M 499 669 L 350 574" stroke-miterlimit="10" stroke-dasharray="3"/></g><g transform="translate(-33,-284) scale(1,1)"><path fill="none" stroke="#000000" d="M 360.8321868550353 575.9140867110979 L 350 574 L 356.30604908707886 583.0129764734716" stroke-miterlimit="10"/></g><g transform="translate(-33,-284) scale(1,1)"><g><path fill="none" stroke="none"/><text fill="#000000" stroke="none" font-family="Arial" font-size="13px" font-style="normal" font-weight="normal" text-decoration="none" x="376.5" y="630">«extend»</text></g></g><g transform="translate(-33,-284) scale(1,1)"><path fill="#C0C0C0" stroke="none" d="M 530 390 C 530 380.6111584 567.3842192 373 613.5 373 C 659.6157808 373 697 380.6111584 697 390 C 697 399.3888416 659.6157808 407 613.5 407 C 567.3842192 407 530 399.3888416 530 390 Z" opacity="0.2"/></g><g transform="translate(-33,-284) scale(1,1)"><path fill="#d1ffa3" stroke="none" d="M 523 383 C 523 373.6111584 560.3842192 366 606.5 366 C 652.6157808 366 690 373.6111584 690 383 C 690 392.3888416 652.6157808 400 606.5 400 C 560.3842192 400 523 392.3888416 523 383 Z"/></g><g transform="translate(-33,-284) scale(1,1)"><path fill="none" stroke="#000000" d="M 523 383 C 523 373.6111584 560.3842192 366 606.5 366 C 652.6157808 366 690 373.6111584 690 383 C 690 392.3888416 652.6157808 400 606.5 400 C 560.3842192 400 523 392.3888416 523 383 Z" stroke-miterlimit="10"/></g><g transform="translate(-33,-284) scale(1,1)"><g><path fill="none" stroke="none"/><text fill="#000000" stroke="none" font-family="Arial" font-size="13px" font-style="normal" font-weight="bold" text-decoration="none" x="569.05517578125" y="388.5">Cite a Tweet</text></g></g><g transform="translate(-33,-284) scale(1,1)"><path fill="none" stroke="#000000" d="M 573 401 L 357 517" stroke-miterlimit="10" stroke-dasharray="3"/></g><g transform="translate(-33,-284) scale(1,1)"><path fill="none" stroke="#000000" d="M 363.96162495301945 508.4832061188792 L 357 517 L 367.9448949196662 515.900329505049" stroke-miterlimit="10"/></g><g transform="translate(-33,-284) scale(1,1)"><g><path fill="none" stroke="none"/><text fill="#000000" stroke="none" font-family="Arial" font-size="13px" font-style="normal" font-weight="normal" text-decoration="none" x="465.5" y="426">«extend»</text></g></g><g transform="translate(-33,-284) scale(1,1)"><path fill="#ffffd8" stroke="none" d="M 651 806 L 823 806 L 833 816 L 833 860 L 651 860 L 651 806"/></g><g transform="translate(-33,-284) scale(1,1)"><path fill="none" stroke="#000000" d="M 651 806 L 823 806 L 833 816 L 833 860 L 651 860 L 651 806 L 651 806" stroke-miterlimit="10"/></g><g transform="translate(-33,-284) scale(1,1)"><path fill="none" stroke="#000000" d="M 823 806 L 823 816 L 833 816 L 823 806" stroke-miterlimit="10"/></g><g transform="translate(-33,-284) scale(1,1)"><g><path fill="none" stroke="none"/><text fill="#000000" stroke="none" font-family="Arial" font-size="13px" font-style="normal" font-weight="normal" text-decoration="none" x="656" y="821">The actions in Blue can also</text><text fill="#000000" stroke="none" font-family="Arial" font-size="13px" font-style="normal" font-weight="normal" text-decoration="none" x="656" y="834">be performed by an</text><text fill="#000000" stroke="none" font-family="Arial" font-size="13px" font-style="normal" font-weight="normal" text-decoration="none" x="656" y="844">anonymous user</text></g></g><g transform="translate(-33,-284) scale(1,1)"><path fill="#ffffff" stroke="none" d="M 63.391636363636366 518.48 C 63.391636363636366 509.930631296 70.15588041076364 503 78.5 503 C 86.84411958923636 503 93.60836363636363 509.930631296 93.60836363636363 518.48 C 93.60836363636363 527.029368704 86.84411958923636 533.96 78.5 533.96 C 70.15588041076364 533.96 63.391636363636366 527.029368704 63.391636363636366 518.48 Z"/></g><g transform="translate(-33,-284) scale(1,1)"><path fill="none" stroke="#000000" d="M 63.391636363636366 518.48 C 63.391636363636366 509.930631296 70.15588041076364 503 78.5 503 C 86.84411958923636 503 93.60836363636363 509.930631296 93.60836363636363 518.48 C 93.60836363636363 527.029368704 86.84411958923636 533.96 78.5 533.96 C 70.15588041076364 533.96 63.391636363636366 527.029368704 63.391636363636366 518.48 Z" stroke-miterlimit="10"/></g><g transform="translate(-33,-284) scale(1,1)"><path fill="none" stroke="#000000" d="M 78.5 533.96 L 78.5 564.04" stroke-miterlimit="10"/></g><g transform="translate(-33,-284) scale(1,1)"><path fill="none" stroke="#000000" d="M 62.50290909090909 545.24 L 94.49709090909091 545.24" stroke-miterlimit="10"/></g><g transform="translate(-33,-284) scale(1,1)"><path fill="none" stroke="#000000" d="M 78.5 564.04 L 56.28181818181818 595" stroke-miterlimit="10"/></g><g transform="translate(-33,-284) scale(1,1)"><path fill="none" stroke="#000000" d="M 78.5 564.04 L 100.71818181818182 595" stroke-miterlimit="10"/></g><g transform="translate(-33,-284) scale(1,1)"><g><path fill="none" stroke="none"/><text fill="#000000" stroke="none" font-family="Arial" font-size="13px" font-style="normal" font-weight="bold" text-decoration="none" x="64.04638671875" y="614">User</text></g></g><g transform="translate(-33,-284) scale(1,1)"><path fill="none" stroke="#000000" d="M 115 558 L 178 554" stroke-miterlimit="10"/></g><g transform="translate(-33,-284) scale(1,1)"><path fill="#ffffd8" stroke="none" d="M 155 310 L 288 310 L 298 320 L 298 372 L 155 372 L 155 310"/></g><g transform="translate(-33,-284) scale(1,1)"><path fill="none" stroke="#000000" d="M 155 310 L 288 310 L 298 320 L 298 372 L 155 372 L 155 310 L 155 310" stroke-miterlimit="10"/></g><g transform="translate(-33,-284) scale(1,1)"><path fill="none" stroke="#000000" d="M 288 310 L 288 320 L 298 320 L 288 310" stroke-miterlimit="10"/></g><g transform="translate(-33,-284) scale(1,1)"><g><path fill="none" stroke="none"/><text fill="#000000" stroke="none" font-family="Arial" font-size="13px" font-style="normal" font-weight="normal" text-decoration="none" x="160" y="325">The actions in green</text><text fill="#000000" stroke="none" font-family="Arial" font-size="13px" font-style="normal" font-weight="normal" text-decoration="none" x="160" y="338">can only be performed</text><text fill="#000000" stroke="none" font-family="Arial" font-size="13px" font-style="normal" font-weight="normal" text-decoration="none" x="160" y="351">by registered users</text></g></g><g transform="translate(-33,-284) scale(1,1)"><path fill="#C0C0C0" stroke="none" d="M 554 454 C 554 444.6111584 582.4299152 437 617.5 437 C 652.5700848 437 681 444.6111584 681 454 C 681 463.3888416 652.5700848 471 617.5 471 C 582.4299152 471 554 463.3888416 554 454 Z" opacity="0.2"/></g><g transform="translate(-33,-284) scale(1,1)"><path fill="#d1ffa3" stroke="none" d="M 547 447 C 547 437.6111584 575.4299152 430 610.5 430 C 645.5700848 430 674 437.6111584 674 447 C 674 456.3888416 645.5700848 464 610.5 464 C 575.4299152 464 547 456.3888416 547 447 Z"/></g><g transform="translate(-33,-284) scale(1,1)"><path fill="none" stroke="#000000" d="M 547 447 C 547 437.6111584 575.4299152 430 610.5 430 C 645.5700848 430 674 437.6111584 674 447 C 674 456.3888416 645.5700848 464 610.5 464 C 575.4299152 464 547 456.3888416 547 447 Z" stroke-miterlimit="10"/></g><g transform="translate(-33,-284) scale(1,1)"><g><path fill="none" stroke="none"/><text fill="#000000" stroke="none" font-family="Arial" font-size="13px" font-style="normal" font-weight="bold" text-decoration="none" x="571.477783203125" y="452.5">Save a tweet</text></g></g><g transform="translate(-33,-284) scale(1,1)"><path fill="none" stroke="#000000" d="M 554 465 L 392 517" stroke-miterlimit="10" stroke-dasharray="3"/></g><g transform="translate(-33,-284) scale(1,1)"><path fill="none" stroke="#000000" d="M 400.38984968035606 509.8858997518288 L 392 517 L 402.96294812963833 517.9020910745928" stroke-miterlimit="10"/></g><g transform="translate(-33,-284) scale(1,1)"><g><path fill="none" stroke="none"/><text fill="#000000" stroke="none" font-family="Arial" font-size="13px" font-style="normal" font-weight="normal" text-decoration="none" x="455.5" y="524">«extend»</text></g></g><g transform="translate(-33,-284) scale(1,1)"><path fill="#C0C0C0" stroke="none" d="M 554 632.5 C 554 621.7304464 596.7568016 613 649.5 613 C 702.2431984 613 745 621.7304464 745 632.5 C 745 643.2695536 702.2431984 652 649.5 652 C 596.7568016 652 554 643.2695536 554 632.5 Z" opacity="0.2"/></g><g transform="translate(-33,-284) scale(1,1)"><path fill="#d1ffa3" stroke="none" d="M 547 625.5 C 547 614.7304464 589.7568016 606 642.5 606 C 695.2431984 606 738 614.7304464 738 625.5 C 738 636.2695536 695.2431984 645 642.5 645 C 589.7568016 645 547 636.2695536 547 625.5 Z"/></g><g transform="translate(-33,-284) scale(1,1)"><path fill="none" stroke="#000000" d="M 547 625.5 C 547 614.7304464 589.7568016 606 642.5 606 C 695.2431984 606 738 614.7304464 738 625.5 C 738 636.2695536 695.2431984 645 642.5 645 C 589.7568016 645 547 636.2695536 547 625.5 Z" stroke-miterlimit="10"/></g><g transform="translate(-33,-284) scale(1,1)"><g><path fill="none" stroke="none"/><text fill="#000000" stroke="none" font-family="Arial" font-size="13px" font-style="normal" font-weight="bold" text-decoration="none" x="588.319580078125" y="631">Use threader App</text></g></g><g transform="translate(-33,-284) scale(1,1)"><path fill="none" stroke="#000000" d="M 558 605 L 427 574" stroke-miterlimit="10" stroke-dasharray="3"/></g><g transform="translate(-33,-284) scale(1,1)"><path fill="none" stroke="#000000" d="M 437.85891705205876 572.243890534019 L 427 574 L 435.920170795754 580.436656971952" stroke-miterlimit="10"/></g><g transform="translate(-33,-284) scale(1,1)"><g><path fill="none" stroke="none"/><text fill="#000000" stroke="none" font-family="Arial" font-size="13px" font-style="normal" font-weight="normal" text-decoration="none" x="458.5" y="623">«extend»</text></g></g><g transform="translate(-33,-284) scale(1,1)"><path fill="#ffd8ff" stroke="none" d="M 963 294 L 1175 294 L 1185 304 L 1185 380 L 963 380 L 963 294"/></g><g transform="translate(-33,-284) scale(1,1)"><path fill="none" stroke="#000000" d="M 963 294 L 1175 294 L 1185 304 L 1185 380 L 963 380 L 963 294 L 963 294" stroke-miterlimit="10"/></g><g transform="translate(-33,-284) scale(1,1)"><path fill="none" stroke="#000000" d="M 1175 294 L 1175 304 L 1185 304 L 1175 294" stroke-miterlimit="10"/></g><g transform="translate(-33,-284) scale(1,1)"><g><path fill="none" stroke="none"/><text fill="#000000" stroke="none" font-family="Arial" font-size="13px" font-style="normal" font-weight="normal" text-decoration="none" x="968" y="309">Tweet Manegement</text></g></g><g transform="translate(-33,-284) scale(1,1)"><path fill="none" stroke="#000000" d="M 968 382 L 844 435" stroke-miterlimit="10" stroke-dasharray="3"/></g></g></svg>