<svg xmlns="http://www.w3.org/2000/svg" xmlns:xlink="http://www.w3.org/1999/xlink" version="1.1" width="835" height="468"><defs/><g><g transform="translate(-43,-206) scale(1,1)"><rect fill="#C0C0C0" stroke="none" x="212" y="223" width="432" height="448" opacity="0.2"/></g><g transform="translate(-43,-206) scale(1,1)"><rect fill="#ffffff" stroke="none" x="205" y="216" width="432" height="448"/></g><g transform="translate(-43,-206) scale(1,1)"><path fill="none" stroke="#000000" d="M 205 216 L 637 216 L 637 664 L 205 664 L 205 216 Z Z" stroke-miterlimit="10"/></g><g transform="translate(-43,-206) scale(1,1)"><g><path fill="none" stroke="none"/><text fill="#000000" stroke="none" font-family="Arial" font-size="13px" font-style="normal" font-weight="bold" text-decoration="none" x="397.87548828125" y="234">System</text></g></g><g transform="translate(-43,-206) scale(1,1)"><path fill="#C0C0C0" stroke="none" d="M 244 298.5 C 244 287.7304464 266.6096176 279 294.5 279 C 322.3903824 279 345 287.7304464 345 298.5 C 345 309.2695536 322.3903824 318 294.5 318 C 266.6096176 318 244 309.2695536 244 298.5 Z" opacity="0.2"/></g><g transform="translate(-43,-206) scale(1,1)"><path fill="#ebffd8" stroke="none" d="M 237 291.5 C 237 280.7304464 259.6096176 272 287.5 272 C 315.3903824 272 338 280.7304464 338 291.5 C 338 302.2695536 315.3903824 311 287.5 311 C 259.6096176 311 237 302.2695536 237 291.5 Z"/></g><g transform="translate(-43,-206) scale(1,1)"><path fill="none" stroke="#000000" d="M 237 291.5 C 237 280.7304464 259.6096176 272 287.5 272 C 315.3903824 272 338 280.7304464 338 291.5 C 338 302.2695536 315.3903824 311 287.5 311 C 259.6096176 311 237 302.2695536 237 291.5 Z" stroke-miterlimit="10"/></g><g transform="translate(-43,-206) scale(1,1)"><g><path fill="none" stroke="none"/><text fill="#000000" stroke="none" font-family="Arial" font-size="13px" font-style="normal" font-weight="bold" text-decoration="none" x="258.9609375" y="297">Ban User</text></g></g><g transform="translate(-43,-206) scale(1,1)"><path fill="#C0C0C0" stroke="none" d="M 468 366.5 C 468 349.1030288 504.2649312 335 549 335 C 593.7350688 335 630 349.1030288 630 366.5 C 630 383.8969712 593.7350688 398 549 398 C 504.2649312 398 468 383.8969712 468 366.5 Z" opacity="0.2"/></g><g transform="translate(-43,-206) scale(1,1)"><path fill="#d8e5ff" stroke="none" d="M 461 359.5 C 461 342.1030288 497.2649312 328 542 328 C 586.7350688 328 623 342.1030288 623 359.5 C 623 376.8969712 586.7350688 391 542 391 C 497.2649312 391 461 376.8969712 461 359.5 Z"/></g><g transform="translate(-43,-206) scale(1,1)"><path fill="none" stroke="#000000" d="M 461 359.5 C 461 342.1030288 497.2649312 328 542 328 C 586.7350688 328 623 342.1030288 623 359.5 C 623 376.8969712 586.7350688 391 542 391 C 497.2649312 391 461 376.8969712 461 359.5 Z" stroke-miterlimit="10"/></g><g transform="translate(-43,-206) scale(1,1)"><g><path fill="none" stroke="none"/><text fill="#000000" stroke="none" font-family="Arial" font-size="13px" font-style="normal" font-weight="bold" text-decoration="none" x="489.279541015625" y="365">Send notification</text></g></g><g transform="translate(-43,-206) scale(1,1)"><path fill="#C0C0C0" stroke="none" d="M 236 378.5 C 236 367.7304464 269.3547824 359 310.5 359 C 351.6452176 359 385 367.7304464 385 378.5 C 385 389.2695536 351.6452176 398 310.5 398 C 269.3547824 398 236 389.2695536 236 378.5 Z" opacity="0.2"/></g><g transform="translate(-43,-206) scale(1,1)"><path fill="#ffd8d8" stroke="none" d="M 229 371.5 C 229 360.7304464 262.3547824 352 303.5 352 C 344.6452176 352 378 360.7304464 378 371.5 C 378 382.2695536 344.6452176 391 303.5 391 C 262.3547824 391 229 382.2695536 229 371.5 Z"/></g><g transform="translate(-43,-206) scale(1,1)"><path fill="none" stroke="#000000" d="M 229 371.5 C 229 360.7304464 262.3547824 352 303.5 352 C 344.6452176 352 378 360.7304464 378 371.5 C 378 382.2695536 344.6452176 391 303.5 391 C 262.3547824 391 229 382.2695536 229 371.5 Z" stroke-miterlimit="10"/></g><g transform="translate(-43,-206) scale(1,1)"><g><path fill="none" stroke="none"/><text fill="#000000" stroke="none" font-family="Arial" font-size="13px" font-style="normal" font-weight="bold" text-decoration="none" x="255.464111328125" y="377">Unbanned User</text></g></g><g transform="translate(-43,-206) scale(1,1)"><path fill="#C0C0C0" stroke="none" d="M 252 534.5 C 252 521.5213072 279.9822 511 314.5 511 C 349.0178 511 377 521.5213072 377 534.5 C 377 547.4786928 349.0178 558 314.5 558 C 279.9822 558 252 547.4786928 252 534.5 Z" opacity="0.2"/></g><g transform="translate(-43,-206) scale(1,1)"><path fill="#ffd8d8" stroke="none" d="M 245 527.5 C 245 514.5213072 272.9822 504 307.5 504 C 342.0178 504 370 514.5213072 370 527.5 C 370 540.4786928 342.0178 551 307.5 551 C 272.9822 551 245 540.4786928 245 527.5 Z"/></g><g transform="translate(-43,-206) scale(1,1)"><path fill="none" stroke="#000000" d="M 245 527.5 C 245 514.5213072 272.9822 504 307.5 504 C 342.0178 504 370 514.5213072 370 527.5 C 370 540.4786928 342.0178 551 307.5 551 C 272.9822 551 245 540.4786928 245 527.5 Z" stroke-miterlimit="10"/></g><g transform="translate(-43,-206) scale(1,1)"><g><path fill="none" stroke="none"/><text fill="#000000" stroke="none" font-family="Arial" font-size="13px" font-style="normal" font-weight="bold" text-decoration="none" x="267.77001953125" y="533">Ban Hashtag</text></g></g><g transform="translate(-43,-206) scale(1,1)"><path fill="#C0C0C0" stroke="none" d="M 252 618.5 C 252 607.7304464 292.294368 599 342 599 C 391.705632 599 432 607.7304464 432 618.5 C 432 629.2695536 391.705632 638 342 638 C 292.294368 638 252 629.2695536 252 618.5 Z" opacity="0.2"/></g><g transform="translate(-43,-206) scale(1,1)"><path fill="#ebffd8" stroke="none" d="M 245 611.5 C 245 600.7304464 285.294368 592 335 592 C 384.705632 592 425 600.7304464 425 611.5 C 425 622.2695536 384.705632 631 335 631 C 285.294368 631 245 622.2695536 245 611.5 Z"/></g><g transform="translate(-43,-206) scale(1,1)"><path fill="none" stroke="#000000" d="M 245 611.5 C 245 600.7304464 285.294368 592 335 592 C 384.705632 592 425 600.7304464 425 611.5 C 425 622.2695536 384.705632 631 335 631 C 285.294368 631 245 622.2695536 245 611.5 Z" stroke-miterlimit="10"/></g><g transform="translate(-43,-206) scale(1,1)"><g><path fill="none" stroke="none"/><text fill="#000000" stroke="none" font-family="Arial" font-size="13px" font-style="normal" font-weight="bold" text-decoration="none" x="275.773193359375" y="617">Unbanned Hashtag</text></g></g><g transform="translate(-43,-206) scale(1,1)"><path fill="#C0C0C0" stroke="none" d="M 252 450.5 C 252 439.7304464 282.220776 431 319.5 431 C 356.779224 431 387 439.7304464 387 450.5 C 387 461.2695536 356.779224 470 319.5 470 C 282.220776 470 252 461.2695536 252 450.5 Z" opacity="0.2"/></g><g transform="translate(-43,-206) scale(1,1)"><path fill="#ffd8d8" stroke="none" d="M 245 443.5 C 245 432.7304464 275.220776 424 312.5 424 C 349.779224 424 380 432.7304464 380 443.5 C 380 454.2695536 349.779224 463 312.5 463 C 275.220776 463 245 454.2695536 245 443.5 Z"/></g><g transform="translate(-43,-206) scale(1,1)"><path fill="none" stroke="#000000" d="M 245 443.5 C 245 432.7304464 275.220776 424 312.5 424 C 349.779224 424 380 432.7304464 380 443.5 C 380 454.2695536 349.779224 463 312.5 463 C 275.220776 463 245 454.2695536 245 443.5 Z" stroke-miterlimit="10"/></g><g transform="translate(-43,-206) scale(1,1)"><g><path fill="none" stroke="none"/><text fill="#000000" stroke="none" font-family="Arial" font-size="13px" font-style="normal" font-weight="bold" text-decoration="none" x="270.957763671875" y="449">Delete Profile</text></g></g><g transform="translate(-43,-206) scale(1,1)"><path fill="#ffffff" stroke="none" d="M 73.39163636363637 392.48 C 73.39163636363637 383.930631296 80.15588041076364 377 88.5 377 C 96.84411958923636 377 103.60836363636363 383.930631296 103.60836363636363 392.48 C 103.60836363636363 401.02936870400003 96.84411958923636 407.96 88.5 407.96 C 80.15588041076364 407.96 73.39163636363637 401.02936870400003 73.39163636363637 392.48 Z"/></g><g transform="translate(-43,-206) scale(1,1)"><path fill="none" stroke="#000000" d="M 73.39163636363637 392.48 C 73.39163636363637 383.930631296 80.15588041076364 377 88.5 377 C 96.84411958923636 377 103.60836363636363 383.930631296 103.60836363636363 392.48 C 103.60836363636363 401.02936870400003 96.84411958923636 407.96 88.5 407.96 C 80.15588041076364 407.96 73.39163636363637 401.02936870400003 73.39163636363637 392.48 Z" stroke-miterlimit="10"/></g><g transform="translate(-43,-206) scale(1,1)"><path fill="none" stroke="#000000" d="M 88.5 407.96 L 88.5 438.04" stroke-miterlimit="10"/></g><g transform="translate(-43,-206) scale(1,1)"><path fill="none" stroke="#000000" d="M 72.50290909090909 419.24 L 104.49709090909091 419.24" stroke-miterlimit="10"/></g><g transform="translate(-43,-206) scale(1,1)"><path fill="none" stroke="#000000" d="M 88.5 438.04 L 66.28181818181818 469" stroke-miterlimit="10"/></g><g transform="translate(-43,-206) scale(1,1)"><path fill="none" stroke="#000000" d="M 88.5 438.04 L 110.71818181818182 469" stroke-miterlimit="10"/></g><g transform="translate(-43,-206) scale(1,1)"><g><path fill="none" stroke="none"/><text fill="#000000" stroke="none" font-family="Arial" font-size="13px" font-style="normal" font-weight="bold" text-decoration="none" x="68.279541015625" y="488">Admin</text></g></g><g transform="translate(-43,-206) scale(1,1)"><path fill="none" stroke="#000000" d="M 125 408 L 258 312" stroke-miterlimit="10"/></g><g transform="translate(-43,-206) scale(1,1)"><path fill="none" stroke="#000000" d="M 125 424 L 232 392" stroke-miterlimit="10"/></g><g transform="translate(-43,-206) scale(1,1)"><path fill="none" stroke="#000000" d="M 125 436 L 244 441" stroke-miterlimit="10"/></g><g transform="translate(-43,-206) scale(1,1)"><path fill="none" stroke="#000000" d="M 125 451 L 250 503" stroke-miterlimit="10"/></g><g transform="translate(-43,-206) scale(1,1)"><path fill="none" stroke="#000000" d="M 125 461 L 307 591" stroke-miterlimit="10"/></g><g transform="translate(-43,-206) scale(1,1)"><path fill="none" stroke="#000000" d="M 339 293 L 413 296 L 476 327" stroke-miterlimit="10" stroke-dasharray="3"/></g><g transform="translate(-43,-206) scale(1,1)"><path fill="none" stroke="#000000" d="M 465.02292962183355 326.29012260721936 L 476 327 L 468.7399982162828 318.7360799797903" stroke-miterlimit="10"/></g><g transform="translate(-43,-206) scale(1,1)"><g><path fill="none" stroke="none"/><text fill="#000000" stroke="none" font-family="Arial" font-size="13px" font-style="normal" font-weight="normal" text-decoration="none" x="364.5" y="282">«include»</text></g></g><g transform="translate(-43,-206) scale(1,1)"><path fill="none" stroke="#000000" d="M 379 367 L 460 363" stroke-miterlimit="10" stroke-dasharray="3"/></g><g transform="translate(-43,-206) scale(1,1)"><path fill="none" stroke="#000000" d="M 450.05731855345164 367.7056440210095 L 460 363 L 449.6420697288622 359.29685532307377" stroke-miterlimit="10"/></g><g transform="translate(-43,-206) scale(1,1)"><g><path fill="none" stroke="none"/><text fill="#000000" stroke="none" font-family="Arial" font-size="13px" font-style="normal" font-weight="normal" text-decoration="none" x="380.5" y="354">«include»</text></g></g><g transform="translate(-43,-206) scale(1,1)"><path fill="none" stroke="#000000" d="M 381 437 L 429 432 L 491 392" stroke-miterlimit="10" stroke-dasharray="3"/></g><g transform="translate(-43,-206) scale(1,1)"><path fill="none" stroke="#000000" d="M 484.7424310646751 401.04670277060416 L 491 392 L 480.17824569561617 393.9722154485628" stroke-miterlimit="10"/></g><g transform="translate(-43,-206) scale(1,1)"><g><path fill="none" stroke="none"/><text fill="#000000" stroke="none" font-family="Arial" font-size="13px" font-style="normal" font-weight="normal" text-decoration="none" x="384.5" y="411">«include»</text></g></g><g transform="translate(-43,-206) scale(1,1)"><path fill="#ffd8ff" stroke="none" d="M 741 296 L 857 296 L 867 306 L 867 366 L 741 366 L 741 296"/></g><g transform="translate(-43,-206) scale(1,1)"><path fill="none" stroke="#000000" d="M 741 296 L 857 296 L 867 306 L 867 366 L 741 366 L 741 296 L 741 296" stroke-miterlimit="10"/></g><g transform="translate(-43,-206) scale(1,1)"><path fill="none" stroke="#000000" d="M 857 296 L 857 306 L 867 306 L 857 296" stroke-miterlimit="10"/></g><g transform="translate(-43,-206) scale(1,1)"><g><path fill="none" stroke="none"/><text fill="#000000" stroke="none" font-family="Arial" font-size="13px" font-style="normal" font-weight="normal" text-decoration="none" x="746" y="311">Admin (Specific</text><text fill="#000000" stroke="none" font-family="Arial" font-size="13px" font-style="normal" font-weight="normal" text-decoration="none" x="746" y="324">functions) panel</text></g></g><g transform="translate(-43,-206) scale(1,1)"><path fill="none" stroke="#000000" d="M 624 350 L 740 338" stroke-miterlimit="10" stroke-dasharray="3"/></g></g></svg>