<svg xmlns="http://www.w3.org/2000/svg" xmlns:xlink="http://www.w3.org/1999/xlink" version="1.1" width="1499" height="1619"><defs/><g><g transform="translate(-750,-254) scale(1,1)"><rect fill="#ffffff" stroke="none" x="760" y="264" width="1479" height="1599"/></g><g transform="translate(-750,-254) scale(1,1)"><path fill="none" stroke="#000000" d="M 760 264 L 2239 264 L 2239 1863 L 760 1863 L 760 264 Z Z" stroke-miterlimit="10"/></g><g transform="translate(-750,-254) scale(1,1)"><rect fill="#C0C0C0" stroke="none" x="879" y="343" width="272" height="48" opacity="0.2"/></g><g transform="translate(-750,-254) scale(1,1)"><rect fill="#ffd8d8" stroke="none" x="872" y="336" width="272" height="48"/></g><g transform="translate(-750,-254) scale(1,1)"><path fill="none" stroke="#000000" d="M 872 336 L 1144 336 L 1144 384 L 872 384 L 872 336 Z Z" stroke-miterlimit="10"/></g><g transform="translate(-750,-254) scale(1,1)"><g><path fill="none" stroke="none"/><text fill="#000000" stroke="none" font-family="Arial" font-size="13px" font-style="normal" font-weight="bold" text-decoration="none" x="959.488037109375" y="355.5">@Template login</text></g></g><g transform="translate(-750,-254) scale(1,1)"><rect fill="#C0C0C0" stroke="none" x="879" y="463" width="272" height="47" opacity="0.2"/></g><g transform="translate(-750,-254) scale(1,1)"><rect fill="#ffd8d8" stroke="none" x="872" y="456" width="272" height="47"/></g><g transform="translate(-750,-254) scale(1,1)"><path fill="none" stroke="#000000" d="M 872 456 L 1144 456 L 1144 503 L 872 503 L 872 456 Z Z" stroke-miterlimit="10"/></g><g transform="translate(-750,-254) scale(1,1)"><g><path fill="none" stroke="none"/><text fill="#000000" stroke="none" font-family="Arial" font-size="13px" font-style="normal" font-weight="bold" text-decoration="none" x="954.067138671875" y="475.5">@Template signup</text></g></g><g transform="translate(-750,-254) scale(1,1)"><rect fill="#C0C0C0" stroke="none" x="879" y="559" width="264" height="48" opacity="0.2"/></g><g transform="translate(-750,-254) scale(1,1)"><rect fill="#ffd8d8" stroke="none" x="872" y="552" width="264" height="48"/></g><g transform="translate(-750,-254) scale(1,1)"><path fill="none" stroke="#000000" d="M 872 552 L 1136 552 L 1136 600 L 872 600 L 872 552 Z Z" stroke-miterlimit="10"/></g><g transform="translate(-750,-254) scale(1,1)"><g><path fill="none" stroke="none"/><text fill="#000000" stroke="none" font-family="Arial" font-size="13px" font-style="normal" font-weight="bold" text-decoration="none" x="922.61669921875" y="571.5">@Template forgot-password</text></g></g><g transform="translate(-750,-254) scale(1,1)"><rect fill="#C0C0C0" stroke="none" x="879" y="663" width="264" height="48" opacity="0.2"/></g><g transform="translate(-750,-254) scale(1,1)"><rect fill="#ffd8d8" stroke="none" x="872" y="656" width="264" height="48"/></g><g transform="translate(-750,-254) scale(1,1)"><path fill="none" stroke="#000000" d="M 872 656 L 1136 656 L 1136 704 L 872 704 L 872 656 Z Z" stroke-miterlimit="10"/></g><g transform="translate(-750,-254) scale(1,1)"><g><path fill="none" stroke="none"/><text fill="#000000" stroke="none" font-family="Arial" font-size="13px" font-style="normal" font-weight="bold" text-decoration="none" x="924.78759765625" y="675.5">@Template reset-password</text></g></g><g transform="translate(-750,-254) scale(1,1)"><rect fill="#C0C0C0" stroke="none" x="879" y="847" width="264" height="48" opacity="0.2"/></g><g transform="translate(-750,-254) scale(1,1)"><rect fill="#ffd8d8" stroke="none" x="872" y="840" width="264" height="48"/></g><g transform="translate(-750,-254) scale(1,1)"><path fill="none" stroke="#000000" d="M 872 840 L 1136 840 L 1136 888 L 872 888 L 872 840 Z Z" stroke-miterlimit="10"/></g><g transform="translate(-750,-254) scale(1,1)"><g><path fill="none" stroke="none"/><text fill="#000000" stroke="none" font-family="Arial" font-size="13px" font-style="normal" font-weight="bold" text-decoration="none" x="952.961669921875" y="859.5">@Template home</text></g></g><g transform="translate(-750,-254) scale(1,1)"><rect fill="#C0C0C0" stroke="none" x="879" y="983" width="264" height="47" opacity="0.2"/></g><g transform="translate(-750,-254) scale(1,1)"><rect fill="#ffd8d8" stroke="none" x="872" y="976" width="264" height="47"/></g><g transform="translate(-750,-254) scale(1,1)"><path fill="none" stroke="#000000" d="M 872 976 L 1136 976 L 1136 1023 L 872 1023 L 872 976 Z Z" stroke-miterlimit="10"/></g><g transform="translate(-750,-254) scale(1,1)"><g><path fill="none" stroke="none"/><text fill="#000000" stroke="none" font-family="Arial" font-size="13px" font-style="normal" font-weight="bold" text-decoration="none" x="945.738037109375" y="995.5">@Template explorer</text></g></g><g transform="translate(-750,-254) scale(1,1)"><rect fill="#C0C0C0" stroke="none" x="879" y="1095" width="264" height="47" opacity="0.2"/></g><g transform="translate(-750,-254) scale(1,1)"><rect fill="#ffd8d8" stroke="none" x="872" y="1088" width="264" height="47"/></g><g transform="translate(-750,-254) scale(1,1)"><path fill="none" stroke="#000000" d="M 872 1088 L 1136 1088 L 1136 1135 L 872 1135 L 872 1088 Z Z" stroke-miterlimit="10"/></g><g transform="translate(-750,-254) scale(1,1)"><g><path fill="none" stroke="none"/><text fill="#000000" stroke="none" font-family="Arial" font-size="13px" font-style="normal" font-weight="bold" text-decoration="none" x="949.711669921875" y="1107.5">@Template search</text></g></g><g transform="translate(-750,-254) scale(1,1)"><rect fill="#C0C0C0" stroke="none" x="879" y="1735" width="264" height="47" opacity="0.2"/></g><g transform="translate(-750,-254) scale(1,1)"><rect fill="#ffd8d8" stroke="none" x="872" y="1728" width="264" height="47"/></g><g transform="translate(-750,-254) scale(1,1)"><path fill="none" stroke="#000000" d="M 872 1728 L 1136 1728 L 1136 1775 L 872 1775 L 872 1728 Z Z" stroke-miterlimit="10"/></g><g transform="translate(-750,-254) scale(1,1)"><g><path fill="none" stroke="none"/><text fill="#000000" stroke="none" font-family="Arial" font-size="13px" font-style="normal" font-weight="bold" text-decoration="none" x="937.43212890625" y="1747.5">@Template bookmarks</text></g></g><g transform="translate(-750,-254) scale(1,1)"><rect fill="#C0C0C0" stroke="none" x="879" y="1623" width="264" height="47" opacity="0.2"/></g><g transform="translate(-750,-254) scale(1,1)"><rect fill="#ffd8d8" stroke="none" x="872" y="1616" width="264" height="47"/></g><g transform="translate(-750,-254) scale(1,1)"><path fill="none" stroke="#000000" d="M 872 1616 L 1136 1616 L 1136 1663 L 872 1663 L 872 1616 Z Z" stroke-miterlimit="10"/></g><g transform="translate(-750,-254) scale(1,1)"><g><path fill="none" stroke="none"/><text fill="#000000" stroke="none" font-family="Arial" font-size="13px" font-style="normal" font-weight="bold" text-decoration="none" x="934.896240234375" y="1635.5">@Template notifications</text></g></g><g transform="translate(-750,-254) scale(1,1)"><rect fill="#C0C0C0" stroke="none" x="879" y="1327" width="264" height="48" opacity="0.2"/></g><g transform="translate(-750,-254) scale(1,1)"><rect fill="#ffd8d8" stroke="none" x="872" y="1320" width="264" height="48"/></g><g transform="translate(-750,-254) scale(1,1)"><path fill="none" stroke="#000000" d="M 872 1320 L 1136 1320 L 1136 1368 L 872 1368 L 872 1320 Z Z" stroke-miterlimit="10"/></g><g transform="translate(-750,-254) scale(1,1)"><g><path fill="none" stroke="none"/><text fill="#000000" stroke="none" font-family="Arial" font-size="13px" font-style="normal" font-weight="bold" text-decoration="none" x="951.517578125" y="1339.5">@Template profile</text></g></g><g transform="translate(-750,-254) scale(1,1)"><rect fill="#C0C0C0" stroke="none" x="1319" y="343" width="248" height="47" opacity="0.2"/></g><g transform="translate(-750,-254) scale(1,1)"><rect fill="#d8e5ff" stroke="none" x="1312" y="336" width="248" height="47"/></g><g transform="translate(-750,-254) scale(1,1)"><path fill="none" stroke="#000000" d="M 1312 336 L 1560 336 L 1560 383 L 1312 383 L 1312 336 Z Z" stroke-miterlimit="10"/></g><g transform="translate(-750,-254) scale(1,1)"><g><path fill="none" stroke="none"/><text fill="#000000" stroke="none" font-family="Arial" font-size="13px" font-style="normal" font-weight="bold" text-decoration="none" x="1380.258056640625" y="355.5">@Component login</text></g></g><g transform="translate(-750,-254) scale(1,1)"><rect fill="#C0C0C0" stroke="none" x="1319" y="463" width="248" height="48" opacity="0.2"/></g><g transform="translate(-750,-254) scale(1,1)"><rect fill="#d8e5ff" stroke="none" x="1312" y="456" width="248" height="48"/></g><g transform="translate(-750,-254) scale(1,1)"><path fill="none" stroke="#000000" d="M 1312 456 L 1560 456 L 1560 504 L 1312 504 L 1312 456 Z Z" stroke-miterlimit="10"/></g><g transform="translate(-750,-254) scale(1,1)"><g><path fill="none" stroke="none"/><text fill="#000000" stroke="none" font-family="Arial" font-size="13px" font-style="normal" font-weight="bold" text-decoration="none" x="1374.837158203125" y="475.5">@Component signup</text></g></g><g transform="translate(-750,-254) scale(1,1)"><rect fill="#C0C0C0" stroke="none" x="1319" y="663" width="248" height="48" opacity="0.2"/></g><g transform="translate(-750,-254) scale(1,1)"><rect fill="#d8e5ff" stroke="none" x="1312" y="656" width="248" height="48"/></g><g transform="translate(-750,-254) scale(1,1)"><path fill="none" stroke="#000000" d="M 1312 656 L 1560 656 L 1560 704 L 1312 704 L 1312 656 Z Z" stroke-miterlimit="10"/></g><g transform="translate(-750,-254) scale(1,1)"><g><path fill="none" stroke="none"/><text fill="#000000" stroke="none" font-family="Arial" font-size="13px" font-style="normal" font-weight="bold" text-decoration="none" x="1347.38671875" y="675.5">@Component forgot-password</text></g></g><g transform="translate(-750,-254) scale(1,1)"><rect fill="#C0C0C0" stroke="none" x="1319" y="559" width="248" height="47" opacity="0.2"/></g><g transform="translate(-750,-254) scale(1,1)"><rect fill="#d8e5ff" stroke="none" x="1312" y="552" width="248" height="47"/></g><g transform="translate(-750,-254) scale(1,1)"><path fill="none" stroke="#000000" d="M 1312 552 L 1560 552 L 1560 599 L 1312 599 L 1312 552 Z Z" stroke-miterlimit="10"/></g><g transform="translate(-750,-254) scale(1,1)"><g><path fill="none" stroke="none"/><text fill="#000000" stroke="none" font-family="Arial" font-size="13px" font-style="normal" font-weight="bold" text-decoration="none" x="1349.5576171875" y="571.5">@Component reset-password</text></g></g><g transform="translate(-750,-254) scale(1,1)"><rect fill="#C0C0C0" stroke="none" x="1319" y="855" width="248" height="55" opacity="0.2"/></g><g transform="translate(-750,-254) scale(1,1)"><rect fill="#d8e5ff" stroke="none" x="1312" y="848" width="248" height="55"/></g><g transform="translate(-750,-254) scale(1,1)"><path fill="none" stroke="#000000" d="M 1312 848 L 1560 848 L 1560 903 L 1312 903 L 1312 848 Z Z" stroke-miterlimit="10"/></g><g transform="translate(-750,-254) scale(1,1)"><g><path fill="none" stroke="none"/><text fill="#000000" stroke="none" font-family="Arial" font-size="13px" font-style="normal" font-weight="bold" text-decoration="none" x="1368.3466796875" y="867.5">@Component tweet-list</text></g></g><g transform="translate(-750,-254) scale(1,1)"><rect fill="#C0C0C0" stroke="none" x="1319" y="1047" width="248" height="55" opacity="0.2"/></g><g transform="translate(-750,-254) scale(1,1)"><rect fill="#d8e5ff" stroke="none" x="1312" y="1040" width="248" height="55"/></g><g transform="translate(-750,-254) scale(1,1)"><path fill="none" stroke="#000000" d="M 1312 1040 L 1560 1040 L 1560 1095 L 1312 1095 L 1312 1040 Z Z" stroke-miterlimit="10"/></g><g transform="translate(-750,-254) scale(1,1)"><g><path fill="none" stroke="none"/><text fill="#000000" stroke="none" font-family="Arial" font-size="13px" font-style="normal" font-weight="bold" text-decoration="none" x="1370.8603515625" y="1059.5">@Component hashtag</text></g></g><g transform="translate(-750,-254) scale(1,1)"><rect fill="#C0C0C0" stroke="none" x="1319" y="959" width="248" height="55" opacity="0.2"/></g><g transform="translate(-750,-254) scale(1,1)"><rect fill="#d8e5ff" stroke="none" x="1312" y="952" width="248" height="55"/></g><g transform="translate(-750,-254) scale(1,1)"><path fill="none" stroke="#000000" d="M 1312 952 L 1560 952 L 1560 1007 L 1312 1007 L 1312 952 Z Z" stroke-miterlimit="10"/></g><g transform="translate(-750,-254) scale(1,1)"><g><path fill="none" stroke="none"/><text fill="#000000" stroke="none" font-family="Arial" font-size="13px" font-style="normal" font-weight="bold" text-decoration="none" x="1369.78759765625" y="971.5">@Component Explorer</text></g></g><g transform="translate(-750,-254) scale(1,1)"><rect fill="#C0C0C0" stroke="none" x="1319" y="1151" width="248" height="55" opacity="0.2"/></g><g transform="translate(-750,-254) scale(1,1)"><rect fill="#d8e5ff" stroke="none" x="1312" y="1144" width="248" height="55"/></g><g transform="translate(-750,-254) scale(1,1)"><path fill="none" stroke="#000000" d="M 1312 1144 L 1560 1144 L 1560 1199 L 1312 1199 L 1312 1144 Z Z" stroke-miterlimit="10"/></g><g transform="translate(-750,-254) scale(1,1)"><g><path fill="none" stroke="none"/><text fill="#000000" stroke="none" font-family="Arial" font-size="13px" font-style="normal" font-weight="bold" text-decoration="none" x="1373.396240234375" y="1163.5">@Component Search</text></g></g><g transform="translate(-750,-254) scale(1,1)"><rect fill="#C0C0C0" stroke="none" x="1311" y="1263" width="256" height="48" opacity="0.2"/></g><g transform="translate(-750,-254) scale(1,1)"><rect fill="#d8e5ff" stroke="none" x="1304" y="1256" width="256" height="48"/></g><g transform="translate(-750,-254) scale(1,1)"><path fill="none" stroke="#000000" d="M 1304 1256 L 1560 1256 L 1560 1304 L 1304 1304 L 1304 1256 Z Z" stroke-miterlimit="10"/></g><g transform="translate(-750,-254) scale(1,1)"><g><path fill="none" stroke="none"/><text fill="#000000" stroke="none" font-family="Arial" font-size="13px" font-style="normal" font-weight="bold" text-decoration="none" x="1372.28759765625" y="1275.5">@Component profile</text></g></g><g transform="translate(-750,-254) scale(1,1)"><rect fill="#C0C0C0" stroke="none" x="1311" y="1415" width="255" height="47" opacity="0.2"/></g><g transform="translate(-750,-254) scale(1,1)"><rect fill="#d8e5ff" stroke="none" x="1304" y="1408" width="255" height="47"/></g><g transform="translate(-750,-254) scale(1,1)"><path fill="none" stroke="#000000" d="M 1304 1408 L 1559 1408 L 1559 1455 L 1304 1455 L 1304 1408 Z Z" stroke-miterlimit="10"/></g><g transform="translate(-750,-254) scale(1,1)"><g><path fill="none" stroke="none"/><text fill="#000000" stroke="none" font-family="Arial" font-size="13px" font-style="normal" font-weight="bold" text-decoration="none" x="1359.14306640625" y="1427.5">@Component edit-profile</text></g></g><g transform="translate(-750,-254) scale(1,1)"><rect fill="#C0C0C0" stroke="none" x="1311" y="1479" width="256" height="48" opacity="0.2"/></g><g transform="translate(-750,-254) scale(1,1)"><rect fill="#d8e5ff" stroke="none" x="1304" y="1472" width="256" height="48"/></g><g transform="translate(-750,-254) scale(1,1)"><path fill="none" stroke="#000000" d="M 1304 1472 L 1560 1472 L 1560 1520 L 1304 1520 L 1304 1472 Z Z" stroke-miterlimit="10"/></g><g transform="translate(-750,-254) scale(1,1)"><g><path fill="none" stroke="none"/><text fill="#000000" stroke="none" font-family="Arial" font-size="13px" font-style="normal" font-weight="bold" text-decoration="none" x="1358.192626953125" y="1491.5">@Component Dashboard</text></g></g><g transform="translate(-750,-254) scale(1,1)"><rect fill="#C0C0C0" stroke="none" x="1311" y="1335" width="255" height="47" opacity="0.2"/></g><g transform="translate(-750,-254) scale(1,1)"><rect fill="#d8e5ff" stroke="none" x="1304" y="1328" width="255" height="47"/></g><g transform="translate(-750,-254) scale(1,1)"><path fill="none" stroke="#000000" d="M 1304 1328 L 1559 1328 L 1559 1375 L 1304 1375 L 1304 1328 Z Z" stroke-miterlimit="10"/></g><g transform="translate(-750,-254) scale(1,1)"><g><path fill="none" stroke="none"/><text fill="#000000" stroke="none" font-family="Arial" font-size="13px" font-style="normal" font-weight="bold" text-decoration="none" x="1376.8466796875" y="1347.5">@Component user</text></g></g><g transform="translate(-750,-254) scale(1,1)"><rect fill="#C0C0C0" stroke="none" x="1311" y="1623" width="256" height="47" opacity="0.2"/></g><g transform="translate(-750,-254) scale(1,1)"><rect fill="#d8e5ff" stroke="none" x="1304" y="1616" width="256" height="47"/></g><g transform="translate(-750,-254) scale(1,1)"><path fill="none" stroke="#000000" d="M 1304 1616 L 1560 1616 L 1560 1663 L 1304 1663 L 1304 1616 Z Z" stroke-miterlimit="10"/></g><g transform="translate(-750,-254) scale(1,1)"><g><path fill="none" stroke="none"/><text fill="#000000" stroke="none" font-family="Arial" font-size="13px" font-style="normal" font-weight="bold" text-decoration="none" x="1355.666259765625" y="1635.5">@Component notifications</text></g></g><g transform="translate(-750,-254) scale(1,1)"><rect fill="#C0C0C0" stroke="none" x="1311" y="1735" width="256" height="48" opacity="0.2"/></g><g transform="translate(-750,-254) scale(1,1)"><rect fill="#d8e5ff" stroke="none" x="1304" y="1728" width="256" height="48"/></g><g transform="translate(-750,-254) scale(1,1)"><path fill="none" stroke="#000000" d="M 1304 1728 L 1560 1728 L 1560 1776 L 1304 1776 L 1304 1728 Z Z" stroke-miterlimit="10"/></g><g transform="translate(-750,-254) scale(1,1)"><g><path fill="none" stroke="none"/><text fill="#000000" stroke="none" font-family="Arial" font-size="13px" font-style="normal" font-weight="bold" text-decoration="none" x="1354.9521484375" y="1747.5">@Components bookmarks</text></g></g><g transform="translate(-750,-254) scale(1,1)"><path fill="none" stroke="#000000" d="M 1312 360 L 1144 360" stroke-miterlimit="10"/></g><g transform="translate(-750,-254) scale(1,1)"><path fill="none" stroke="#000000" d="M 1154.162674857624 355.790482243984 L 1144 360 L 1154.162674857624 364.209517756016" stroke-miterlimit="10"/></g><g transform="translate(-750,-254) scale(1,1)"><path fill="none" stroke="#000000" d="M 1312 480 L 1144 480" stroke-miterlimit="10"/></g><g transform="translate(-750,-254) scale(1,1)"><path fill="none" stroke="#000000" d="M 1154.162674857624 475.790482243984 L 1144 480 L 1154.162674857624 484.209517756016" stroke-miterlimit="10"/></g><g transform="translate(-750,-254) scale(1,1)"><path fill="none" stroke="#000000" d="M 1311 575 L 1137 576" stroke-miterlimit="10"/></g><g transform="translate(-750,-254) scale(1,1)"><path fill="none" stroke="#000000" d="M 1147.138314796682 571.7321465485117 L 1137 576 L 1147.1866992591954 580.1510430258799" stroke-miterlimit="10"/></g><g transform="translate(-750,-254) scale(1,1)"><path fill="none" stroke="#000000" d="M 1311 680 L 1137 680" stroke-miterlimit="10"/></g><g transform="translate(-750,-254) scale(1,1)"><path fill="none" stroke="#000000" d="M 1147.162674857624 675.790482243984 L 1137 680 L 1147.162674857624 684.209517756016" stroke-miterlimit="10"/></g><g transform="translate(-750,-254) scale(1,1)"><path fill="none" stroke="#000000" d="M 1312 864 L 1136 864" stroke-miterlimit="10"/></g><g transform="translate(-750,-254) scale(1,1)"><path fill="none" stroke="#000000" d="M 1146.162674857624 859.790482243984 L 1136 864 L 1146.162674857624 868.209517756016" stroke-miterlimit="10"/></g><g transform="translate(-750,-254) scale(1,1)"><path fill="none" stroke="#000000" d="M 1312 1000 L 1136 1000" stroke-miterlimit="10"/></g><g transform="translate(-750,-254) scale(1,1)"><path fill="none" stroke="#000000" d="M 1146.162674857624 995.790482243984 L 1136 1000 L 1146.162674857624 1004.209517756016" stroke-miterlimit="10"/></g><g transform="translate(-750,-254) scale(1,1)"><path fill="none" stroke="#000000" d="M 1312 1072 L 1232 1072 L 1232 1016 L 1136 1016" stroke-miterlimit="10"/></g><g transform="translate(-750,-254) scale(1,1)"><path fill="none" stroke="#000000" d="M 1146.162674857624 1011.790482243984 L 1136 1016 L 1146.162674857624 1020.209517756016" stroke-miterlimit="10"/></g><g transform="translate(-750,-254) scale(1,1)"><path fill="none" stroke="#000000" d="M 1312 872 L 1216 872 L 1216 984 L 1136 984" stroke-miterlimit="10"/></g><g transform="translate(-750,-254) scale(1,1)"><path fill="none" stroke="#000000" d="M 1146.162674857624 979.790482243984 L 1136 984 L 1146.162674857624 988.209517756016" stroke-miterlimit="10"/></g><g transform="translate(-750,-254) scale(1,1)"><path fill="none" stroke="#000000" d="M 1312 1176 L 1004 1176 L 1004 1135" stroke-miterlimit="10"/></g><g transform="translate(-750,-254) scale(1,1)"><path fill="none" stroke="#000000" d="M 1008.209517756016 1145.162674857624 L 1004 1135 L 999.790482243984 1145.162674857624" stroke-miterlimit="10"/></g><g transform="translate(-750,-254) scale(1,1)"><path fill="none" stroke="#000000" d="M 1312 880 L 1232 880 L 1232 1111 L 1136 1111" stroke-miterlimit="10"/></g><g transform="translate(-750,-254) scale(1,1)"><path fill="none" stroke="#000000" d="M 1146.162674857624 1106.7904822439841 L 1136 1111 L 1146.162674857624 1115.2095177560159" stroke-miterlimit="10"/></g><g transform="translate(-750,-254) scale(1,1)"><path fill="none" stroke="#000000" d="M 1312 888 L 1248 888 L 1248 1256 L 1008 1256 L 1008 1320" stroke-miterlimit="10"/></g><g transform="translate(-750,-254) scale(1,1)"><path fill="none" stroke="#000000" d="M 1003.790482243984 1309.837325142376 L 1008 1320 L 1012.209517756016 1309.837325142376" stroke-miterlimit="10"/></g><g transform="translate(-750,-254) scale(1,1)"><path fill="none" stroke="#000000" d="M 1304 1280 L 1248 1280 L 1248 1324 L 1136 1324" stroke-miterlimit="10"/></g><g transform="translate(-750,-254) scale(1,1)"><path fill="none" stroke="#000000" d="M 1146.162674857624 1319.7904822439841 L 1136 1324 L 1146.162674857624 1328.2095177560159" stroke-miterlimit="10"/></g><g transform="translate(-750,-254) scale(1,1)"><path fill="none" stroke="#000000" d="M 1304 1351 L 1264 1351 L 1264 1128 L 1136 1128" stroke-miterlimit="10"/></g><g transform="translate(-750,-254) scale(1,1)"><path fill="none" stroke="#000000" d="M 1146.162674857624 1123.7904822439841 L 1136 1128 L 1146.162674857624 1132.2095177560159" stroke-miterlimit="10"/></g><g transform="translate(-750,-254) scale(1,1)"><path fill="none" stroke="#000000" d="M 1304 1352 L 1136 1352" stroke-miterlimit="10"/></g><g transform="translate(-750,-254) scale(1,1)"><path fill="none" stroke="#000000" d="M 1146.162674857624 1347.7904822439841 L 1136 1352 L 1146.162674857624 1356.2095177560159" stroke-miterlimit="10"/></g><g transform="translate(-750,-254) scale(1,1)"><path fill="none" stroke="#000000" d="M 1304 1431 L 1024 1431 L 1024 1368" stroke-miterlimit="10"/></g><g transform="translate(-750,-254) scale(1,1)"><path fill="none" stroke="#000000" d="M 1028.2095177560159 1378.162674857624 L 1024 1368 L 1019.790482243984 1378.162674857624" stroke-miterlimit="10"/></g><g transform="translate(-750,-254) scale(1,1)"><path fill="none" stroke="#000000" d="M 1304 1496 L 984 1496 L 984 1368" stroke-miterlimit="10"/></g><g transform="translate(-750,-254) scale(1,1)"><path fill="none" stroke="#000000" d="M 988.209517756016 1378.162674857624 L 984 1368 L 979.790482243984 1378.162674857624" stroke-miterlimit="10"/></g><g transform="translate(-750,-254) scale(1,1)"><path fill="none" stroke="#000000" d="M 1303 1639 L 1137 1639" stroke-miterlimit="10"/></g><g transform="translate(-750,-254) scale(1,1)"><path fill="none" stroke="#000000" d="M 1147.162674857624 1634.7904822439841 L 1137 1639 L 1147.162674857624 1643.2095177560159" stroke-miterlimit="10"/></g><g transform="translate(-750,-254) scale(1,1)"><path fill="none" stroke="#000000" d="M 1304 1752 L 1136 1752" stroke-miterlimit="10"/></g><g transform="translate(-750,-254) scale(1,1)"><path fill="none" stroke="#000000" d="M 1146.162674857624 1747.7904822439841 L 1136 1752 L 1146.162674857624 1756.2095177560159" stroke-miterlimit="10"/></g><g transform="translate(-750,-254) scale(1,1)"><rect fill="#C0C0C0" stroke="none" x="1671" y="343" width="280" height="56" opacity="0.2"/></g><g transform="translate(-750,-254) scale(1,1)"><rect fill="#ffebd8" stroke="none" x="1664" y="336" width="280" height="56"/></g><g transform="translate(-750,-254) scale(1,1)"><path fill="none" stroke="#000000" d="M 1664 336 L 1944 336 L 1944 392 L 1664 392 L 1664 336 Z Z" stroke-miterlimit="10"/></g><g transform="translate(-750,-254) scale(1,1)"><g><path fill="none" stroke="none"/><text fill="#000000" stroke="none" font-family="Arial" font-size="13px" font-style="normal" font-weight="bold" text-decoration="none" x="1760.1884765625" y="355.5">@Service login</text></g></g><g transform="translate(-750,-254) scale(1,1)"><rect fill="#C0C0C0" stroke="none" x="1671" y="463" width="280" height="55" opacity="0.2"/></g><g transform="translate(-750,-254) scale(1,1)"><rect fill="#ffebd8" stroke="none" x="1664" y="456" width="280" height="55"/></g><g transform="translate(-750,-254) scale(1,1)"><path fill="none" stroke="#000000" d="M 1664 456 L 1944 456 L 1944 511 L 1664 511 L 1664 456 Z Z" stroke-miterlimit="10"/></g><g transform="translate(-750,-254) scale(1,1)"><g><path fill="none" stroke="none"/><text fill="#000000" stroke="none" font-family="Arial" font-size="13px" font-style="normal" font-weight="bold" text-decoration="none" x="1754.767578125" y="475.5">@Service signup</text></g></g><g transform="translate(-750,-254) scale(1,1)"><rect fill="#C0C0C0" stroke="none" x="1671" y="599" width="280" height="56" opacity="0.2"/></g><g transform="translate(-750,-254) scale(1,1)"><rect fill="#ffebd8" stroke="none" x="1664" y="592" width="280" height="56"/></g><g transform="translate(-750,-254) scale(1,1)"><path fill="none" stroke="#000000" d="M 1664 592 L 1944 592 L 1944 648 L 1664 648 L 1664 592 Z Z" stroke-miterlimit="10"/></g><g transform="translate(-750,-254) scale(1,1)"><g><path fill="none" stroke="none"/><text fill="#000000" stroke="none" font-family="Arial" font-size="13px" font-style="normal" font-weight="bold" text-decoration="none" x="1729.488037109375" y="611.5">@Service reset-password</text></g></g><g transform="translate(-750,-254) scale(1,1)"><rect fill="#C0C0C0" stroke="none" x="1751" y="855" width="280" height="56" opacity="0.2"/></g><g transform="translate(-750,-254) scale(1,1)"><rect fill="#ffebd8" stroke="none" x="1744" y="848" width="280" height="56"/></g><g transform="translate(-750,-254) scale(1,1)"><path fill="none" stroke="#000000" d="M 1744 848 L 2024 848 L 2024 904 L 1744 904 L 1744 848 Z Z" stroke-miterlimit="10"/></g><g transform="translate(-750,-254) scale(1,1)"><g><path fill="none" stroke="none"/><text fill="#000000" stroke="none" font-family="Arial" font-size="13px" font-style="normal" font-weight="bold" text-decoration="none" x="1838.3857421875" y="867.5">@Service tweet</text></g></g><g transform="translate(-750,-254) scale(1,1)"><rect fill="#C0C0C0" stroke="none" x="1751" y="1343" width="280" height="55" opacity="0.2"/></g><g transform="translate(-750,-254) scale(1,1)"><rect fill="#ffebd8" stroke="none" x="1744" y="1336" width="280" height="55"/></g><g transform="translate(-750,-254) scale(1,1)"><path fill="none" stroke="#000000" d="M 1744 1336 L 2024 1336 L 2024 1391 L 1744 1391 L 1744 1336 Z Z" stroke-miterlimit="10"/></g><g transform="translate(-750,-254) scale(1,1)"><g><path fill="none" stroke="none"/><text fill="#000000" stroke="none" font-family="Arial" font-size="13px" font-style="normal" font-weight="bold" text-decoration="none" x="1840.197998046875" y="1355.5">@Service User</text></g></g><g transform="translate(-750,-254) scale(1,1)"><rect fill="#C0C0C0" stroke="none" x="1751" y="1039" width="279" height="55" opacity="0.2"/></g><g transform="translate(-750,-254) scale(1,1)"><rect fill="#ffebd8" stroke="none" x="1744" y="1032" width="279" height="55"/></g><g transform="translate(-750,-254) scale(1,1)"><path fill="none" stroke="#000000" d="M 1744 1032 L 2023 1032 L 2023 1087 L 1744 1087 L 1744 1032 Z Z" stroke-miterlimit="10"/></g><g transform="translate(-750,-254) scale(1,1)"><g><path fill="none" stroke="none"/><text fill="#000000" stroke="none" font-family="Arial" font-size="13px" font-style="normal" font-weight="bold" text-decoration="none" x="1830.290771484375" y="1051.5">@Service hashtag</text></g></g><g transform="translate(-750,-254) scale(1,1)"><rect fill="#C0C0C0" stroke="none" x="1751" y="1615" width="263" height="55" opacity="0.2"/></g><g transform="translate(-750,-254) scale(1,1)"><rect fill="#ffebd8" stroke="none" x="1744" y="1608" width="263" height="55"/></g><g transform="translate(-750,-254) scale(1,1)"><path fill="none" stroke="#000000" d="M 1744 1608 L 2007 1608 L 2007 1663 L 1744 1663 L 1744 1608 Z Z" stroke-miterlimit="10"/></g><g transform="translate(-750,-254) scale(1,1)"><g><path fill="none" stroke="none"/><text fill="#000000" stroke="none" font-family="Arial" font-size="13px" font-style="normal" font-weight="bold" text-decoration="none" x="1810.017578125" y="1627.5">@Service Notifications</text></g></g><g transform="translate(-750,-254) scale(1,1)"><rect fill="#C0C0C0" stroke="none" x="1751" y="1151" width="279" height="55" opacity="0.2"/></g><g transform="translate(-750,-254) scale(1,1)"><rect fill="#ffebd8" stroke="none" x="1744" y="1144" width="279" height="55"/></g><g transform="translate(-750,-254) scale(1,1)"><path fill="none" stroke="#000000" d="M 1744 1144 L 2023 1144 L 2023 1199 L 1744 1199 L 1744 1144 Z Z" stroke-miterlimit="10"/></g><g transform="translate(-750,-254) scale(1,1)"><g><path fill="none" stroke="none"/><text fill="#000000" stroke="none" font-family="Arial" font-size="13px" font-style="normal" font-weight="bold" text-decoration="none" x="1832.82666015625" y="1163.5">@Service Search</text></g></g><g transform="translate(-750,-254) scale(1,1)"><path fill="none" stroke="#000000" d="M 1561 361 L 1663 362" stroke-miterlimit="10"/></g><g transform="translate(-750,-254) scale(1,1)"><path fill="none" stroke="#000000" d="M 1652.7965457107578 366.1096861884268 L 1663 362 L 1652.8790813081646 357.6910552529352" stroke-miterlimit="10"/></g><g transform="translate(-750,-254) scale(1,1)"><path fill="none" stroke="#000000" d="M 1561 481 L 1663 482" stroke-miterlimit="10"/></g><g transform="translate(-750,-254) scale(1,1)"><path fill="none" stroke="#000000" d="M 1652.7965457107578 486.1096861884268 L 1663 482 L 1652.8790813081646 477.6910552529352" stroke-miterlimit="10"/></g><g transform="translate(-750,-254) scale(1,1)"><path fill="none" stroke="#000000" d="M 1560 584 L 1608 584 L 1608 616 L 1664 616" stroke-miterlimit="10"/></g><g transform="translate(-750,-254) scale(1,1)"><path fill="none" stroke="#000000" d="M 1653.837325142376 620.209517756016 L 1664 616 L 1653.837325142376 611.790482243984" stroke-miterlimit="10"/></g><g transform="translate(-750,-254) scale(1,1)"><path fill="none" stroke="#000000" d="M 1560 660 L 1608 660 L 1608 624 L 1664 624" stroke-miterlimit="10"/></g><g transform="translate(-750,-254) scale(1,1)"><path fill="none" stroke="#000000" d="M 1653.837325142376 628.209517756016 L 1664 624 L 1653.837325142376 619.790482243984" stroke-miterlimit="10"/></g><g transform="translate(-750,-254) scale(1,1)"><path fill="none" stroke="#000000" d="M 1560 880 L 1744 880" stroke-miterlimit="10"/></g><g transform="translate(-750,-254) scale(1,1)"><path fill="none" stroke="#000000" d="M 1733.837325142376 884.209517756016 L 1744 880 L 1733.837325142376 875.790482243984" stroke-miterlimit="10"/></g><g transform="translate(-750,-254) scale(1,1)"><path fill="none" stroke="#000000" d="M 1560 984 L 1896 984 L 1896 1032" stroke-miterlimit="10"/></g><g transform="translate(-750,-254) scale(1,1)"><path fill="none" stroke="#000000" d="M 1891.7904822439841 1021.8373251423759 L 1896 1032 L 1900.2095177560159 1021.8373251423759" stroke-miterlimit="10"/></g><g transform="translate(-750,-254) scale(1,1)"><path fill="none" stroke="#000000" d="M 1560 1064 L 1744 1064" stroke-miterlimit="10"/></g><g transform="translate(-750,-254) scale(1,1)"><path fill="none" stroke="#000000" d="M 1733.837325142376 1068.2095177560159 L 1744 1064 L 1733.837325142376 1059.7904822439841" stroke-miterlimit="10"/></g><g transform="translate(-750,-254) scale(1,1)"><path fill="none" stroke="#000000" d="M 1560 1064 L 1592 1064 L 1592 896 L 1744 896" stroke-miterlimit="10"/></g><g transform="translate(-750,-254) scale(1,1)"><path fill="none" stroke="#000000" d="M 1733.837325142376 900.209517756016 L 1744 896 L 1733.837325142376 891.790482243984" stroke-miterlimit="10"/></g><g transform="translate(-750,-254) scale(1,1)"><path fill="none" stroke="#000000" d="M 1561 1171 L 1743 1171" stroke-miterlimit="10"/></g><g transform="translate(-750,-254) scale(1,1)"><path fill="none" stroke="#000000" d="M 1732.837325142376 1175.2095177560159 L 1743 1171 L 1732.837325142376 1166.7904822439841" stroke-miterlimit="10"/></g><g transform="translate(-750,-254) scale(1,1)"><path fill="none" stroke="#000000" d="M 1560 1280 L 1896 1280 L 1896 1336" stroke-miterlimit="10"/></g><g transform="translate(-750,-254) scale(1,1)"><path fill="none" stroke="#000000" d="M 1891.7904822439841 1325.837325142376 L 1896 1336 L 1900.2095177560159 1325.837325142376" stroke-miterlimit="10"/></g><g transform="translate(-750,-254) scale(1,1)"><path fill="none" stroke="#000000" d="M 1560 1280 L 2120 1280 L 2120 360 L 1944 360" stroke-miterlimit="10"/></g><g transform="translate(-750,-254) scale(1,1)"><path fill="none" stroke="#000000" d="M 1954.162674857624 355.790482243984 L 1944 360 L 1954.162674857624 364.209517756016" stroke-miterlimit="10"/></g><g transform="translate(-750,-254) scale(1,1)"><path fill="none" stroke="#000000" d="M 1559 1359 L 1744 1359" stroke-miterlimit="10"/></g><g transform="translate(-750,-254) scale(1,1)"><path fill="none" stroke="#000000" d="M 1733.837325142376 1363.2095177560159 L 1744 1359 L 1733.837325142376 1354.7904822439841" stroke-miterlimit="10"/></g><g transform="translate(-750,-254) scale(1,1)"><path fill="none" stroke="#000000" d="M 1559 1440 L 1872 1440 L 1872 1391" stroke-miterlimit="10"/></g><g transform="translate(-750,-254) scale(1,1)"><path fill="none" stroke="#000000" d="M 1876.2095177560159 1401.162674857624 L 1872 1391 L 1867.7904822439841 1401.162674857624" stroke-miterlimit="10"/></g><g transform="translate(-750,-254) scale(1,1)"><path fill="none" stroke="#000000" d="M 1561 1638 L 1743 1636" stroke-miterlimit="10"/></g><g transform="translate(-750,-254) scale(1,1)"><path fill="none" stroke="#000000" d="M 1732.8841943448801 1640.3209346150857 L 1743 1636 L 1732.7916830567087 1631.9024073914902" stroke-miterlimit="10"/></g><g transform="translate(-750,-254) scale(1,1)"><path fill="none" stroke="#000000" d="M 1560 1752 L 2080 1752 L 2080 880 L 2024 880" stroke-miterlimit="10"/></g><g transform="translate(-750,-254) scale(1,1)"><path fill="none" stroke="#000000" d="M 2034.162674857624 875.790482243984 L 2024 880 L 2034.162674857624 884.209517756016" stroke-miterlimit="10"/></g><g transform="translate(-750,-254) scale(1,1)"><path fill="none" stroke="#000000" d="M 1560 1496 L 1920 1496 L 1920 1391" stroke-miterlimit="10"/></g><g transform="translate(-750,-254) scale(1,1)"><path fill="none" stroke="#000000" d="M 1924.2095177560159 1401.162674857624 L 1920 1391 L 1915.7904822439841 1401.162674857624" stroke-miterlimit="10"/></g></g></svg>