<svg xmlns="http://www.w3.org/2000/svg" xmlns:xlink="http://www.w3.org/1999/xlink" version="1.1" width="1923" height="1099"><defs/><g><g transform="translate(-358,-198) scale(1,1)"><rect fill="#ffffff" stroke="none" x="368" y="208" width="1903" height="1079"/></g><g transform="translate(-358,-198) scale(1,1)"><path fill="none" stroke="#000000" d="M 368 208 L 2271 208 L 2271 1287 L 368 1287 L 368 208 Z Z" stroke-miterlimit="10"/></g><g transform="translate(-358,-198) scale(1,1)"><rect fill="#C0C0C0" stroke="none" x="703" y="311" width="135" height="47" opacity="0.2"/></g><g transform="translate(-358,-198) scale(1,1)"><rect fill="#ffd8ff" stroke="none" x="696" y="304" width="135" height="47"/></g><g transform="translate(-358,-198) scale(1,1)"><path fill="none" stroke="#000000" d="M 696 304 L 831 304 L 831 351 L 696 351 L 696 304 Z Z" stroke-miterlimit="10"/></g><g transform="translate(-358,-198) scale(1,1)"><g><path fill="none" stroke="none"/><text fill="#000000" stroke="none" font-family="Arial" font-size="13px" font-style="normal" font-weight="bold" text-decoration="none" x="725.21728515625" y="323.5">INDEX VIEW</text></g></g><g transform="translate(-358,-198) scale(1,1)"><rect fill="#C0C0C0" stroke="none" x="1295" y="495" width="200" height="56" opacity="0.2"/></g><g transform="translate(-358,-198) scale(1,1)"><rect fill="#d8ffd8" stroke="none" x="1288" y="488" width="200" height="56"/></g><g transform="translate(-358,-198) scale(1,1)"><path fill="none" stroke="#000000" d="M 1288 488 L 1488 488 L 1488 544 L 1288 544 L 1288 488 Z Z" stroke-miterlimit="10"/></g><g transform="translate(-358,-198) scale(1,1)"><g><path fill="none" stroke="none"/><text fill="#000000" stroke="none" font-family="Arial" font-size="13px" font-style="normal" font-weight="bold" text-decoration="none" x="1301.66552734375" y="507.5">RepositoryUserDetailsService</text></g></g><g transform="translate(-358,-198) scale(1,1)"><rect fill="#C0C0C0" stroke="none" x="895" y="303" width="200" height="56" opacity="0.2"/></g><g transform="translate(-358,-198) scale(1,1)"><rect fill="#d8d8ff" stroke="none" x="888" y="296" width="200" height="56"/></g><g transform="translate(-358,-198) scale(1,1)"><path fill="none" stroke="#000000" d="M 888 296 L 1088 296 L 1088 352 L 888 352 L 888 296 Z Z" stroke-miterlimit="10"/></g><g transform="translate(-358,-198) scale(1,1)"><g><path fill="none" stroke="none"/><text fill="#000000" stroke="none" font-family="Arial" font-size="13px" font-style="normal" font-weight="bold" text-decoration="none" x="938.504150390625" y="315.5">SignUpController</text></g></g><g transform="translate(-358,-198) scale(1,1)"><rect fill="#C0C0C0" stroke="none" x="1463" y="303" width="200" height="56" opacity="0.2"/></g><g transform="translate(-358,-198) scale(1,1)"><rect fill="#d8ffd8" stroke="none" x="1456" y="296" width="200" height="56"/></g><g transform="translate(-358,-198) scale(1,1)"><path fill="none" stroke="#000000" d="M 1456 296 L 1656 296 L 1656 352 L 1456 352 L 1456 296 Z Z" stroke-miterlimit="10"/></g><g transform="translate(-358,-198) scale(1,1)"><g><path fill="none" stroke="none"/><text fill="#000000" stroke="none" font-family="Arial" font-size="13px" font-style="normal" font-weight="bold" text-decoration="none" x="1520.602294921875" y="315.5">UserService</text></g></g><g transform="translate(-358,-198) scale(1,1)"><rect fill="#C0C0C0" stroke="none" x="895" y="407" width="200" height="56" opacity="0.2"/></g><g transform="translate(-358,-198) scale(1,1)"><rect fill="#d8d8ff" stroke="none" x="888" y="400" width="200" height="56"/></g><g transform="translate(-358,-198) scale(1,1)"><path fill="none" stroke="#000000" d="M 888 400 L 1088 400 L 1088 456 L 888 456 L 888 400 Z Z" stroke-miterlimit="10"/></g><g transform="translate(-358,-198) scale(1,1)"><g><path fill="none" stroke="none"/><text fill="#000000" stroke="none" font-family="Arial" font-size="13px" font-style="normal" font-weight="bold" text-decoration="none" x="914.3037109375" y="419.5">ResetPasswordController</text></g></g><g transform="translate(-358,-198) scale(1,1)"><rect fill="#C0C0C0" stroke="none" x="1903" y="511" width="192" height="112" opacity="0.2"/></g><g transform="translate(-358,-198) scale(1,1)"><rect fill="#ffe2d8" stroke="none" x="1896" y="504" width="192" height="112"/></g><g transform="translate(-358,-198) scale(1,1)"><path fill="none" stroke="#000000" d="M 1896 504 L 2088 504 L 2088 616 L 1896 616 L 1896 504 Z Z" stroke-miterlimit="10"/></g><g transform="translate(-358,-198) scale(1,1)"><g><path fill="none" stroke="none"/><text fill="#000000" stroke="none" font-family="Arial" font-size="13px" font-style="normal" font-weight="bold" text-decoration="none" x="1947.207763671875" y="523.5">UserRepository</text></g></g><g transform="translate(-358,-198) scale(1,1)"><rect fill="#C0C0C0" stroke="none" x="703" y="591" width="118.54150390625" height="55" opacity="0.2"/></g><g transform="translate(-358,-198) scale(1,1)"><rect fill="#ffd8ff" stroke="none" x="696" y="584" width="118.54150390625" height="55"/></g><g transform="translate(-358,-198) scale(1,1)"><path fill="none" stroke="#000000" d="M 696 584 L 814.54150390625 584 L 814.54150390625 639 L 696 639 L 696 584 Z Z" stroke-miterlimit="10"/></g><g transform="translate(-358,-198) scale(1,1)"><g><path fill="none" stroke="none"/><text fill="#000000" stroke="none" font-family="Arial" font-size="13px" font-style="normal" font-weight="bold" text-decoration="none" x="701.21728515625" y="603.5">MAIN PAGE VIEW</text></g></g><g transform="translate(-358,-198) scale(1,1)"><rect fill="#C0C0C0" stroke="none" x="895" y="503" width="200" height="56" opacity="0.2"/></g><g transform="translate(-358,-198) scale(1,1)"><rect fill="#d8d8ff" stroke="none" x="888" y="496" width="200" height="56"/></g><g transform="translate(-358,-198) scale(1,1)"><path fill="none" stroke="#000000" d="M 888 496 L 1088 496 L 1088 552 L 888 552 L 888 496 Z Z" stroke-miterlimit="10"/></g><g transform="translate(-358,-198) scale(1,1)"><g><path fill="none" stroke="none"/><text fill="#000000" stroke="none" font-family="Arial" font-size="13px" font-style="normal" font-weight="bold" text-decoration="none" x="929.109619140625" y="515.5">NavigationController</text></g></g><g transform="translate(-358,-198) scale(1,1)"><rect fill="#C0C0C0" stroke="none" x="911" y="599" width="151" height="47" opacity="0.2"/></g><g transform="translate(-358,-198) scale(1,1)"><rect fill="#d8fff8" stroke="none" x="904" y="592" width="151" height="47"/></g><g transform="translate(-358,-198) scale(1,1)"><path fill="none" stroke="#000000" d="M 904 592 L 1055 592 L 1055 639 L 904 639 L 904 592 Z Z" stroke-miterlimit="10"/></g><g transform="translate(-358,-198) scale(1,1)"><g><path fill="none" stroke="none"/><text fill="#000000" stroke="none" font-family="Arial" font-size="13px" font-style="normal" font-weight="bold" text-decoration="none" x="921.330078125" y="611.5">InformationManager</text></g></g><g transform="translate(-358,-198) scale(1,1)"><rect fill="#d8ffd8" stroke="none" x="1464" y="696" width="200" height="56"/></g><g transform="translate(-358,-198) scale(1,1)"><path fill="none" stroke="#000000" d="M 1464 696 L 1664 696 L 1664 752 L 1464 752 L 1464 696 Z Z" stroke-miterlimit="10"/></g><g transform="translate(-358,-198) scale(1,1)"><g><path fill="none" stroke="none"/><text fill="#000000" stroke="none" font-family="Arial" font-size="13px" font-style="normal" font-weight="bold" text-decoration="none" x="1524.984130859375" y="715.5">TweetService</text></g></g><g transform="translate(-358,-198) scale(1,1)"><rect fill="#C0C0C0" stroke="none" x="1903" y="695" width="192" height="112" opacity="0.2"/></g><g transform="translate(-358,-198) scale(1,1)"><rect fill="#ffe2d8" stroke="none" x="1896" y="688" width="192" height="112"/></g><g transform="translate(-358,-198) scale(1,1)"><path fill="none" stroke="#000000" d="M 1896 688 L 2088 688 L 2088 800 L 1896 800 L 1896 688 Z Z" stroke-miterlimit="10"/></g><g transform="translate(-358,-198) scale(1,1)"><g><path fill="none" stroke="none"/><text fill="#000000" stroke="none" font-family="Arial" font-size="13px" font-style="normal" font-weight="bold" text-decoration="none" x="1943.589599609375" y="707.5">TweetRepository</text></g></g><g transform="translate(-358,-198) scale(1,1)"><rect fill="#C0C0C0" stroke="none" x="1471" y="799" width="200" height="56" opacity="0.2"/></g><g transform="translate(-358,-198) scale(1,1)"><rect fill="#d8ffd8" stroke="none" x="1464" y="792" width="200" height="56"/></g><g transform="translate(-358,-198) scale(1,1)"><path fill="none" stroke="#000000" d="M 1464 792 L 1664 792 L 1664 848 L 1464 848 L 1464 792 Z Z" stroke-miterlimit="10"/></g><g transform="translate(-358,-198) scale(1,1)"><g><path fill="none" stroke="none"/><text fill="#000000" stroke="none" font-family="Arial" font-size="13px" font-style="normal" font-weight="bold" text-decoration="none" x="1518.115966796875" y="811.5">HashtagService</text></g></g><g transform="translate(-358,-198) scale(1,1)"><rect fill="#C0C0C0" stroke="none" x="1903" y="879" width="192" height="112" opacity="0.2"/></g><g transform="translate(-358,-198) scale(1,1)"><rect fill="#ffe2d8" stroke="none" x="1896" y="872" width="192" height="112"/></g><g transform="translate(-358,-198) scale(1,1)"><path fill="none" stroke="#000000" d="M 1896 872 L 2088 872 L 2088 984 L 1896 984 L 1896 872 Z Z" stroke-miterlimit="10"/></g><g transform="translate(-358,-198) scale(1,1)"><g><path fill="none" stroke="none"/><text fill="#000000" stroke="none" font-family="Arial" font-size="13px" font-style="normal" font-weight="bold" text-decoration="none" x="1936.721435546875" y="891.5">HashtagRepository</text></g></g><g transform="translate(-358,-198) scale(1,1)"><rect fill="#C0C0C0" stroke="none" x="1471" y="1015" width="200" height="56" opacity="0.2"/></g><g transform="translate(-358,-198) scale(1,1)"><rect fill="#d8ffd8" stroke="none" x="1464" y="1008" width="200" height="56"/></g><g transform="translate(-358,-198) scale(1,1)"><path fill="none" stroke="#000000" d="M 1464 1008 L 1664 1008 L 1664 1064 L 1464 1064 L 1464 1008 Z Z" stroke-miterlimit="10"/></g><g transform="translate(-358,-198) scale(1,1)"><g><path fill="none" stroke="none"/><text fill="#000000" stroke="none" font-family="Arial" font-size="13px" font-style="normal" font-weight="bold" text-decoration="none" x="1510.171875" y="1027.5">NotificationService</text></g></g><g transform="translate(-358,-198) scale(1,1)"><rect fill="#C0C0C0" stroke="none" x="1903" y="1079" width="192" height="112" opacity="0.2"/></g><g transform="translate(-358,-198) scale(1,1)"><rect fill="#ffe2d8" stroke="none" x="1896" y="1072" width="192" height="112"/></g><g transform="translate(-358,-198) scale(1,1)"><path fill="none" stroke="#000000" d="M 1896 1072 L 2088 1072 L 2088 1184 L 1896 1184 L 1896 1072 Z Z" stroke-miterlimit="10"/></g><g transform="translate(-358,-198) scale(1,1)"><g><path fill="none" stroke="none"/><text fill="#000000" stroke="none" font-family="Arial" font-size="13px" font-style="normal" font-weight="bold" text-decoration="none" x="1925.52734375" y="1091.5">NotificationsRepository</text></g></g><g transform="translate(-358,-198) scale(1,1)"><rect fill="#C0C0C0" stroke="none" x="1471" y="1135" width="200" height="56" opacity="0.2"/></g><g transform="translate(-358,-198) scale(1,1)"><rect fill="#d8ffd8" stroke="none" x="1464" y="1128" width="200" height="56"/></g><g transform="translate(-358,-198) scale(1,1)"><path fill="none" stroke="#000000" d="M 1464 1128 L 1664 1128 L 1664 1184 L 1464 1184 L 1464 1128 Z Z" stroke-miterlimit="10"/></g><g transform="translate(-358,-198) scale(1,1)"><g><path fill="none" stroke="none"/><text fill="#000000" stroke="none" font-family="Arial" font-size="13px" font-style="normal" font-weight="bold" text-decoration="none" x="1522.095947265625" y="1147.5">Profile Service</text></g></g><g transform="translate(-358,-198) scale(1,1)"><path fill="none" stroke="#000000" d="M 1088 312 L 1456 312" stroke-miterlimit="10"/></g><g transform="translate(-358,-198) scale(1,1)"><path fill="none" stroke="#000000" d="M 1445.837325142376 316.209517756016 L 1456 312 L 1445.837325142376 307.790482243984" stroke-miterlimit="10"/></g><g transform="translate(-358,-198) scale(1,1)"><rect fill="#C0C0C0" stroke="none" x="1103" y="807" width="200" height="56" opacity="0.2"/></g><g transform="translate(-358,-198) scale(1,1)"><rect fill="#d8d8ff" stroke="none" x="1096" y="800" width="200" height="56"/></g><g transform="translate(-358,-198) scale(1,1)"><path fill="none" stroke="#000000" d="M 1096 800 L 1296 800 L 1296 856 L 1096 856 L 1096 800 Z Z" stroke-miterlimit="10"/></g><g transform="translate(-358,-198) scale(1,1)"><g><path fill="none" stroke="none"/><text fill="#000000" stroke="none" font-family="Arial" font-size="13px" font-style="normal" font-weight="bold" text-decoration="none" x="1141.806884765625" y="819.5">Hashtag Controller</text></g></g><g transform="translate(-358,-198) scale(1,1)"><rect fill="#C0C0C0" stroke="none" x="1103" y="1015" width="200" height="56" opacity="0.2"/></g><g transform="translate(-358,-198) scale(1,1)"><rect fill="#d8d8ff" stroke="none" x="1096" y="1008" width="200" height="56"/></g><g transform="translate(-358,-198) scale(1,1)"><path fill="none" stroke="#000000" d="M 1096 1008 L 1296 1008 L 1296 1064 L 1096 1064 L 1096 1008 Z Z" stroke-miterlimit="10"/></g><g transform="translate(-358,-198) scale(1,1)"><g><path fill="none" stroke="none"/><text fill="#000000" stroke="none" font-family="Arial" font-size="13px" font-style="normal" font-weight="bold" text-decoration="none" x="1133.86279296875" y="1027.5">Notification Controller</text></g></g><g transform="translate(-358,-198) scale(1,1)"><rect fill="#C0C0C0" stroke="none" x="1103" y="1135" width="200" height="56" opacity="0.2"/></g><g transform="translate(-358,-198) scale(1,1)"><rect fill="#d8d8ff" stroke="none" x="1096" y="1128" width="200" height="56"/></g><g transform="translate(-358,-198) scale(1,1)"><path fill="none" stroke="#000000" d="M 1096 1128 L 1296 1128 L 1296 1184 L 1096 1184 L 1096 1128 Z Z" stroke-miterlimit="10"/></g><g transform="translate(-358,-198) scale(1,1)"><g><path fill="none" stroke="none"/><text fill="#000000" stroke="none" font-family="Arial" font-size="13px" font-style="normal" font-weight="bold" text-decoration="none" x="1147.5927734375" y="1147.5">Profile Controller</text></g></g><g transform="translate(-358,-198) scale(1,1)"><rect fill="#C0C0C0" stroke="none" x="1103" y="911" width="200" height="56" opacity="0.2"/></g><g transform="translate(-358,-198) scale(1,1)"><rect fill="#d8d8ff" stroke="none" x="1096" y="904" width="200" height="56"/></g><g transform="translate(-358,-198) scale(1,1)"><path fill="none" stroke="#000000" d="M 1096 904 L 1296 904 L 1296 960 L 1096 960 L 1096 904 Z Z" stroke-miterlimit="10"/></g><g transform="translate(-358,-198) scale(1,1)"><g><path fill="none" stroke="none"/><text fill="#000000" stroke="none" font-family="Arial" font-size="13px" font-style="normal" font-weight="bold" text-decoration="none" x="1145.421875" y="923.5">Search Controller</text></g></g><g transform="translate(-358,-198) scale(1,1)"><rect fill="#C0C0C0" stroke="none" x="1103" y="703" width="200" height="56" opacity="0.2"/></g><g transform="translate(-358,-198) scale(1,1)"><rect fill="#d8d8ff" stroke="none" x="1096" y="696" width="200" height="56"/></g><g transform="translate(-358,-198) scale(1,1)"><path fill="none" stroke="#000000" d="M 1096 696 L 1296 696 L 1296 752 L 1096 752 L 1096 696 Z Z" stroke-miterlimit="10"/></g><g transform="translate(-358,-198) scale(1,1)"><g><path fill="none" stroke="none"/><text fill="#000000" stroke="none" font-family="Arial" font-size="13px" font-style="normal" font-weight="bold" text-decoration="none" x="1148.675048828125" y="715.5">Tweet Controller</text></g></g><g transform="translate(-358,-198) scale(1,1)"><path fill="none" stroke="#000000" d="M 1088 428 L 1556 428 L 1556 352" stroke-miterlimit="10"/></g><g transform="translate(-358,-198) scale(1,1)"><path fill="none" stroke="#000000" d="M 1560.2095177560159 362.16267485762415 L 1556 352 L 1551.7904822439841 362.16267485762415" stroke-miterlimit="10"/></g><g transform="translate(-358,-198) scale(1,1)"><path fill="none" stroke="#000000" d="M 1088 516 L 1288 516" stroke-miterlimit="10"/></g><g transform="translate(-358,-198) scale(1,1)"><path fill="none" stroke="#000000" d="M 1277.837325142376 520.209517756016 L 1288 516 L 1277.837325142376 511.790482243984" stroke-miterlimit="10"/></g><g transform="translate(-358,-198) scale(1,1)"><path fill="none" stroke="#000000" d="M 985 552 L 985 592" stroke-miterlimit="10"/></g><g transform="translate(-358,-198) scale(1,1)"><path fill="none" stroke="#000000" d="M 980.790482243984 581.8373251423759 L 985 592 L 989.209517756016 581.8373251423759" stroke-miterlimit="10"/></g><g transform="translate(-358,-198) scale(1,1)"><path fill="none" stroke="#000000" d="M 888 520 L 752 520 L 752 351" stroke-miterlimit="10"/></g><g transform="translate(-358,-198) scale(1,1)"><path fill="none" stroke="#000000" d="M 756.209517756016 361.16267485762415 L 752 351 L 747.790482243984 361.16267485762415" stroke-miterlimit="10"/></g><g transform="translate(-358,-198) scale(1,1)"><path fill="none" stroke="#000000" d="M 888 428 L 752 428 L 752 351" stroke-miterlimit="10"/></g><g transform="translate(-358,-198) scale(1,1)"><path fill="none" stroke="#000000" d="M 756.209517756016 361.16267485762415 L 752 351 L 747.790482243984 361.16267485762415" stroke-miterlimit="10"/></g><g transform="translate(-358,-198) scale(1,1)"><path fill="none" stroke="#000000" d="M 888 326 L 831 326" stroke-miterlimit="10"/></g><g transform="translate(-358,-198) scale(1,1)"><path fill="none" stroke="#000000" d="M 841.1626748576241 321.790482243984 L 831 326 L 841.1626748576241 330.209517756016" stroke-miterlimit="10"/></g><g transform="translate(-358,-198) scale(1,1)"><path fill="none" stroke="#000000" d="M 888 520 L 752 520 L 752 584" stroke-miterlimit="10"/></g><g transform="translate(-358,-198) scale(1,1)"><path fill="none" stroke="#000000" d="M 747.790482243984 573.8373251423759 L 752 584 L 756.209517756016 573.8373251423759" stroke-miterlimit="10"/></g><g transform="translate(-358,-198) scale(1,1)"><path fill="none" stroke="#000000" d="M 1296 720 L 1464 720" stroke-miterlimit="10"/></g><g transform="translate(-358,-198) scale(1,1)"><path fill="none" stroke="#000000" d="M 1453.837325142376 724.209517756016 L 1464 720 L 1453.837325142376 715.790482243984" stroke-miterlimit="10"/></g><g transform="translate(-358,-198) scale(1,1)"><path fill="none" stroke="#000000" d="M 1296 914 L 1376 914 L 1376 824 L 1464 824" stroke-miterlimit="10"/></g><g transform="translate(-358,-198) scale(1,1)"><path fill="none" stroke="#000000" d="M 1453.837325142376 828.209517756016 L 1464 824 L 1453.837325142376 819.790482243984" stroke-miterlimit="10"/></g><g transform="translate(-358,-198) scale(1,1)"><rect fill="#C0C0C0" stroke="none" x="1471" y="911" width="200" height="56" opacity="0.2"/></g><g transform="translate(-358,-198) scale(1,1)"><rect fill="#d8ffd8" stroke="none" x="1464" y="904" width="200" height="56"/></g><g transform="translate(-358,-198) scale(1,1)"><path fill="none" stroke="#000000" d="M 1464 904 L 1664 904 L 1664 960 L 1464 960 L 1464 904 Z Z" stroke-miterlimit="10"/></g><g transform="translate(-358,-198) scale(1,1)"><g><path fill="none" stroke="none"/><text fill="#000000" stroke="none" font-family="Arial" font-size="13px" font-style="normal" font-weight="bold" text-decoration="none" x="1528.602294921875" y="923.5">UserService</text></g></g><g transform="translate(-358,-198) scale(1,1)"><path fill="none" stroke="#000000" d="M 1296 930 L 1464 930" stroke-miterlimit="10"/></g><g transform="translate(-358,-198) scale(1,1)"><path fill="none" stroke="#000000" d="M 1453.837325142376 934.209517756016 L 1464 930 L 1453.837325142376 925.790482243984" stroke-miterlimit="10"/></g><g transform="translate(-358,-198) scale(1,1)"><path fill="none" stroke="#000000" d="M 1296 824 L 1464 824" stroke-miterlimit="10"/></g><g transform="translate(-358,-198) scale(1,1)"><path fill="none" stroke="#000000" d="M 1453.837325142376 828.209517756016 L 1464 824 L 1453.837325142376 819.790482243984" stroke-miterlimit="10"/></g><g transform="translate(-358,-198) scale(1,1)"><path fill="none" stroke="#000000" d="M 1296 1036 L 1464 1036" stroke-miterlimit="10"/></g><g transform="translate(-358,-198) scale(1,1)"><path fill="none" stroke="#000000" d="M 1453.837325142376 1040.2095177560159 L 1464 1036 L 1453.837325142376 1031.7904822439841" stroke-miterlimit="10"/></g><g transform="translate(-358,-198) scale(1,1)"><path fill="none" stroke="#000000" d="M 1296 1156 L 1464 1156" stroke-miterlimit="10"/></g><g transform="translate(-358,-198) scale(1,1)"><path fill="none" stroke="#000000" d="M 1453.837325142376 1160.2095177560159 L 1464 1156 L 1453.837325142376 1151.7904822439841" stroke-miterlimit="10"/></g><g transform="translate(-358,-198) scale(1,1)"><path fill="none" stroke="#000000" d="M 1296 720 L 1376 720 L 1376 808 L 1464 808" stroke-miterlimit="10"/></g><g transform="translate(-358,-198) scale(1,1)"><path fill="none" stroke="#000000" d="M 1453.837325142376 812.209517756016 L 1464 808 L 1453.837325142376 803.790482243984" stroke-miterlimit="10"/></g><g transform="translate(-358,-198) scale(1,1)"><path fill="none" stroke="#000000" d="M 1296 720 L 1352 720 L 1352 1156 L 1464 1156" stroke-miterlimit="10"/></g><g transform="translate(-358,-198) scale(1,1)"><path fill="none" stroke="#000000" d="M 1453.837325142376 1160.2095177560159 L 1464 1156 L 1453.837325142376 1151.7904822439841" stroke-miterlimit="10"/></g><g transform="translate(-358,-198) scale(1,1)"><path fill="none" stroke="#000000" d="M 1176 1128 L 1176 1096 L 1560 1096 L 1560 1064" stroke-miterlimit="10"/></g><g transform="translate(-358,-198) scale(1,1)"><path fill="none" stroke="#000000" d="M 1564.2095177560159 1074.162674857624 L 1560 1064 L 1555.7904822439841 1074.162674857624" stroke-miterlimit="10"/></g><g transform="translate(-358,-198) scale(1,1)"><path fill="none" stroke="#000000" d="M 1656 312 L 1992 312 L 1992 504" stroke-miterlimit="10"/></g><g transform="translate(-358,-198) scale(1,1)"><path fill="none" stroke="#000000" d="M 1987.7904822439841 493.83732514237585 L 1992 504 L 1996.2095177560159 493.83732514237585" stroke-miterlimit="10"/></g><g transform="translate(-358,-198) scale(1,1)"><path fill="none" stroke="#000000" d="M 1488 528 L 1896 528" stroke-miterlimit="10"/></g><g transform="translate(-358,-198) scale(1,1)"><path fill="none" stroke="#000000" d="M 1885.837325142376 532.209517756016 L 1896 528 L 1885.837325142376 523.790482243984" stroke-miterlimit="10"/></g><g transform="translate(-358,-198) scale(1,1)"><path fill="none" stroke="#000000" d="M 1664 824 L 1848 824 L 1848 928 L 1896 928" stroke-miterlimit="10"/></g><g transform="translate(-358,-198) scale(1,1)"><path fill="none" stroke="#000000" d="M 1885.837325142376 932.209517756016 L 1896 928 L 1885.837325142376 923.790482243984" stroke-miterlimit="10"/></g><g transform="translate(-358,-198) scale(1,1)"><path fill="none" stroke="#000000" d="M 1664 824 L 1848 824 L 1848 776 L 1896 776" stroke-miterlimit="10"/></g><g transform="translate(-358,-198) scale(1,1)"><path fill="none" stroke="#000000" d="M 1885.837325142376 780.209517756016 L 1896 776 L 1885.837325142376 771.790482243984" stroke-miterlimit="10"/></g><g transform="translate(-358,-198) scale(1,1)"><path fill="none" stroke="#000000" d="M 1664 1032 L 1816 1032 L 1816 1136 L 1896 1136" stroke-miterlimit="10"/></g><g transform="translate(-358,-198) scale(1,1)"><path fill="none" stroke="#000000" d="M 1885.837325142376 1140.2095177560159 L 1896 1136 L 1885.837325142376 1131.7904822439841" stroke-miterlimit="10"/></g><g transform="translate(-358,-198) scale(1,1)"><path fill="none" stroke="#000000" d="M 1664 1032 L 1816 1032 L 1816 752 L 1896 752" stroke-miterlimit="10"/></g><g transform="translate(-358,-198) scale(1,1)"><path fill="none" stroke="#000000" d="M 1885.837325142376 756.209517756016 L 1896 752 L 1885.837325142376 747.790482243984" stroke-miterlimit="10"/></g><g transform="translate(-358,-198) scale(1,1)"><path fill="none" stroke="#000000" d="M 1664 1156 L 1720 1156 L 1720 704 L 1896 704" stroke-miterlimit="10"/></g><g transform="translate(-358,-198) scale(1,1)"><path fill="none" stroke="#000000" d="M 1885.837325142376 708.209517756016 L 1896 704 L 1885.837325142376 699.790482243984" stroke-miterlimit="10"/></g><g transform="translate(-358,-198) scale(1,1)"><path fill="none" stroke="#000000" d="M 1664 1156 L 1720 1156 L 1720 592 L 1896 592" stroke-miterlimit="10"/></g><g transform="translate(-358,-198) scale(1,1)"><path fill="none" stroke="#000000" d="M 1885.837325142376 596.209517756016 L 1896 592 L 1885.837325142376 587.790482243984" stroke-miterlimit="10"/></g><g transform="translate(-358,-198) scale(1,1)"><path fill="none" stroke="#000000" d="M 1592 696 L 1592 560 L 1896 560" stroke-miterlimit="10"/></g><g transform="translate(-358,-198) scale(1,1)"><path fill="none" stroke="#000000" d="M 1885.837325142376 564.209517756016 L 1896 560 L 1885.837325142376 555.790482243984" stroke-miterlimit="10"/></g><g transform="translate(-358,-198) scale(1,1)"><path fill="none" stroke="#000000" d="M 1664 728 L 1896 728" stroke-miterlimit="10"/></g><g transform="translate(-358,-198) scale(1,1)"><path fill="none" stroke="#000000" d="M 1885.837325142376 732.209517756016 L 1896 728 L 1885.837325142376 723.790482243984" stroke-miterlimit="10"/></g><g transform="translate(-358,-198) scale(1,1)"><rect fill="#ffeaff" stroke="none" x="576" y="568" width="104" height="120"/></g><g transform="translate(-358,-198) scale(1,1)"><path fill="none" stroke="#000000" d="M 576 568 L 680 568 L 680 688 L 576 688 L 576 568 Z Z" stroke-miterlimit="10"/></g><g transform="translate(-358,-198) scale(1,1)"><g><path fill="none" stroke="none"/><text fill="#000000" stroke="none" font-family="Arial" font-size="13px" font-style="normal" font-weight="normal" text-decoration="none" x="597.655029296875" y="586">home.html</text></g></g><g transform="translate(-358,-198) scale(1,1)"><g><path fill="none" stroke="none"/><text fill="#000000" stroke="none" font-family="Arial" font-size="13px" font-style="normal" font-weight="normal" text-decoration="none" x="594.043212890625" y="601">left-bar.html</text></g></g><g transform="translate(-358,-198) scale(1,1)"><g><path fill="none" stroke="none"/><text fill="#000000" stroke="none" font-family="Arial" font-size="13px" font-style="normal" font-weight="normal" text-decoration="none" x="590.069580078125" y="616">right-bar.html</text></g></g><g transform="translate(-358,-198) scale(1,1)"><g><path fill="none" stroke="none"/><text fill="#000000" stroke="none" font-family="Arial" font-size="13px" font-style="normal" font-weight="normal" text-decoration="none" x="598.378662109375" y="631">tweet.html</text></g></g><g transform="translate(-358,-198) scale(1,1)"><g><path fill="none" stroke="none"/><text fill="#000000" stroke="none" font-family="Arial" font-size="13px" font-style="normal" font-weight="normal" text-decoration="none" x="582.12548828125" y="646">bookmarks.html</text></g></g><g transform="translate(-358,-198) scale(1,1)"><g><path fill="none" stroke="none"/><text fill="#000000" stroke="none" font-family="Arial" font-size="13px" font-style="normal" font-weight="normal" text-decoration="none" x="596.2109375" y="661">profile.html</text></g></g><g transform="translate(-358,-198) scale(1,1)"><g><path fill="none" stroke="none"/><text fill="#000000" stroke="none" font-family="Arial" font-size="13px" font-style="normal" font-weight="normal" text-decoration="none" x="582.839599609375" y="676">notification.html</text></g></g><g transform="translate(-358,-198) scale(1,1)"><g><path fill="none" stroke="none"/></g></g><g transform="translate(-358,-198) scale(1,1)"><g><path fill="none" stroke="none"/></g></g><g transform="translate(-358,-198) scale(1,1)"><g><path fill="none" stroke="none"/></g></g><g transform="translate(-358,-198) scale(1,1)"><rect fill="#C0C0C0" stroke="none" x="887" y="719" width="79" height="32" opacity="0.2"/></g><g transform="translate(-358,-198) scale(1,1)"><rect fill="#ffd8ff" stroke="none" x="880" y="712" width="79" height="32"/></g><g transform="translate(-358,-198) scale(1,1)"><path fill="none" stroke="#000000" d="M 880 712 L 959 712 L 959 744 L 880 744 L 880 712 Z Z" stroke-miterlimit="10"/></g><g transform="translate(-358,-198) scale(1,1)"><g><path fill="none" stroke="none"/><text fill="#000000" stroke="none" font-family="Arial" font-size="13px" font-style="normal" font-weight="bold" text-decoration="none" x="902.88818359375" y="731.5">VIEW</text></g></g><g transform="translate(-358,-198) scale(1,1)"><rect fill="#C0C0C0" stroke="none" x="887" y="815" width="79" height="32" opacity="0.2"/></g><g transform="translate(-358,-198) scale(1,1)"><rect fill="#ffd8ff" stroke="none" x="880" y="808" width="79" height="32"/></g><g transform="translate(-358,-198) scale(1,1)"><path fill="none" stroke="#000000" d="M 880 808 L 959 808 L 959 840 L 880 840 L 880 808 Z Z" stroke-miterlimit="10"/></g><g transform="translate(-358,-198) scale(1,1)"><g><path fill="none" stroke="none"/><text fill="#000000" stroke="none" font-family="Arial" font-size="13px" font-style="normal" font-weight="bold" text-decoration="none" x="902.88818359375" y="827.5">VIEW</text></g></g><g transform="translate(-358,-198) scale(1,1)"><rect fill="#C0C0C0" stroke="none" x="887" y="927" width="79" height="32" opacity="0.2"/></g><g transform="translate(-358,-198) scale(1,1)"><rect fill="#ffd8ff" stroke="none" x="880" y="920" width="79" height="32"/></g><g transform="translate(-358,-198) scale(1,1)"><path fill="none" stroke="#000000" d="M 880 920 L 959 920 L 959 952 L 880 952 L 880 920 Z Z" stroke-miterlimit="10"/></g><g transform="translate(-358,-198) scale(1,1)"><g><path fill="none" stroke="none"/><text fill="#000000" stroke="none" font-family="Arial" font-size="13px" font-style="normal" font-weight="bold" text-decoration="none" x="902.88818359375" y="939.5">VIEW</text></g></g><g transform="translate(-358,-198) scale(1,1)"><rect fill="#C0C0C0" stroke="none" x="887" y="1023" width="79" height="32" opacity="0.2"/></g><g transform="translate(-358,-198) scale(1,1)"><rect fill="#ffd8ff" stroke="none" x="880" y="1016" width="79" height="32"/></g><g transform="translate(-358,-198) scale(1,1)"><path fill="none" stroke="#000000" d="M 880 1016 L 959 1016 L 959 1048 L 880 1048 L 880 1016 Z Z" stroke-miterlimit="10"/></g><g transform="translate(-358,-198) scale(1,1)"><g><path fill="none" stroke="none"/><text fill="#000000" stroke="none" font-family="Arial" font-size="13px" font-style="normal" font-weight="bold" text-decoration="none" x="902.88818359375" y="1035.5">VIEW</text></g></g><g transform="translate(-358,-198) scale(1,1)"><rect fill="#C0C0C0" stroke="none" x="887" y="1143" width="79" height="32" opacity="0.2"/></g><g transform="translate(-358,-198) scale(1,1)"><rect fill="#ffd8ff" stroke="none" x="880" y="1136" width="79" height="32"/></g><g transform="translate(-358,-198) scale(1,1)"><path fill="none" stroke="#000000" d="M 880 1136 L 959 1136 L 959 1168 L 880 1168 L 880 1136 Z Z" stroke-miterlimit="10"/></g><g transform="translate(-358,-198) scale(1,1)"><g><path fill="none" stroke="none"/><text fill="#000000" stroke="none" font-family="Arial" font-size="13px" font-style="normal" font-weight="bold" text-decoration="none" x="902.88818359375" y="1155.5">VIEW</text></g></g><g transform="translate(-358,-198) scale(1,1)"><path fill="none" stroke="#000000" d="M 1096 727 L 959 727" stroke-miterlimit="10"/></g><g transform="translate(-358,-198) scale(1,1)"><path fill="none" stroke="#000000" d="M 969.1626748576241 722.790482243984 L 959 727 L 969.1626748576241 731.209517756016" stroke-miterlimit="10"/></g><g transform="translate(-358,-198) scale(1,1)"><path fill="none" stroke="#000000" d="M 1096 821 L 959 821" stroke-miterlimit="10"/></g><g transform="translate(-358,-198) scale(1,1)"><path fill="none" stroke="#000000" d="M 969.1626748576241 816.790482243984 L 959 821 L 969.1626748576241 825.209517756016" stroke-miterlimit="10"/></g><g transform="translate(-358,-198) scale(1,1)"><path fill="none" stroke="#000000" d="M 1096 935 L 959 935" stroke-miterlimit="10"/></g><g transform="translate(-358,-198) scale(1,1)"><path fill="none" stroke="#000000" d="M 969.1626748576241 930.790482243984 L 959 935 L 969.1626748576241 939.209517756016" stroke-miterlimit="10"/></g><g transform="translate(-358,-198) scale(1,1)"><path fill="none" stroke="#000000" d="M 1096 1032 L 959 1032" stroke-miterlimit="10"/></g><g transform="translate(-358,-198) scale(1,1)"><path fill="none" stroke="#000000" d="M 969.1626748576241 1027.7904822439841 L 959 1032 L 969.1626748576241 1036.2095177560159" stroke-miterlimit="10"/></g><g transform="translate(-358,-198) scale(1,1)"><path fill="none" stroke="#000000" d="M 1096 1152 L 959 1152" stroke-miterlimit="10"/></g><g transform="translate(-358,-198) scale(1,1)"><path fill="none" stroke="#000000" d="M 969.1626748576241 1147.7904822439841 L 959 1152 L 969.1626748576241 1156.2095177560159" stroke-miterlimit="10"/></g><g transform="translate(-358,-198) scale(1,1)"><rect fill="#ffeaff" stroke="none" x="720" y="688" width="143" height="56"/></g><g transform="translate(-358,-198) scale(1,1)"><path fill="none" stroke="#000000" d="M 720 688 L 863 688 L 863 744 L 720 744 L 720 688 Z Z" stroke-miterlimit="10"/></g><g transform="translate(-358,-198) scale(1,1)"><g><path fill="none" stroke="none"/><text fill="#000000" stroke="none" font-family="Arial" font-size="13px" font-style="normal" font-weight="normal" text-decoration="none" x="745.990478515625" y="706">write-tweet.html</text></g></g><g transform="translate(-358,-198) scale(1,1)"><g><path fill="none" stroke="none"/><text fill="#000000" stroke="none" font-family="Arial" font-size="13px" font-style="normal" font-weight="normal" text-decoration="none" x="744.5400390625" y="721">show-tweet.html</text></g></g><g transform="translate(-358,-198) scale(1,1)"><g><path fill="none" stroke="none"/><text fill="#000000" stroke="none" font-family="Arial" font-size="13px" font-style="normal" font-weight="normal" text-decoration="none" x="761.878662109375" y="736">tweet.html</text></g></g><g transform="translate(-358,-198) scale(1,1)"><g><path fill="none" stroke="none"/></g></g><g transform="translate(-358,-198) scale(1,1)"><rect fill="#ffeaff" stroke="none" x="728" y="800" width="144" height="43"/></g><g transform="translate(-358,-198) scale(1,1)"><path fill="none" stroke="#000000" d="M 728 800 L 872 800 L 872 843 L 728 843 L 728 800 Z Z" stroke-miterlimit="10"/></g><g transform="translate(-358,-198) scale(1,1)"><g><path fill="none" stroke="none"/></g></g><g transform="translate(-358,-198) scale(1,1)"><g><path fill="none" stroke="none"/><text fill="#000000" stroke="none" font-family="Arial" font-size="13px" font-style="normal" font-weight="normal" text-decoration="none" x="764.595947265625" y="820">explore.html</text></g></g><g transform="translate(-358,-198) scale(1,1)"><g><path fill="none" stroke="none"/><text fill="#000000" stroke="none" font-family="Arial" font-size="13px" font-style="normal" font-weight="normal" text-decoration="none" x="739.306884765625" y="835">explore-element.html</text></g></g><g transform="translate(-358,-198) scale(1,1)"><g><path fill="none" stroke="none"/></g></g><g transform="translate(-358,-198) scale(1,1)"><rect fill="#ffeaff" stroke="none" x="720" y="928" width="148.18994140625" height="24"/></g><g transform="translate(-358,-198) scale(1,1)"><path fill="none" stroke="#000000" d="M 720 928 L 868.18994140625 928 L 868.18994140625 952 L 720 952 L 720 928 Z Z" stroke-miterlimit="10"/></g><g transform="translate(-358,-198) scale(1,1)"><g><path fill="none" stroke="none"/><text fill="#000000" stroke="none" font-family="Arial" font-size="13px" font-style="normal" font-weight="normal" text-decoration="none" x="760.5" y="946">search.html</text></g></g><g transform="translate(-358,-198) scale(1,1)"><rect fill="#ffeaff" stroke="none" x="712" y="1008" width="151" height="41"/></g><g transform="translate(-358,-198) scale(1,1)"><path fill="none" stroke="#000000" d="M 712 1008 L 863 1008 L 863 1049 L 712 1049 L 712 1008 Z Z" stroke-miterlimit="10"/></g><g transform="translate(-358,-198) scale(1,1)"><g><path fill="none" stroke="none"/><text fill="#000000" stroke="none" font-family="Arial" font-size="13px" font-style="normal" font-weight="normal" text-decoration="none" x="742.339599609375" y="1026">notification.html</text></g></g><g transform="translate(-358,-198) scale(1,1)"><g><path fill="none" stroke="none"/><text fill="#000000" stroke="none" font-family="Arial" font-size="13px" font-style="normal" font-weight="normal" text-decoration="none" x="739.089599609375" y="1041">notifications.html</text></g></g><g transform="translate(-358,-198) scale(1,1)"><g><path fill="none" stroke="none"/></g></g><g transform="translate(-358,-198) scale(1,1)"><rect fill="#ffeaff" stroke="none" x="704" y="1120" width="167" height="47"/></g><g transform="translate(-358,-198) scale(1,1)"><path fill="none" stroke="#000000" d="M 704 1120 L 871 1120 L 871 1167 L 704 1167 L 704 1120 Z Z" stroke-miterlimit="10"/></g><g transform="translate(-358,-198) scale(1,1)"><g><path fill="none" stroke="none"/><text fill="#000000" stroke="none" font-family="Arial" font-size="13px" font-style="normal" font-weight="normal" text-decoration="none" x="743.06640625" y="1142">edit-profile.html</text></g></g><g transform="translate(-358,-198) scale(1,1)"><g><path fill="none" stroke="none"/><text fill="#000000" stroke="none" font-family="Arial" font-size="13px" font-style="normal" font-weight="normal" text-decoration="none" x="722.826904296875" y="1157">admin-dashboard.html</text></g></g><g transform="translate(-358,-198) scale(1,1)"><rect fill="#ffeaff" stroke="none" x="480" y="304" width="205.51708984375" height="99"/></g><g transform="translate(-358,-198) scale(1,1)"><path fill="none" stroke="#000000" d="M 480 304 L 685.51708984375 304 L 685.51708984375 403 L 480 403 L 480 304 Z Z" stroke-miterlimit="10"/></g><g transform="translate(-358,-198) scale(1,1)"><g><path fill="none" stroke="none"/><text fill="#000000" stroke="none" font-family="Arial" font-size="13px" font-style="normal" font-weight="normal" text-decoration="none" x="554.93994140625" y="322">login.html</text></g></g><g transform="translate(-358,-198) scale(1,1)"><g><path fill="none" stroke="none"/><text fill="#000000" stroke="none" font-family="Arial" font-size="13px" font-style="normal" font-weight="normal" text-decoration="none" x="549.51904296875" y="337">signup.html</text></g></g><g transform="translate(-358,-198) scale(1,1)"><g><path fill="none" stroke="none"/><text fill="#000000" stroke="none" font-family="Arial" font-size="13px" font-style="normal" font-weight="normal" text-decoration="none" x="524.239501953125" y="352">reset-password.html</text></g></g><g transform="translate(-358,-198) scale(1,1)"><g><path fill="none" stroke="none"/><text fill="#000000" stroke="none" font-family="Arial" font-size="13px" font-style="normal" font-weight="normal" text-decoration="none" x="522.068603515625" y="367">forgot-password.html</text></g></g><g transform="translate(-358,-198) scale(1,1)"><g><path fill="none" stroke="none"/><text fill="#000000" stroke="none" font-family="Arial" font-size="13px" font-style="normal" font-weight="normal" text-decoration="none" x="486.6708984375" y="382">reset-password-confirmation.html</text></g></g><g transform="translate(-358,-198) scale(1,1)"><g><path fill="none" stroke="none"/><text fill="#000000" stroke="none" font-family="Arial" font-size="13px" font-style="normal" font-weight="normal" text-decoration="none" x="484.5" y="397">forgot-password-confirmation.html</text></g></g></g></svg>