<svg xmlns="http://www.w3.org/2000/svg" xmlns:xlink="http://www.w3.org/1999/xlink" version="1.1" width="804" height="476"><defs/><g><g transform="translate(-6,-6) scale(1,1)"><rect fill="#ffffff" stroke="none" x="16" y="16" width="784" height="456"/></g><g transform="translate(-6,-6) scale(1,1)"><path fill="none" stroke="#000000" d="M 16 16 L 800 16 L 800 472 L 16 472 L 16 16 Z Z" stroke-miterlimit="10"/></g><g transform="translate(-6,-6) scale(1,1)"><rect fill="#C0C0C0" stroke="none" x="311" y="223" width="80" height="32" opacity="0.2"/></g><g transform="translate(-6,-6) scale(1,1)"><rect fill="#d8e5ff" stroke="none" x="304" y="216" width="80" height="32"/></g><g transform="translate(-6,-6) scale(1,1)"><path fill="none" stroke="#000000" d="M 304 216 L 384 216 L 384 248 L 304 248 L 304 216 Z Z" stroke-miterlimit="10"/></g><g transform="translate(-6,-6) scale(1,1)"><g><path fill="none" stroke="none"/><text fill="#000000" stroke="none" font-family="Arial" font-size="13px" font-style="normal" font-weight="bold" text-decoration="none" x="322.446533203125" y="232">Tweets</text></g></g><g transform="translate(-6,-6) scale(1,1)"><rect fill="#C0C0C0" stroke="none" x="47" y="223" width="80" height="32" opacity="0.2"/></g><g transform="translate(-6,-6) scale(1,1)"><rect fill="#ffd6ad" stroke="none" x="40" y="216" width="80" height="32"/></g><g transform="translate(-6,-6) scale(1,1)"><path fill="none" stroke="#000000" d="M 40 216 L 120 216 L 120 248 L 40 248 L 40 216 Z Z" stroke-miterlimit="10"/></g><g transform="translate(-6,-6) scale(1,1)"><g><path fill="none" stroke="none"/><text fill="#000000" stroke="none" font-family="Arial" font-size="13px" font-style="normal" font-weight="bold" text-decoration="none" x="50.740478515625" y="232">Hashtags</text></g></g><g transform="translate(-6,-6) scale(1,1)"><rect fill="#C0C0C0" stroke="none" x="591" y="223" width="112" height="32" opacity="0.2"/></g><g transform="translate(-6,-6) scale(1,1)"><rect fill="#d8e5ff" stroke="none" x="584" y="216" width="112" height="32"/></g><g transform="translate(-6,-6) scale(1,1)"><path fill="none" stroke="#000000" d="M 584 216 L 696 216 L 696 248 L 584 248 L 584 216 Z Z" stroke-miterlimit="10"/></g><g transform="translate(-6,-6) scale(1,1)"><g><path fill="none" stroke="none"/><text fill="#000000" stroke="none" font-family="Arial" font-size="13px" font-style="normal" font-weight="bold" text-decoration="none" x="625.54638671875" y="232">User</text></g></g><g transform="translate(-6,-6) scale(1,1)"><rect fill="#C0C0C0" stroke="none" x="303" y="407" width="95.7236328125" height="32" opacity="0.2"/></g><g transform="translate(-6,-6) scale(1,1)"><rect fill="#ffd6ad" stroke="none" x="296" y="400" width="95.7236328125" height="32"/></g><g transform="translate(-6,-6) scale(1,1)"><path fill="none" stroke="#000000" d="M 296 400 L 391.7236328125 400 L 391.7236328125 432 L 296 432 L 296 400 Z Z" stroke-miterlimit="10"/></g><g transform="translate(-6,-6) scale(1,1)"><g><path fill="none" stroke="none"/><text fill="#000000" stroke="none" font-family="Arial" font-size="13px" font-style="normal" font-weight="bold" text-decoration="none" x="304.5" y="416">Notifications</text></g></g><g transform="translate(-6,-6) scale(1,1)"><path fill="none" stroke="#000000" d="M 120 232 L 304 232" stroke-miterlimit="10"/></g><g transform="translate(-6,-6) scale(1,1)"><path fill="none" stroke="#000000" d="M 290 232 L 304 239" stroke-miterlimit="10"/></g><g transform="translate(-6,-6) scale(1,1)"><path fill="none" stroke="#000000" d="M 290 232 L 304 225" stroke-miterlimit="10"/></g><g transform="translate(-6,-6) scale(1,1)"><path fill="none" stroke="#000000" d="M 290 239 L 290 225" stroke-miterlimit="10"/></g><g transform="translate(-6,-6) scale(1,1)"><path fill="none" stroke="#000000" d="M 134 232 L 120 225" stroke-miterlimit="10"/></g><g transform="translate(-6,-6) scale(1,1)"><path fill="none" stroke="#000000" d="M 134 232 L 120 239" stroke-miterlimit="10"/></g><g transform="translate(-6,-6) scale(1,1)"><path fill="#FFFFFF" stroke="none" d="M 135 232 C 135 228.1340064 138.1340064 225 142 225 C 145.8659936 225 149 228.1340064 149 232 C 149 235.8659936 145.8659936 239 142 239 C 138.1340064 239 135 235.8659936 135 232 Z"/></g><g transform="translate(-6,-6) scale(1,1)"><path fill="none" stroke="#000000" d="M 135 232 C 135 228.1340064 138.1340064 225 142 225 C 145.8659936 225 149 228.1340064 149 232 C 149 235.8659936 145.8659936 239 142 239 C 138.1340064 239 135 235.8659936 135 232 Z" stroke-miterlimit="10"/></g><g transform="translate(-6,-6) scale(1,1)"><g><path fill="none" stroke="none"/><text fill="#000000" stroke="none" font-family="Arial" font-size="12px" font-style="normal" font-weight="normal" text-decoration="none" x="209.921142578125" y="225">has</text></g></g><g transform="translate(-6,-6) scale(1,1)"><g><path fill="none" stroke="none"/><text fill="#000000" stroke="none" font-family="Arial" font-size="10px" font-style="normal" font-weight="normal" text-decoration="none" x="161.75146484375" y="222">0..*</text></g></g><g transform="translate(-6,-6) scale(1,1)"><g><path fill="none" stroke="none"/><text fill="#000000" stroke="none" font-family="Arial" font-size="10px" font-style="normal" font-weight="normal" text-decoration="none" x="265.75146484375" y="222">1..*</text></g></g><g transform="translate(-6,-6) scale(1,1)"><path fill="none" stroke="#000000" d="M 584 232 L 384 232" stroke-miterlimit="10"/></g><g transform="translate(-6,-6) scale(1,1)"><path fill="none" stroke="#000000" d="M 398 232 L 384 225" stroke-miterlimit="10"/></g><g transform="translate(-6,-6) scale(1,1)"><path fill="none" stroke="#000000" d="M 398 232 L 384 239" stroke-miterlimit="10"/></g><g transform="translate(-6,-6) scale(1,1)"><path fill="#FFFFFF" stroke="none" d="M 399 232 C 399 228.1340064 402.1340064 225 406 225 C 409.8659936 225 413 228.1340064 413 232 C 413 235.8659936 409.8659936 239 406 239 C 402.1340064 239 399 235.8659936 399 232 Z"/></g><g transform="translate(-6,-6) scale(1,1)"><path fill="none" stroke="#000000" d="M 399 232 C 399 228.1340064 402.1340064 225 406 225 C 409.8659936 225 413 228.1340064 413 232 C 413 235.8659936 409.8659936 239 406 239 C 402.1340064 239 399 235.8659936 399 232 Z" stroke-miterlimit="10"/></g><g transform="translate(-6,-6) scale(1,1)"><path fill="none" stroke="#000000" d="M 570 232 L 584 239" stroke-miterlimit="10"/></g><g transform="translate(-6,-6) scale(1,1)"><path fill="none" stroke="#000000" d="M 570 232 L 584 225" stroke-miterlimit="10"/></g><g transform="translate(-6,-6) scale(1,1)"><path fill="none" stroke="#000000" d="M 570 239 L 570 225" stroke-miterlimit="10"/></g><g transform="translate(-6,-6) scale(1,1)"><g><path fill="none" stroke="none"/><text fill="#000000" stroke="none" font-family="Arial" font-size="10px" font-style="normal" font-weight="normal" text-decoration="none" x="553.75146484375" y="222">1..*</text></g></g><g transform="translate(-6,-6) scale(1,1)"><g><path fill="none" stroke="none"/><text fill="#000000" stroke="none" font-family="Arial" font-size="10px" font-style="normal" font-weight="normal" text-decoration="none" x="417.75146484375" y="223">0..*</text></g></g><g transform="translate(-6,-6) scale(1,1)"><path fill="none" stroke="#000000" d="M 672 216 L 672 160 L 768 160 L 768 232 L 696 232" stroke-miterlimit="10"/></g><g transform="translate(-6,-6) scale(1,1)"><path fill="none" stroke="#000000" d="M 710 232 L 696 225" stroke-miterlimit="10"/></g><g transform="translate(-6,-6) scale(1,1)"><path fill="none" stroke="#000000" d="M 710 232 L 696 239" stroke-miterlimit="10"/></g><g transform="translate(-6,-6) scale(1,1)"><path fill="#FFFFFF" stroke="none" d="M 711 232 C 711 228.1340064 714.1340064 225 718 225 C 721.8659936 225 725 228.1340064 725 232 C 725 235.8659936 721.8659936 239 718 239 C 714.1340064 239 711 235.8659936 711 232 Z"/></g><g transform="translate(-6,-6) scale(1,1)"><path fill="none" stroke="#000000" d="M 711 232 C 711 228.1340064 714.1340064 225 718 225 C 721.8659936 225 725 228.1340064 725 232 C 725 235.8659936 721.8659936 239 718 239 C 714.1340064 239 711 235.8659936 711 232 Z" stroke-miterlimit="10"/></g><g transform="translate(-6,-6) scale(1,1)"><path fill="none" stroke="#000000" d="M 672 202 L 665 216" stroke-miterlimit="10"/></g><g transform="translate(-6,-6) scale(1,1)"><path fill="none" stroke="#000000" d="M 672 202 L 679 216" stroke-miterlimit="10"/></g><g transform="translate(-6,-6) scale(1,1)"><path fill="#FFFFFF" stroke="none" d="M 665 194 C 665 190.1340064 668.1340064 187 672 187 C 675.8659936 187 679 190.1340064 679 194 C 679 197.8659936 675.8659936 201 672 201 C 668.1340064 201 665 197.8659936 665 194 Z"/></g><g transform="translate(-6,-6) scale(1,1)"><path fill="none" stroke="#000000" d="M 665 194 C 665 190.1340064 668.1340064 187 672 187 C 675.8659936 187 679 190.1340064 679 194 C 679 197.8659936 675.8659936 201 672 201 C 668.1340064 201 665 197.8659936 665 194 Z" stroke-miterlimit="10"/></g><g transform="translate(-6,-6) scale(1,1)"><g><path fill="none" stroke="none"/><text fill="#000000" stroke="none" font-family="Arial" font-size="12px" font-style="normal" font-weight="normal" text-decoration="none" x="728.00830078125" y="153">follow</text></g></g><g transform="translate(-6,-6) scale(1,1)"><g><path fill="none" stroke="none"/><text fill="#000000" stroke="none" font-family="Arial" font-size="10px" font-style="normal" font-weight="normal" text-decoration="none" x="687.5341796875" y="191">0..*</text></g></g><g transform="translate(-6,-6) scale(1,1)"><g><path fill="none" stroke="none"/><text fill="#000000" stroke="none" font-family="Arial" font-size="10px" font-style="normal" font-weight="normal" text-decoration="none" x="729.75146484375" y="223">0..*</text></g></g><g transform="translate(-6,-6) scale(1,1)"><path fill="none" stroke="#000000" d="M 392 416 L 600 416 M 600 416 A 8 8 0 0 0 608 408 L 608 248" stroke-miterlimit="10"/></g><g transform="translate(-6,-6) scale(1,1)"><path fill="none" stroke="#000000" d="M 608 262 L 615 248" stroke-miterlimit="10"/></g><g transform="translate(-6,-6) scale(1,1)"><path fill="none" stroke="#000000" d="M 608 262 L 601 248" stroke-miterlimit="10"/></g><g transform="translate(-6,-6) scale(1,1)"><path fill="#FFFFFF" stroke="none" d="M 601 270 C 601 266.1340064 604.1340064 263 608 263 C 611.8659936 263 615 266.1340064 615 270 C 615 273.8659936 611.8659936 277 608 277 C 604.1340064 277 601 273.8659936 601 270 Z"/></g><g transform="translate(-6,-6) scale(1,1)"><path fill="none" stroke="#000000" d="M 601 270 C 601 266.1340064 604.1340064 263 608 263 C 611.8659936 263 615 266.1340064 615 270 C 615 273.8659936 611.8659936 277 608 277 C 604.1340064 277 601 273.8659936 601 270 Z" stroke-miterlimit="10"/></g><g transform="translate(-6,-6) scale(1,1)"><path fill="none" stroke="#000000" d="M 406 416 L 392 409" stroke-miterlimit="10"/></g><g transform="translate(-6,-6) scale(1,1)"><path fill="none" stroke="#000000" d="M 406 416 L 392 423" stroke-miterlimit="10"/></g><g transform="translate(-6,-6) scale(1,1)"><path fill="#FFFFFF" stroke="none" d="M 407 416 C 407 412.1340064 410.1340064 409 414 409 C 417.8659936 409 421 412.1340064 421 416 C 421 419.8659936 417.8659936 423 414 423 C 410.1340064 423 407 419.8659936 407 416 Z"/></g><g transform="translate(-6,-6) scale(1,1)"><path fill="none" stroke="#000000" d="M 407 416 C 407 412.1340064 410.1340064 409 414 409 C 417.8659936 409 421 412.1340064 421 416 C 421 419.8659936 417.8659936 423 414 423 C 410.1340064 423 407 419.8659936 407 416 Z" stroke-miterlimit="10"/></g><g transform="translate(-6,-6) scale(1,1)"><g><path fill="none" stroke="none"/><text fill="#000000" stroke="none" font-family="Arial" font-size="12px" font-style="normal" font-weight="normal" text-decoration="none" x="503.5" y="433">receive or generate</text></g></g><g transform="translate(-6,-6) scale(1,1)"><g><path fill="none" stroke="none"/><text fill="#000000" stroke="none" font-family="Arial" font-size="10px" font-style="normal" font-weight="normal" text-decoration="none" x="425.75146484375" y="407">0..*</text></g></g><g transform="translate(-6,-6) scale(1,1)"><g><path fill="none" stroke="none"/><text fill="#000000" stroke="none" font-family="Arial" font-size="10px" font-style="normal" font-weight="normal" text-decoration="none" x="569.75146484375" y="279">0..*</text></g></g><g transform="translate(-6,-6) scale(1,1)"><path fill="none" stroke="#000000" d="M 344 248 L 344 400" stroke-miterlimit="10"/></g><g transform="translate(-6,-6) scale(1,1)"><path fill="none" stroke="#000000" d="M 344 386 L 337 400" stroke-miterlimit="10"/></g><g transform="translate(-6,-6) scale(1,1)"><path fill="none" stroke="#000000" d="M 344 386 L 351 400" stroke-miterlimit="10"/></g><g transform="translate(-6,-6) scale(1,1)"><path fill="#FFFFFF" stroke="none" d="M 337 378 C 337 374.1340064 340.1340064 371 344 371 C 347.8659936 371 351 374.1340064 351 378 C 351 381.8659936 347.8659936 385 344 385 C 340.1340064 385 337 381.8659936 337 378 Z"/></g><g transform="translate(-6,-6) scale(1,1)"><path fill="none" stroke="#000000" d="M 337 378 C 337 374.1340064 340.1340064 371 344 371 C 347.8659936 371 351 374.1340064 351 378 C 351 381.8659936 347.8659936 385 344 385 C 340.1340064 385 337 381.8659936 337 378 Z" stroke-miterlimit="10"/></g><g transform="translate(-6,-6) scale(1,1)"><path fill="none" stroke="#000000" d="M 344 262 L 351 248" stroke-miterlimit="10"/></g><g transform="translate(-6,-6) scale(1,1)"><path fill="none" stroke="#000000" d="M 344 262 L 337 248" stroke-miterlimit="10"/></g><g transform="translate(-6,-6) scale(1,1)"><path fill="#FFFFFF" stroke="none" d="M 337 270 C 337 266.1340064 340.1340064 263 344 263 C 347.8659936 263 351 266.1340064 351 270 C 351 273.8659936 347.8659936 277 344 277 C 340.1340064 277 337 273.8659936 337 270 Z"/></g><g transform="translate(-6,-6) scale(1,1)"><path fill="none" stroke="#000000" d="M 337 270 C 337 266.1340064 340.1340064 263 344 263 C 347.8659936 263 351 266.1340064 351 270 C 351 273.8659936 347.8659936 277 344 277 C 340.1340064 277 337 273.8659936 337 270 Z" stroke-miterlimit="10"/></g><g transform="translate(-6,-6) scale(1,1)"><g><path fill="none" stroke="none"/><text fill="#000000" stroke="none" font-family="Arial" font-size="12px" font-style="normal" font-weight="normal" text-decoration="none" x="360.306884765625" y="327">produce</text></g></g><g transform="translate(-6,-6) scale(1,1)"><g><path fill="none" stroke="none"/><text fill="#000000" stroke="none" font-family="Arial" font-size="10px" font-style="normal" font-weight="normal" text-decoration="none" x="361.75146484375" y="286">0..*</text></g></g><g transform="translate(-6,-6) scale(1,1)"><g><path fill="none" stroke="none"/><text fill="#000000" stroke="none" font-family="Arial" font-size="10px" font-style="normal" font-weight="normal" text-decoration="none" x="361.75146484375" y="373">0..*</text></g></g><g transform="translate(-6,-6) scale(1,1)"><rect fill="#C0C0C0" stroke="none" x="319" y="47" width="68.341796875" height="32" opacity="0.2"/></g><g transform="translate(-6,-6) scale(1,1)"><rect fill="#ffd6ad" stroke="none" x="312" y="40" width="68.341796875" height="32"/></g><g transform="translate(-6,-6) scale(1,1)"><path fill="none" stroke="#000000" d="M 312 40 L 380.341796875 40 L 380.341796875 72 L 312 72 L 312 40 Z Z" stroke-miterlimit="10"/></g><g transform="translate(-6,-6) scale(1,1)"><g><path fill="none" stroke="none"/><text fill="#000000" stroke="none" font-family="Arial" font-size="13px" font-style="normal" font-weight="bold" text-decoration="none" x="328.4736328125" y="56">Trend</text></g></g><g transform="translate(-6,-6) scale(1,1)"><path fill="none" stroke="#000000" d="M 344 72 L 344 216" stroke-miterlimit="10"/></g><g transform="translate(-6,-6) scale(1,1)"><path fill="none" stroke="#000000" d="M 344 202 L 337 216" stroke-miterlimit="10"/></g><g transform="translate(-6,-6) scale(1,1)"><path fill="none" stroke="#000000" d="M 344 202 L 351 216" stroke-miterlimit="10"/></g><g transform="translate(-6,-6) scale(1,1)"><path fill="#FFFFFF" stroke="none" d="M 337 194 C 337 190.1340064 340.1340064 187 344 187 C 347.8659936 187 351 190.1340064 351 194 C 351 197.8659936 347.8659936 201 344 201 C 340.1340064 201 337 197.8659936 337 194 Z"/></g><g transform="translate(-6,-6) scale(1,1)"><path fill="none" stroke="#000000" d="M 337 194 C 337 190.1340064 340.1340064 187 344 187 C 347.8659936 187 351 190.1340064 351 194 C 351 197.8659936 347.8659936 201 344 201 C 340.1340064 201 337 197.8659936 337 194 Z" stroke-miterlimit="10"/></g><g transform="translate(-6,-6) scale(1,1)"><path fill="none" stroke="#000000" d="M 344 86 L 351 72" stroke-miterlimit="10"/></g><g transform="translate(-6,-6) scale(1,1)"><path fill="none" stroke="#000000" d="M 344 86 L 337 72" stroke-miterlimit="10"/></g><g transform="translate(-6,-6) scale(1,1)"><path fill="#FFFFFF" stroke="none" d="M 337 94 C 337 90.1340064 340.1340064 87 344 87 C 347.8659936 87 351 90.1340064 351 94 C 351 97.8659936 347.8659936 101 344 101 C 340.1340064 101 337 97.8659936 337 94 Z"/></g><g transform="translate(-6,-6) scale(1,1)"><path fill="none" stroke="#000000" d="M 337 94 C 337 90.1340064 340.1340064 87 344 87 C 347.8659936 87 351 90.1340064 351 94 C 351 97.8659936 347.8659936 101 344 101 C 340.1340064 101 337 97.8659936 337 94 Z" stroke-miterlimit="10"/></g><g transform="translate(-6,-6) scale(1,1)"><g><path fill="none" stroke="none"/><text fill="#000000" stroke="none" font-family="Arial" font-size="12px" font-style="normal" font-weight="normal" text-decoration="none" x="360.3623046875" y="145">contains</text></g></g><g transform="translate(-6,-6) scale(1,1)"><g><path fill="none" stroke="none"/><text fill="#000000" stroke="none" font-family="Arial" font-size="10px" font-style="normal" font-weight="normal" text-decoration="none" x="361.75146484375" y="110">0..*</text></g></g><g transform="translate(-6,-6) scale(1,1)"><g><path fill="none" stroke="none"/><text fill="#000000" stroke="none" font-family="Arial" font-size="10px" font-style="normal" font-weight="normal" text-decoration="none" x="361.75146484375" y="181">0..*</text></g></g><g transform="translate(-6,-6) scale(1,1)"><path fill="none" stroke="#000000" d="M 312 56 L 88 56 M 88 56 A 8 8 0 0 0 80 64 L 80 216" stroke-miterlimit="10"/></g><g transform="translate(-6,-6) scale(1,1)"><path fill="none" stroke="#000000" d="M 80 202 L 73 216" stroke-miterlimit="10"/></g><g transform="translate(-6,-6) scale(1,1)"><path fill="none" stroke="#000000" d="M 80 202 L 87 216" stroke-miterlimit="10"/></g><g transform="translate(-6,-6) scale(1,1)"><path fill="none" stroke="#000000" d="M 73 202 L 87 202" stroke-miterlimit="10"/></g><g transform="translate(-6,-6) scale(1,1)"><path fill="none" stroke="#000000" d="M 305 63 L 305 49" stroke-miterlimit="10"/></g><g transform="translate(-6,-6) scale(1,1)"><path fill="none" stroke="#000000" d="M 298 63 L 298 49" stroke-miterlimit="10"/></g><g transform="translate(-6,-6) scale(1,1)"><g><path fill="none" stroke="none"/><text fill="#000000" stroke="none" font-family="Arial" font-size="12px" font-style="normal" font-weight="normal" text-decoration="none" x="80.8623046875" y="49">references</text></g></g><g transform="translate(-6,-6) scale(1,1)"><g><path fill="none" stroke="none"/><text fill="#000000" stroke="none" font-family="Arial" font-size="10px" font-style="normal" font-weight="normal" text-decoration="none" x="280.334228515625" y="46">1</text></g></g><g transform="translate(-6,-6) scale(1,1)"><g><path fill="none" stroke="none"/><text fill="#000000" stroke="none" font-family="Arial" font-size="10px" font-style="normal" font-weight="normal" text-decoration="none" x="48.75146484375" y="198">1..*</text></g></g><g transform="translate(-6,-6) scale(1,1)"><path fill="none" stroke="#000000" d="M 380 56 L 600 56 M 600 56 A 8 8 0 0 1 608 64 L 608 216" stroke-miterlimit="10"/></g><g transform="translate(-6,-6) scale(1,1)"><path fill="none" stroke="#000000" d="M 608 202 L 601 216" stroke-miterlimit="10"/></g><g transform="translate(-6,-6) scale(1,1)"><path fill="none" stroke="#000000" d="M 608 202 L 615 216" stroke-miterlimit="10"/></g><g transform="translate(-6,-6) scale(1,1)"><path fill="#FFFFFF" stroke="none" d="M 601 194 C 601 190.1340064 604.1340064 187 608 187 C 611.8659936 187 615 190.1340064 615 194 C 615 197.8659936 611.8659936 201 608 201 C 604.1340064 201 601 197.8659936 601 194 Z"/></g><g transform="translate(-6,-6) scale(1,1)"><path fill="none" stroke="#000000" d="M 601 194 C 601 190.1340064 604.1340064 187 608 187 C 611.8659936 187 615 190.1340064 615 194 C 615 197.8659936 611.8659936 201 608 201 C 604.1340064 201 601 197.8659936 601 194 Z" stroke-miterlimit="10"/></g><g transform="translate(-6,-6) scale(1,1)"><path fill="none" stroke="#000000" d="M 394 56 L 380 49" stroke-miterlimit="10"/></g><g transform="translate(-6,-6) scale(1,1)"><path fill="none" stroke="#000000" d="M 394 56 L 380 63" stroke-miterlimit="10"/></g><g transform="translate(-6,-6) scale(1,1)"><path fill="#FFFFFF" stroke="none" d="M 395 56 C 395 52.1340064 398.1340064 49 402 49 C 405.8659936 49 409 52.1340064 409 56 C 409 59.8659936 405.8659936 63 402 63 C 398.1340064 63 395 59.8659936 395 56 Z"/></g><g transform="translate(-6,-6) scale(1,1)"><path fill="none" stroke="#000000" d="M 395 56 C 395 52.1340064 398.1340064 49 402 49 C 405.8659936 49 409 52.1340064 409 56 C 409 59.8659936 405.8659936 63 402 63 C 398.1340064 63 395 59.8659936 395 56 Z" stroke-miterlimit="10"/></g><g transform="translate(-6,-6) scale(1,1)"><g><path fill="none" stroke="none"/><text fill="#000000" stroke="none" font-family="Arial" font-size="12px" font-style="normal" font-weight="normal" text-decoration="none" x="560.306884765625" y="47">appears</text></g></g><g transform="translate(-6,-6) scale(1,1)"><g><path fill="none" stroke="none"/><text fill="#000000" stroke="none" font-family="Arial" font-size="10px" font-style="normal" font-weight="normal" text-decoration="none" x="417.75146484375" y="47">0..*</text></g></g><g transform="translate(-6,-6) scale(1,1)"><g><path fill="none" stroke="none"/><text fill="#000000" stroke="none" font-family="Arial" font-size="10px" font-style="normal" font-weight="normal" text-decoration="none" x="625.75146484375" y="191">0..*</text></g></g></g></svg>