<svg xmlns="http://www.w3.org/2000/svg" xmlns:xlink="http://www.w3.org/1999/xlink" version="1.1" width="644" height="379"><defs/><g><g transform="translate(2,-86) scale(1,1)"><rect fill="#ffffff" stroke="none" x="8" y="96" width="624" height="359"/></g><g transform="translate(2,-86) scale(1,1)"><path fill="none" stroke="#000000" d="M 8 96 L 632 96 L 632 455 L 8 455 L 8 96 Z Z" stroke-miterlimit="10"/></g><g transform="translate(2,-86) scale(1,1)"><rect fill="#C0C0C0" stroke="none" x="255" y="207" width="80" height="32" opacity="0.2"/></g><g transform="translate(2,-86) scale(1,1)"><rect fill="#d8e5ff" stroke="none" x="248" y="200" width="80" height="32"/></g><g transform="translate(2,-86) scale(1,1)"><path fill="none" stroke="#000000" d="M 248 200 L 328 200 L 328 232 L 248 232 L 248 200 Z Z" stroke-miterlimit="10"/></g><g transform="translate(2,-86) scale(1,1)"><g><path fill="none" stroke="none"/><text fill="#000000" stroke="none" font-family="Arial" font-size="13px" font-style="normal" font-weight="bold" text-decoration="none" x="266.446533203125" y="216">Tweets</text></g></g><g transform="translate(2,-86) scale(1,1)"><rect fill="#C0C0C0" stroke="none" x="39" y="207" width="88" height="32" opacity="0.2"/></g><g transform="translate(2,-86) scale(1,1)"><rect fill="#ffd6ad" stroke="none" x="32" y="200" width="88" height="32"/></g><g transform="translate(2,-86) scale(1,1)"><path fill="none" stroke="#000000" d="M 32 200 L 120 200 L 120 232 L 32 232 L 32 200 Z Z" stroke-miterlimit="10"/></g><g transform="translate(2,-86) scale(1,1)"><g><path fill="none" stroke="none"/><text fill="#000000" stroke="none" font-family="Arial" font-size="13px" font-style="normal" font-weight="bold" text-decoration="none" x="46.740478515625" y="216">Hashtags</text></g></g><g transform="translate(2,-86) scale(1,1)"><rect fill="#C0C0C0" stroke="none" x="471" y="207" width="80" height="32" opacity="0.2"/></g><g transform="translate(2,-86) scale(1,1)"><rect fill="#d8e5ff" stroke="none" x="464" y="200" width="80" height="32"/></g><g transform="translate(2,-86) scale(1,1)"><path fill="none" stroke="#000000" d="M 464 200 L 544 200 L 544 232 L 464 232 L 464 200 Z Z" stroke-miterlimit="10"/></g><g transform="translate(2,-86) scale(1,1)"><g><path fill="none" stroke="none"/><text fill="#000000" stroke="none" font-family="Arial" font-size="13px" font-style="normal" font-weight="bold" text-decoration="none" x="489.54638671875" y="216">User</text></g></g><g transform="translate(2,-86) scale(1,1)"><rect fill="#C0C0C0" stroke="none" x="247" y="375" width="104" height="32" opacity="0.2"/></g><g transform="translate(2,-86) scale(1,1)"><rect fill="#ffd6ad" stroke="none" x="240" y="368" width="104" height="32"/></g><g transform="translate(2,-86) scale(1,1)"><path fill="none" stroke="#000000" d="M 240 368 L 344 368 L 344 400 L 240 400 L 240 368 Z Z" stroke-miterlimit="10"/></g><g transform="translate(2,-86) scale(1,1)"><g><path fill="none" stroke="none"/><text fill="#000000" stroke="none" font-family="Arial" font-size="13px" font-style="normal" font-weight="bold" text-decoration="none" x="252.63818359375" y="384">Notifications</text></g></g><g transform="translate(2,-86) scale(1,1)"><path fill="none" stroke="#000000" d="M 120 216 L 248 216" stroke-miterlimit="10"/></g><g transform="translate(2,-86) scale(1,1)"><path fill="none" stroke="#000000" d="M 234 216 L 248 223" stroke-miterlimit="10"/></g><g transform="translate(2,-86) scale(1,1)"><path fill="none" stroke="#000000" d="M 234 216 L 248 209" stroke-miterlimit="10"/></g><g transform="translate(2,-86) scale(1,1)"><path fill="none" stroke="#000000" d="M 234 223 L 234 209" stroke-miterlimit="10"/></g><g transform="translate(2,-86) scale(1,1)"><path fill="none" stroke="#000000" d="M 134 216 L 120 209" stroke-miterlimit="10"/></g><g transform="translate(2,-86) scale(1,1)"><path fill="none" stroke="#000000" d="M 134 216 L 120 223" stroke-miterlimit="10"/></g><g transform="translate(2,-86) scale(1,1)"><path fill="#FFFFFF" stroke="none" d="M 135 216 C 135 212.1340064 138.1340064 209 142 209 C 145.8659936 209 149 212.1340064 149 216 C 149 219.8659936 145.8659936 223 142 223 C 138.1340064 223 135 219.8659936 135 216 Z"/></g><g transform="translate(2,-86) scale(1,1)"><path fill="none" stroke="#000000" d="M 135 216 C 135 212.1340064 138.1340064 209 142 209 C 145.8659936 209 149 212.1340064 149 216 C 149 219.8659936 145.8659936 223 142 223 C 138.1340064 223 135 219.8659936 135 216 Z" stroke-miterlimit="10"/></g><g transform="translate(2,-86) scale(1,1)"><g><path fill="none" stroke="none"/><text fill="#000000" stroke="none" font-family="Arial" font-size="13px" font-style="normal" font-weight="normal" text-decoration="none" x="173.114990234375" y="206">has</text></g></g><g transform="translate(2,-86) scale(1,1)"><g><path fill="none" stroke="none"/><text fill="#000000" stroke="none" font-family="Arial" font-size="13px" font-style="normal" font-weight="normal" text-decoration="none" x="131.5" y="206">0..*</text></g></g><g transform="translate(2,-86) scale(1,1)"><g><path fill="none" stroke="none"/><text fill="#000000" stroke="none" font-family="Arial" font-size="13px" font-style="normal" font-weight="normal" text-decoration="none" x="223.5" y="205">1..*</text></g></g><g transform="translate(2,-86) scale(1,1)"><path fill="none" stroke="#000000" d="M 464 216 L 328 216" stroke-miterlimit="10"/></g><g transform="translate(2,-86) scale(1,1)"><path fill="none" stroke="#000000" d="M 342 216 L 328 209" stroke-miterlimit="10"/></g><g transform="translate(2,-86) scale(1,1)"><path fill="none" stroke="#000000" d="M 342 216 L 328 223" stroke-miterlimit="10"/></g><g transform="translate(2,-86) scale(1,1)"><path fill="#FFFFFF" stroke="none" d="M 343 216 C 343 212.1340064 346.1340064 209 350 209 C 353.8659936 209 357 212.1340064 357 216 C 357 219.8659936 353.8659936 223 350 223 C 346.1340064 223 343 219.8659936 343 216 Z"/></g><g transform="translate(2,-86) scale(1,1)"><path fill="none" stroke="#000000" d="M 343 216 C 343 212.1340064 346.1340064 209 350 209 C 353.8659936 209 357 212.1340064 357 216 C 357 219.8659936 353.8659936 223 350 223 C 346.1340064 223 343 219.8659936 343 216 Z" stroke-miterlimit="10"/></g><g transform="translate(2,-86) scale(1,1)"><path fill="none" stroke="#000000" d="M 457 223 L 457 209" stroke-miterlimit="10"/></g><g transform="translate(2,-86) scale(1,1)"><path fill="none" stroke="#000000" d="M 450 223 L 450 209" stroke-miterlimit="10"/></g><g transform="translate(2,-86) scale(1,1)"><g><path fill="none" stroke="none"/><text fill="#000000" stroke="none" font-family="Arial" font-size="13px" font-style="normal" font-weight="normal" text-decoration="none" x="374.154052734375" y="203">contains</text></g></g><g transform="translate(2,-86) scale(1,1)"><g><path fill="none" stroke="none"/><text fill="#000000" stroke="none" font-family="Arial" font-size="13px" font-style="normal" font-weight="normal" text-decoration="none" x="447.5" y="202">1</text></g></g><g transform="translate(2,-86) scale(1,1)"><g><path fill="none" stroke="none"/><text fill="#000000" stroke="none" font-family="Arial" font-size="13px" font-style="normal" font-weight="normal" text-decoration="none" x="339.5" y="203">0..*</text></g></g><g transform="translate(2,-86) scale(1,1)"><path fill="none" stroke="#000000" d="M 504 200 L 504 152 L 608 152 L 608 216 L 544 216" stroke-miterlimit="10"/></g><g transform="translate(2,-86) scale(1,1)"><path fill="none" stroke="#000000" d="M 558 216 L 544 209" stroke-miterlimit="10"/></g><g transform="translate(2,-86) scale(1,1)"><path fill="none" stroke="#000000" d="M 558 216 L 544 223" stroke-miterlimit="10"/></g><g transform="translate(2,-86) scale(1,1)"><path fill="#FFFFFF" stroke="none" d="M 559 216 C 559 212.1340064 562.1340064 209 566 209 C 569.8659936 209 573 212.1340064 573 216 C 573 219.8659936 569.8659936 223 566 223 C 562.1340064 223 559 219.8659936 559 216 Z"/></g><g transform="translate(2,-86) scale(1,1)"><path fill="none" stroke="#000000" d="M 559 216 C 559 212.1340064 562.1340064 209 566 209 C 569.8659936 209 573 212.1340064 573 216 C 573 219.8659936 569.8659936 223 566 223 C 562.1340064 223 559 219.8659936 559 216 Z" stroke-miterlimit="10"/></g><g transform="translate(2,-86) scale(1,1)"><path fill="none" stroke="#000000" d="M 504 186 L 497 200" stroke-miterlimit="10"/></g><g transform="translate(2,-86) scale(1,1)"><path fill="none" stroke="#000000" d="M 504 186 L 511 200" stroke-miterlimit="10"/></g><g transform="translate(2,-86) scale(1,1)"><path fill="#FFFFFF" stroke="none" d="M 497 178 C 497 174.1340064 500.1340064 171 504 171 C 507.8659936 171 511 174.1340064 511 178 C 511 181.8659936 507.8659936 185 504 185 C 500.1340064 185 497 181.8659936 497 178 Z"/></g><g transform="translate(2,-86) scale(1,1)"><path fill="none" stroke="#000000" d="M 497 178 C 497 174.1340064 500.1340064 171 504 171 C 507.8659936 171 511 174.1340064 511 178 C 511 181.8659936 507.8659936 185 504 185 C 500.1340064 185 497 181.8659936 497 178 Z" stroke-miterlimit="10"/></g><g transform="translate(2,-86) scale(1,1)"><g><path fill="none" stroke="none"/><text fill="#000000" stroke="none" font-family="Arial" font-size="13px" font-style="normal" font-weight="normal" text-decoration="none" x="542.72998046875" y="142">follow</text></g></g><g transform="translate(2,-86) scale(1,1)"><g><path fill="none" stroke="none"/><text fill="#000000" stroke="none" font-family="Arial" font-size="13px" font-style="normal" font-weight="normal" text-decoration="none" x="460.28271484375" y="171">0..*</text></g></g><g transform="translate(2,-86) scale(1,1)"><g><path fill="none" stroke="none"/><text fill="#000000" stroke="none" font-family="Arial" font-size="13px" font-style="normal" font-weight="normal" text-decoration="none" x="571.5" y="234">0..*</text></g></g><g transform="translate(2,-86) scale(1,1)"><path fill="none" stroke="#000000" d="M 344 384 L 496 384 M 496 384 A 8 8 0 0 0 504 376 L 504 232" stroke-miterlimit="10"/></g><g transform="translate(2,-86) scale(1,1)"><path fill="none" stroke="#000000" d="M 504 246 L 511 232" stroke-miterlimit="10"/></g><g transform="translate(2,-86) scale(1,1)"><path fill="none" stroke="#000000" d="M 504 246 L 497 232" stroke-miterlimit="10"/></g><g transform="translate(2,-86) scale(1,1)"><path fill="#FFFFFF" stroke="none" d="M 497 254 C 497 250.1340064 500.1340064 247 504 247 C 507.8659936 247 511 250.1340064 511 254 C 511 257.8659936 507.8659936 261 504 261 C 500.1340064 261 497 257.8659936 497 254 Z"/></g><g transform="translate(2,-86) scale(1,1)"><path fill="none" stroke="#000000" d="M 497 254 C 497 250.1340064 500.1340064 247 504 247 C 507.8659936 247 511 250.1340064 511 254 C 511 257.8659936 507.8659936 261 504 261 C 500.1340064 261 497 257.8659936 497 254 Z" stroke-miterlimit="10"/></g><g transform="translate(2,-86) scale(1,1)"><path fill="none" stroke="#000000" d="M 358 384 L 344 377" stroke-miterlimit="10"/></g><g transform="translate(2,-86) scale(1,1)"><path fill="none" stroke="#000000" d="M 358 384 L 344 391" stroke-miterlimit="10"/></g><g transform="translate(2,-86) scale(1,1)"><path fill="#FFFFFF" stroke="none" d="M 359 384 C 359 380.1340064 362.1340064 377 366 377 C 369.8659936 377 373 380.1340064 373 384 C 373 387.8659936 369.8659936 391 366 391 C 362.1340064 391 359 387.8659936 359 384 Z"/></g><g transform="translate(2,-86) scale(1,1)"><path fill="none" stroke="#000000" d="M 359 384 C 359 380.1340064 362.1340064 377 366 377 C 369.8659936 377 373 380.1340064 373 384 C 373 387.8659936 369.8659936 391 366 391 C 362.1340064 391 359 387.8659936 359 384 Z" stroke-miterlimit="10"/></g><g transform="translate(2,-86) scale(1,1)"><g><path fill="none" stroke="none"/><text fill="#000000" stroke="none" font-family="Arial" font-size="13px" font-style="normal" font-weight="normal" text-decoration="none" x="411.5" y="403">receive or generate</text></g></g><g transform="translate(2,-86) scale(1,1)"><g><path fill="none" stroke="none"/><text fill="#000000" stroke="none" font-family="Arial" font-size="13px" font-style="normal" font-weight="normal" text-decoration="none" x="359.5" y="374">0..*</text></g></g><g transform="translate(2,-86) scale(1,1)"><g><path fill="none" stroke="none"/><text fill="#000000" stroke="none" font-family="Arial" font-size="13px" font-style="normal" font-weight="normal" text-decoration="none" x="471.5" y="259">0..*</text></g></g><g transform="translate(2,-86) scale(1,1)"><path fill="none" stroke="#000000" d="M 288 232 L 288 368" stroke-miterlimit="10"/></g><g transform="translate(2,-86) scale(1,1)"><path fill="none" stroke="#000000" d="M 288 354 L 281 368" stroke-miterlimit="10"/></g><g transform="translate(2,-86) scale(1,1)"><path fill="none" stroke="#000000" d="M 288 354 L 295 368" stroke-miterlimit="10"/></g><g transform="translate(2,-86) scale(1,1)"><path fill="#FFFFFF" stroke="none" d="M 281 346 C 281 342.1340064 284.1340064 339 288 339 C 291.8659936 339 295 342.1340064 295 346 C 295 349.8659936 291.8659936 353 288 353 C 284.1340064 353 281 349.8659936 281 346 Z"/></g><g transform="translate(2,-86) scale(1,1)"><path fill="none" stroke="#000000" d="M 281 346 C 281 342.1340064 284.1340064 339 288 339 C 291.8659936 339 295 342.1340064 295 346 C 295 349.8659936 291.8659936 353 288 353 C 284.1340064 353 281 349.8659936 281 346 Z" stroke-miterlimit="10"/></g><g transform="translate(2,-86) scale(1,1)"><path fill="none" stroke="#000000" d="M 288 246 L 295 232" stroke-miterlimit="10"/></g><g transform="translate(2,-86) scale(1,1)"><path fill="none" stroke="#000000" d="M 288 246 L 281 232" stroke-miterlimit="10"/></g><g transform="translate(2,-86) scale(1,1)"><path fill="#FFFFFF" stroke="none" d="M 281 254 C 281 250.1340064 284.1340064 247 288 247 C 291.8659936 247 295 250.1340064 295 254 C 295 257.8659936 291.8659936 261 288 261 C 284.1340064 261 281 257.8659936 281 254 Z"/></g><g transform="translate(2,-86) scale(1,1)"><path fill="none" stroke="#000000" d="M 281 254 C 281 250.1340064 284.1340064 247 288 247 C 291.8659936 247 295 250.1340064 295 254 C 295 257.8659936 291.8659936 261 288 261 C 284.1340064 261 281 257.8659936 281 254 Z" stroke-miterlimit="10"/></g><g transform="translate(2,-86) scale(1,1)"><g><path fill="none" stroke="none"/><text fill="#000000" stroke="none" font-family="Arial" font-size="13px" font-style="normal" font-weight="normal" text-decoration="none" x="230.5" y="303">produce</text></g></g><g transform="translate(2,-86) scale(1,1)"><g><path fill="none" stroke="none"/><text fill="#000000" stroke="none" font-family="Arial" font-size="13px" font-style="normal" font-weight="normal" text-decoration="none" x="303.5" y="258">0..*</text></g></g><g transform="translate(2,-86) scale(1,1)"><g><path fill="none" stroke="none"/><text fill="#000000" stroke="none" font-family="Arial" font-size="13px" font-style="normal" font-weight="normal" text-decoration="none" x="303.5" y="355">0..*</text></g></g></g></svg>